<?xml version="1.0" encoding="UTF-8" standalone="no"?>
<!-- Created with Inkscape (http://www.inkscape.org/) -->

<svg
   xmlns:dc="http://purl.org/dc/elements/1.1/"
   xmlns:cc="http://creativecommons.org/ns#"
   xmlns:rdf="http://www.w3.org/1999/02/22-rdf-syntax-ns#"
   xmlns:svg="http://www.w3.org/2000/svg"
   xmlns="http://www.w3.org/2000/svg"
   xmlns:sodipodi="http://sodipodi.sourceforge.net/DTD/sodipodi-0.dtd"
   xmlns:inkscape="http://www.inkscape.org/namespaces/inkscape"
   width="297mm"
   height="420mm"
   viewBox="0 0 297 420"
   version="1.1"
   id="svg8"
   inkscape:version="0.92.2 (5c3e80d, 2017-08-06)"
   sodipodi:docname="DissKurs-Oezil-Kommentare-Bild.svg">
  <defs
     id="defs2" />
  <sodipodi:namedview
     id="base"
     pagecolor="#ffffff"
     bordercolor="#666666"
     borderopacity="1.0"
     inkscape:pageopacity="0.0"
     inkscape:pageshadow="2"
     inkscape:zoom="0.35355339"
     inkscape:cx="146.07411"
     inkscape:cy="247.96074"
     inkscape:document-units="mm"
     inkscape:current-layer="layer1"
     showgrid="false"
     inkscape:window-width="958"
     inkscape:window-height="1008"
     inkscape:window-x="-7"
     inkscape:window-y="0"
     inkscape:window-maximized="0"
     inkscape:snap-text-baseline="false"
     inkscape:snap-center="true"
     showguides="false">
    <sodipodi:guide
       position="1.8520833,271.46251"
       orientation="-0.70710678,0.70710678"
       id="guide2035"
       inkscape:locked="false" />
  </sodipodi:namedview>
  <metadata
     id="metadata5">
    <rdf:RDF>
      <cc:Work
         rdf:about="">
        <dc:format>image/svg+xml</dc:format>
        <dc:type
           rdf:resource="http://purl.org/dc/dcmitype/StillImage" />
        <dc:title></dc:title>
      </cc:Work>
    </rdf:RDF>
  </metadata>
  <g
     inkscape:label="Ebene 1"
     inkscape:groupmode="layer"
     id="layer1"
     transform="translate(0,123)">
    <text
       xml:space="preserve"
       style="font-style:normal;font-weight:normal;font-size:10.58333302px;line-height:1.25;font-family:sans-serif;letter-spacing:0px;word-spacing:0px;fill:#000000;fill-opacity:1;stroke:none;stroke-width:0.26458332"
       x="222.25"
       y="-142.20833"
       id="text4531"><tspan
         sodipodi:role="line"
         id="tspan4529"
         x="222.25"
         y="-132.55283"
         style="stroke-width:0.26458332" /></text>
    <text
       xml:space="preserve"
       style="font-style:normal;font-weight:normal;font-size:10.58333302px;line-height:1.25;font-family:sans-serif;letter-spacing:0px;word-spacing:0px;fill:#000000;fill-opacity:1;stroke:none;stroke-width:0.26458332"
       x="283.26392"
       y="-319.64169"
       id="text4587"><tspan
         sodipodi:role="line"
         id="tspan4585"
         x="283.26392"
         y="-309.98621"
         style="stroke-width:0.26458332" /></text>
    <text
       xml:space="preserve"
       style="font-style:normal;font-weight:normal;font-size:10.58333302px;line-height:1.25;font-family:sans-serif;letter-spacing:0px;word-spacing:0px;fill:#000000;fill-opacity:1;stroke:none;stroke-width:0.26458332"
       x="22.634277"
       y="25.388662"
       id="text986"><tspan
         sodipodi:role="line"
         id="tspan984"
         x="22.634277"
         y="35.044159"
         style="font-style:normal;font-variant:normal;font-weight:normal;font-stretch:normal;font-family:D050000L;-inkscape-font-specification:D050000L;stroke-width:0.26458332" /></text>
    <flowRoot
       xml:space="preserve"
       id="flowRoot992"
       style="font-style:normal;font-weight:normal;font-size:40px;line-height:1.25;font-family:sans-serif;letter-spacing:0px;word-spacing:0px;fill:#000000;fill-opacity:1;stroke:none"><flowRegion
         id="flowRegion994"><rect
           id="rect996"
           width="67.842911"
           height="72.880661"
           x="56.922096"
           y="62.213039" /></flowRegion><flowPara
         id="flowPara998" /></flowRoot>    <text
       xml:space="preserve"
       style="font-style:normal;font-weight:normal;font-size:10.58333302px;line-height:1.25;font-family:sans-serif;letter-spacing:0px;word-spacing:0px;fill:#000000;fill-opacity:1;stroke:none;stroke-width:0.26458332"
       x="22.027576"
       y="21.228542"
       id="text1002"><tspan
         sodipodi:role="line"
         x="22.027576"
         y="30.884037"
         style="font-style:normal;font-variant:normal;font-weight:normal;font-stretch:normal;font-size:5.29166651px;line-height:0px;font-family:Changa;-inkscape-font-specification:Changa;text-align:center;text-anchor:middle;fill:#ffffff;stroke-width:0.26458332"
         id="tspan1042" /><tspan
         sodipodi:role="line"
         x="22.027576"
         y="44.113205"
         style="font-style:normal;font-variant:normal;font-weight:normal;font-stretch:normal;font-size:5.29166651px;line-height:0px;font-family:Changa;-inkscape-font-specification:Changa;text-align:center;text-anchor:middle;fill:#ffffff;stroke-width:0.26458332"
         id="tspan1048" /></text>
    <rect
       id="rect3713-2"
       width="20.449255"
       height="20.449255"
       x="12.317937"
       y="-38.15155"
       style="fill:#ed2116;fill-opacity:1;stroke:#ed2116;stroke-width:2;stroke-linejoin:round;stroke-miterlimit:4;stroke-dasharray:none;stroke-opacity:1" />
    <rect
       style="fill:#ed2116;fill-opacity:1;stroke:none;stroke-width:22.18493843;stroke-linejoin:round;stroke-miterlimit:4;stroke-dasharray:none;stroke-opacity:1"
       id="rect4560-3"
       width="138.96597"
       height="6.7860217"
       x="28.638777"
       y="-39.147575" />
    <flowRoot
       xml:space="preserve"
       id="flowRoot4562-7"
       style="font-style:normal;font-weight:normal;font-size:40px;line-height:1.25;font-family:sans-serif;letter-spacing:0px;word-spacing:0px;fill:#000000;fill-opacity:1;stroke:none"
       transform="matrix(0.085113,0,0,0.085113,-12.629603,-65.494413)"><flowRegion
         id="flowRegion4564-5"><rect
           id="rect4566-9"
           width="921.875"
           height="53.90625"
           x="593.75"
           y="328.76965" /></flowRegion><flowPara
         id="flowPara4568-2"
         style="font-style:normal;font-variant:normal;font-weight:normal;font-stretch:normal;font-family:Changa;-inkscape-font-specification:Changa;fill:#ffffff">19. Juni 2018 <flowSpan
   style="font-size:26.66666794px"
   id="flowSpan4583-2">Gefällt 32 Mal   5 Antworten    </flowSpan></flowPara></flowRoot>    <g
       transform="matrix(0.07672838,0,0,0.07672838,14.180644,-100.34246)"
       id="layer1-1"
       inkscape:label="Laag 1"
       style="fill:#ffffff;stroke:#ffffff">
      <path
         inkscape:connector-curvature="0"
         id="path4293-4"
         d="m 76.42344,1042.717 c -2.2224,-0.2267 -4.7225,-0.6821 -5.5559,-1.012 -0.8334,-0.3299 -9.3384,-2.8569 -18.9001,-5.6157 -9.5617,-2.7588 -17.4523,-5.0834 -17.5347,-5.1657 -0.2391,-0.2392 2.2788,-42.51159 2.8639,-48.08136 2.2676,-21.58406 6.0483,-32.16101 14.8649,-41.58634 7.5909,-8.11487 14.9224,-11.77177 27.5448,-13.73911 5.5107,-0.85889 39.4433,-1.23111 47.6206,-0.52237 13.0001,1.12673 21.3056,3.10399 29.1231,6.93322 3.9457,1.93271 5.526,3.0883 9.1422,6.68524 9.4197,9.36932 13.7657,22.358 15.8544,47.38281 1.1656,13.96551 2.4884,42.59711 1.9903,43.07931 -0.9176,0.8884 -17.7367,5.5971 -23.3654,6.5414 -20.4406,3.4292 -70.2575,6.467 -83.6481,5.1006 z"
         style="opacity:1;fill:#ffffff;fill-opacity:1;fill-rule:nonzero;stroke:#ffffff;stroke-width:0.50507629;stroke-opacity:1" />
      <ellipse
         ry="38.327599"
         rx="40.658642"
         cy="883.10352"
         cx="106.96198"
         id="path4295-9"
         style="opacity:1;fill:#ffffff;fill-opacity:1;fill-rule:nonzero;stroke:#ffffff;stroke-opacity:1" />
    </g>
    <rect
       id="rect3713-2-2"
       width="20.449255"
       height="20.449255"
       x="12.317937"
       y="-111.16006"
       style="fill:#ed2116;fill-opacity:1;stroke:#ed2116;stroke-width:2;stroke-linejoin:round;stroke-miterlimit:4;stroke-dasharray:none;stroke-opacity:1" />
    <rect
       style="fill:#ed2116;fill-opacity:1;stroke:none;stroke-width:22.18493843;stroke-linejoin:round;stroke-miterlimit:4;stroke-dasharray:none;stroke-opacity:1"
       id="rect4560-3-2"
       width="138.96597"
       height="6.7860217"
       x="28.638777"
       y="-112.15607" />
    <flowRoot
       xml:space="preserve"
       id="flowRoot4562-7-9"
       style="font-style:normal;font-weight:normal;font-size:40px;line-height:1.25;font-family:sans-serif;letter-spacing:0px;word-spacing:0px;fill:#000000;fill-opacity:1;stroke:none"
       transform="matrix(0.085113,0,0,0.085113,-12.629603,-138.50296)"><flowRegion
         id="flowRegion4564-5-7"><rect
           id="rect4566-9-5"
           width="921.875"
           height="53.90625"
           x="593.75"
           y="328.76965" /></flowRegion><flowPara
         id="flowPara4568-2-6"
         style="font-style:normal;font-variant:normal;font-weight:normal;font-stretch:normal;font-family:Changa;-inkscape-font-specification:Changa;fill:#ffffff">19. Juni 2018 <flowSpan
   style="font-size:26.66666794px"
   id="flowSpan4583-2-4">Gefällt  1401 Mal   43 Antworten   </flowSpan></flowPara></flowRoot>    <g
       transform="matrix(0.07672838,0,0,0.07672838,14.180644,-173.35102)"
       id="layer1-1-8"
       inkscape:label="Laag 1"
       style="fill:#ffffff;stroke:#ffffff">
      <path
         inkscape:connector-curvature="0"
         id="path4293-4-5"
         d="m 76.42344,1042.717 c -2.2224,-0.2267 -4.7225,-0.6821 -5.5559,-1.012 -0.8334,-0.3299 -9.3384,-2.8569 -18.9001,-5.6157 -9.5617,-2.7588 -17.4523,-5.0834 -17.5347,-5.1657 -0.2391,-0.2392 2.2788,-42.51159 2.8639,-48.08136 2.2676,-21.58406 6.0483,-32.16101 14.8649,-41.58634 7.5909,-8.11487 14.9224,-11.77177 27.5448,-13.73911 5.5107,-0.85889 39.4433,-1.23111 47.6206,-0.52237 13.0001,1.12673 21.3056,3.10399 29.1231,6.93322 3.9457,1.93271 5.526,3.0883 9.1422,6.68524 9.4197,9.36932 13.7657,22.358 15.8544,47.38281 1.1656,13.96551 2.4884,42.59711 1.9903,43.07931 -0.9176,0.8884 -17.7367,5.5971 -23.3654,6.5414 -20.4406,3.4292 -70.2575,6.467 -83.6481,5.1006 z"
         style="opacity:1;fill:#ffffff;fill-opacity:1;fill-rule:nonzero;stroke:#ffffff;stroke-width:0.50507629;stroke-opacity:1" />
      <ellipse
         ry="38.327599"
         rx="40.658642"
         cy="883.10352"
         cx="106.96198"
         id="path4295-9-2"
         style="opacity:1;fill:#ffffff;fill-opacity:1;fill-rule:nonzero;stroke:#ffffff;stroke-opacity:1" />
    </g>
    <flowRoot
       transform="matrix(0.26418067,0,0,0.26418067,-0.65544908,-127.18829)"
       xml:space="preserve"
       id="flowRoot1171-2"
       style="font-style:normal;font-weight:normal;font-size:40px;line-height:0.99961823;font-family:sans-serif;letter-spacing:0px;word-spacing:0px;fill:#193e72;fill-opacity:1;stroke:none"><flowRegion
         id="flowRegion1173-2"
         style="fill:#193e72;fill-opacity:1"><rect
           id="rect1175-7"
           width="924.20056"
           height="325.21634"
           x="146"
           y="93.519661"
           style="fill:#193e72;fill-opacity:1" /></flowRegion><flowPara
         id="flowPara1177-0"
         style="font-style:normal;font-variant:normal;font-weight:normal;font-stretch:normal;font-size:18.66666603px;font-family:changa;-inkscape-font-specification:changa;text-align:start;text-anchor:start;fill:#193e72;fill-opacity:1">Wer die Hymne bewußt nicht mitsingt, steht nicht hinter der Mannschaft, nicht hinter der Nation, für die er spielt. Wenn man sieht, wie Spieler anderer Nationen ihre Hymne schmettern, dann ahnt man sofort, mit welcher Begeisterung und Hingabe sie für IHR Land antreten, Dieser Özil gehört nicht in eine deutsche Mannschaft. Ich sage bewußt deutsche Mannschaft, obwohl am Trikot nicht mal ein Emblem zu finden ist, wieso eigentlich? Sind wir nun noch Deutschland oder nicht, also bitte. </flowPara></flowRoot>    <flowRoot
       transform="matrix(0.26418067,0,0,0.26418067,-0.87242908,-55.615006)"
       xml:space="preserve"
       id="flowRoot1171-2-0"
       style="font-style:normal;font-weight:normal;font-size:40px;line-height:0.99961823;font-family:sans-serif;letter-spacing:0px;word-spacing:0px;fill:#193e72;fill-opacity:1;stroke:none"><flowRegion
         id="flowRegion1173-2-2"
         style="fill:#193e72;fill-opacity:1"><rect
           id="rect1175-7-2"
           width="908.17621"
           height="223.06087"
           x="146"
           y="93.519661"
           style="fill:#193e72;fill-opacity:1" /></flowRegion><flowPara
         style="font-style:normal;font-variant:normal;font-weight:normal;font-stretch:normal;font-size:18.66666603px;font-family:changa;-inkscape-font-specification:changa;text-align:start;text-anchor:start;fill:#193e72;fill-opacity:1"
         id="flowPara135">Da hat der Lothar recht. Das Gefühl haben sehr viele in Deutschland. Sein bockiges Verhalten im Vorfeld, das Verweigern der Hymne, all das führt zum Gesamtbild eines Spielers, der zwar gerne abkassieren möchte, der aber nicht für sein Land brennt</flowPara><flowPara
         style="font-style:normal;font-variant:normal;font-weight:normal;font-stretch:normal;font-size:18.66666603px;font-family:changa;-inkscape-font-specification:changa;text-align:start;text-anchor:start;fill:#193e72;fill-opacity:1"
         id="flowPara974" /></flowRoot>    <rect
       id="rect3713-2-2-2"
       width="20.449255"
       height="20.449255"
       x="39.024002"
       y="49.243881"
       style="fill:#ed2116;fill-opacity:1;stroke:#ed2116;stroke-width:2;stroke-linejoin:round;stroke-miterlimit:4;stroke-dasharray:none;stroke-opacity:1" />
    <rect
       style="fill:#ed2116;fill-opacity:1;stroke:none;stroke-width:22.18493843;stroke-linejoin:round;stroke-miterlimit:4;stroke-dasharray:none;stroke-opacity:1"
       id="rect4560-3-2-1"
       width="138.96597"
       height="6.7860217"
       x="55.344841"
       y="48.247856" />
    <flowRoot
       xml:space="preserve"
       id="flowRoot4562-7-9-7"
       style="font-style:normal;font-weight:normal;font-size:40px;line-height:1.25;font-family:sans-serif;letter-spacing:0px;word-spacing:0px;fill:#000000;fill-opacity:1;stroke:none"
       transform="matrix(0.085113,0,0,0.085113,14.07646,21.901018)"><flowRegion
         id="flowRegion4564-5-7-9"><rect
           id="rect4566-9-5-5"
           width="921.875"
           height="53.90625"
           x="593.75"
           y="328.76965" /></flowRegion><flowPara
         id="flowPara4568-2-6-6"
         style="font-style:normal;font-variant:normal;font-weight:normal;font-stretch:normal;font-family:Changa;-inkscape-font-specification:Changa;fill:#ffffff">19. Juni 2018 <flowSpan
   style="font-size:26.66666794px"
   id="flowSpan4583-2-4-8">Gefällt  15 Mal   2 Antworten   </flowSpan></flowPara></flowRoot>    <g
       transform="matrix(0.07672838,0,0,0.07672838,40.886707,-12.947029)"
       id="layer1-1-8-6"
       inkscape:label="Laag 1"
       style="fill:#ffffff;stroke:#ffffff">
      <path
         inkscape:connector-curvature="0"
         id="path4293-4-5-9"
         d="m 76.42344,1042.717 c -2.2224,-0.2267 -4.7225,-0.6821 -5.5559,-1.012 -0.8334,-0.3299 -9.3384,-2.8569 -18.9001,-5.6157 -9.5617,-2.7588 -17.4523,-5.0834 -17.5347,-5.1657 -0.2391,-0.2392 2.2788,-42.51159 2.8639,-48.08136 2.2676,-21.58406 6.0483,-32.16101 14.8649,-41.58634 7.5909,-8.11487 14.9224,-11.77177 27.5448,-13.73911 5.5107,-0.85889 39.4433,-1.23111 47.6206,-0.52237 13.0001,1.12673 21.3056,3.10399 29.1231,6.93322 3.9457,1.93271 5.526,3.0883 9.1422,6.68524 9.4197,9.36932 13.7657,22.358 15.8544,47.38281 1.1656,13.96551 2.4884,42.59711 1.9903,43.07931 -0.9176,0.8884 -17.7367,5.5971 -23.3654,6.5414 -20.4406,3.4292 -70.2575,6.467 -83.6481,5.1006 z"
         style="opacity:1;fill:#ffffff;fill-opacity:1;fill-rule:nonzero;stroke:#ffffff;stroke-width:0.50507629;stroke-opacity:1" />
      <ellipse
         ry="38.327599"
         rx="40.658642"
         cy="883.10352"
         cx="106.96198"
         id="path4295-9-2-0"
         style="opacity:1;fill:#ffffff;fill-opacity:1;fill-rule:nonzero;stroke:#ffffff;stroke-opacity:1" />
    </g>
    <flowRoot
       transform="matrix(0.26458333,0,0,0.26458333,25.16863,29.390269)"
       xml:space="preserve"
       id="flowRoot1171-2-4"
       style="font-style:normal;font-weight:normal;font-size:40px;line-height:1.00428903;font-family:sans-serif;letter-spacing:0px;word-spacing:0px;fill:#193e72;fill-opacity:1;stroke:none"><flowRegion
         id="flowRegion1173-2-8"
         style="fill:#193e72;fill-opacity:1"><rect
           id="rect1175-7-5"
           width="1220.8987"
           height="265.13708"
           x="146"
           y="93.519661"
           style="fill:#193e72;fill-opacity:1" /></flowRegion><flowPara
         style="font-style:normal;font-variant:normal;font-weight:normal;font-stretch:normal;font-size:18.66666603px;font-family:Changa;-inkscape-font-specification:Changa;text-align:start;text-anchor:start;fill:#193e72;fill-opacity:1"
         id="flowPara1726">Er kann das türkische Trikot nicht tragen, er ist deutscher Staatsbürger. </flowPara><flowPara
         id="flowPara1128"
         style="font-style:normal;font-variant:normal;font-weight:normal;font-stretch:normal;font-size:18.66666603px;font-family:Changa;-inkscape-font-specification:Changa;text-align:start;text-anchor:start;fill:#193e72;fill-opacity:1">Und zwar ohne zweite Staatsbürgerschaft</flowPara></flowRoot>    <rect
       id="rect3713-2-2-2-3"
       width="20.449255"
       height="20.449255"
       x="38.2798"
       y="91.908775"
       style="fill:#ed2116;fill-opacity:1;stroke:#ed2116;stroke-width:2;stroke-linejoin:round;stroke-miterlimit:4;stroke-dasharray:none;stroke-opacity:1" />
    <rect
       style="fill:#ed2116;fill-opacity:1;stroke:none;stroke-width:22.18493843;stroke-linejoin:round;stroke-miterlimit:4;stroke-dasharray:none;stroke-opacity:1"
       id="rect4560-3-2-1-1"
       width="138.96597"
       height="6.7860217"
       x="54.600639"
       y="90.912758" />
    <flowRoot
       xml:space="preserve"
       id="flowRoot4562-7-9-7-8"
       style="font-style:normal;font-weight:normal;font-size:40px;line-height:1.25;font-family:sans-serif;letter-spacing:0px;word-spacing:0px;fill:#000000;fill-opacity:1;stroke:none"
       transform="matrix(0.085113,0,0,0.085113,13.33226,64.565916)"><flowRegion
         id="flowRegion4564-5-7-9-7"><rect
           id="rect4566-9-5-5-4"
           width="921.875"
           height="53.90625"
           x="593.75"
           y="328.76965" /></flowRegion><flowPara
         id="flowPara4568-2-6-6-1"
         style="font-style:normal;font-variant:normal;font-weight:normal;font-stretch:normal;font-family:Changa;-inkscape-font-specification:Changa;fill:#ffffff">19. Juni 2018 <flowSpan
   style="font-size:26.66666794px"
   id="flowSpan4583-2-4-8-6">Gefällt  0 Mal   0 Antworten   </flowSpan></flowPara></flowRoot>    <g
       transform="matrix(0.07672838,0,0,0.07672838,40.142507,29.717866)"
       id="layer1-1-8-6-6"
       inkscape:label="Laag 1"
       style="fill:#ffffff;stroke:#ffffff">
      <path
         inkscape:connector-curvature="0"
         id="path4293-4-5-9-0"
         d="m 76.42344,1042.717 c -2.2224,-0.2267 -4.7225,-0.6821 -5.5559,-1.012 -0.8334,-0.3299 -9.3384,-2.8569 -18.9001,-5.6157 -9.5617,-2.7588 -17.4523,-5.0834 -17.5347,-5.1657 -0.2391,-0.2392 2.2788,-42.51159 2.8639,-48.08136 2.2676,-21.58406 6.0483,-32.16101 14.8649,-41.58634 7.5909,-8.11487 14.9224,-11.77177 27.5448,-13.73911 5.5107,-0.85889 39.4433,-1.23111 47.6206,-0.52237 13.0001,1.12673 21.3056,3.10399 29.1231,6.93322 3.9457,1.93271 5.526,3.0883 9.1422,6.68524 9.4197,9.36932 13.7657,22.358 15.8544,47.38281 1.1656,13.96551 2.4884,42.59711 1.9903,43.07931 -0.9176,0.8884 -17.7367,5.5971 -23.3654,6.5414 -20.4406,3.4292 -70.2575,6.467 -83.6481,5.1006 z"
         style="opacity:1;fill:#ffffff;fill-opacity:1;fill-rule:nonzero;stroke:#ffffff;stroke-width:0.50507629;stroke-opacity:1" />
      <ellipse
         ry="38.327599"
         rx="40.658642"
         cy="883.10352"
         cx="106.96198"
         id="path4295-9-2-0-7"
         style="opacity:1;fill:#ffffff;fill-opacity:1;fill-rule:nonzero;stroke:#ffffff;stroke-opacity:1" />
    </g>
    <flowRoot
       transform="matrix(0.26458333,0,0,0.26458333,26.417157,72.896666)"
       xml:space="preserve"
       id="flowRoot1171-2-4-9"
       style="font-style:normal;font-weight:normal;font-size:40px;line-height:1.00428903;font-family:sans-serif;letter-spacing:0px;word-spacing:0px;fill:#193e72;fill-opacity:1;stroke:none"><flowRegion
         id="flowRegion1173-2-8-0"
         style="fill:#193e72;fill-opacity:1"><rect
           id="rect1175-7-5-3"
           width="1220.8987"
           height="265.13708"
           x="146"
           y="93.519661"
           style="fill:#193e72;fill-opacity:1" /></flowRegion><flowPara
         style="font-style:normal;font-variant:normal;font-weight:normal;font-stretch:normal;font-size:18.66666603px;font-family:Changa;-inkscape-font-specification:Changa;text-align:start;text-anchor:start;fill:#193e72;fill-opacity:1"
         id="flowPara1726-5">mir egal</flowPara></flowRoot>    <g
       id="g1069"
       transform="translate(0,-158.75005)">
      <rect
         style="fill:#ed2116;fill-opacity:1;stroke:#ed2116;stroke-width:2;stroke-linejoin:round;stroke-miterlimit:4;stroke-dasharray:none;stroke-opacity:1"
         y="173.2267"
         x="12.317937"
         height="20.449255"
         width="20.449255"
         id="rect3713-2-7" />
      <rect
         y="172.23068"
         x="28.638777"
         height="6.7860217"
         width="138.96597"
         id="rect4560-3-1"
         style="fill:#ed2116;fill-opacity:1;stroke:none;stroke-width:22.18493843;stroke-linejoin:round;stroke-miterlimit:4;stroke-dasharray:none;stroke-opacity:1" />
      <flowRoot
         transform="matrix(0.085113,0,0,0.085113,-12.629603,145.88384)"
         style="font-style:normal;font-weight:normal;font-size:40px;line-height:1.25;font-family:sans-serif;letter-spacing:0px;word-spacing:0px;fill:#000000;fill-opacity:1;stroke:none"
         id="flowRoot4562-7-7"
         xml:space="preserve"><flowRegion
           id="flowRegion4564-5-0"><rect
             y="328.76965"
             x="593.75"
             height="53.90625"
             width="921.875"
             id="rect4566-9-6" /></flowRegion><flowPara
           style="font-style:normal;font-variant:normal;font-weight:normal;font-stretch:normal;font-family:Changa;-inkscape-font-specification:Changa;fill:#ffffff"
           id="flowPara4568-2-0">19. Juni 2018 <flowSpan
   id="flowSpan4583-2-41"
   style="font-size:26.66666794px">Gefällt  0 Mal   11 Antworten    </flowSpan></flowPara></flowRoot>      <g
         style="fill:#ffffff;stroke:#ffffff"
         inkscape:label="Laag 1"
         id="layer1-1-1"
         transform="matrix(0.07672838,0,0,0.07672838,14.180644,111.03579)">
        <path
           style="opacity:1;fill:#ffffff;fill-opacity:1;fill-rule:nonzero;stroke:#ffffff;stroke-width:0.50507629;stroke-opacity:1"
           d="m 76.42344,1042.717 c -2.2224,-0.2267 -4.7225,-0.6821 -5.5559,-1.012 -0.8334,-0.3299 -9.3384,-2.8569 -18.9001,-5.6157 -9.5617,-2.7588 -17.4523,-5.0834 -17.5347,-5.1657 -0.2391,-0.2392 2.2788,-42.51159 2.8639,-48.08136 2.2676,-21.58406 6.0483,-32.16101 14.8649,-41.58634 7.5909,-8.11487 14.9224,-11.77177 27.5448,-13.73911 5.5107,-0.85889 39.4433,-1.23111 47.6206,-0.52237 13.0001,1.12673 21.3056,3.10399 29.1231,6.93322 3.9457,1.93271 5.526,3.0883 9.1422,6.68524 9.4197,9.36932 13.7657,22.358 15.8544,47.38281 1.1656,13.96551 2.4884,42.59711 1.9903,43.07931 -0.9176,0.8884 -17.7367,5.5971 -23.3654,6.5414 -20.4406,3.4292 -70.2575,6.467 -83.6481,5.1006 z"
           id="path4293-4-9"
           inkscape:connector-curvature="0" />
        <ellipse
           style="opacity:1;fill:#ffffff;fill-opacity:1;fill-rule:nonzero;stroke:#ffffff;stroke-opacity:1"
           id="path4295-9-1"
           cx="106.96198"
           cy="883.10352"
           rx="40.658642"
           ry="38.327599" />
      </g>
      <flowRoot
         style="font-style:normal;font-weight:normal;font-size:40px;line-height:0.99961823;font-family:sans-serif;letter-spacing:0px;word-spacing:0px;fill:#193e72;fill-opacity:1;stroke:none"
         id="flowRoot1171-2-0-3"
         xml:space="preserve"
         transform="matrix(0.26418067,0,0,0.26418067,-0.65544908,154.70491)"><flowRegion
           style="fill:#193e72;fill-opacity:1"
           id="flowRegion1173-2-2-8"><rect
             style="fill:#193e72;fill-opacity:1"
             y="93.519661"
             x="146"
             height="273.13708"
             width="1382.8987"
             id="rect1175-7-2-7" /></flowRegion><flowPara
           id="flowPara2175"
           style="font-style:normal;font-variant:normal;font-weight:normal;font-stretch:normal;font-size:18.66666603px;font-family:changa;-inkscape-font-specification:changa;text-align:start;text-anchor:start;fill:#193e72;fill-opacity:1">Dann soll er ein türkisches Trikot tragen aber dort bezahlen sie nicht so viel</flowPara></flowRoot>    </g>
    <rect
       id="rect3713-2-7-3"
       width="20.449255"
       height="20.449255"
       x="12.317937"
       y="135.00009"
       style="fill:#ed2116;fill-opacity:1;stroke:#ed2116;stroke-width:2;stroke-linejoin:round;stroke-miterlimit:4;stroke-dasharray:none;stroke-opacity:1" />
    <rect
       style="fill:#ed2116;fill-opacity:1;stroke:none;stroke-width:22.18493843;stroke-linejoin:round;stroke-miterlimit:4;stroke-dasharray:none;stroke-opacity:1"
       id="rect4560-3-1-1"
       width="138.96597"
       height="6.7860217"
       x="28.638777"
       y="134.00414" />
    <flowRoot
       xml:space="preserve"
       id="flowRoot4562-7-7-3"
       style="font-style:normal;font-weight:normal;font-size:40px;line-height:1.25;font-family:sans-serif;letter-spacing:0px;word-spacing:0px;fill:#000000;fill-opacity:1;stroke:none"
       transform="matrix(0.085113,0,0,0.085113,-12.629603,107.65731)"><flowRegion
         id="flowRegion4564-5-0-8"><rect
           id="rect4566-9-6-7"
           width="921.875"
           height="53.90625"
           x="593.75"
           y="328.76965" /></flowRegion><flowPara
         id="flowPara4568-2-0-9"
         style="font-style:normal;font-variant:normal;font-weight:normal;font-stretch:normal;font-family:Changa;-inkscape-font-specification:Changa;fill:#ffffff">19. Juni 2018 <flowSpan
   style="font-size:26.66666794px"
   id="flowSpan4583-2-41-3">Gefällt  9 Mal   2 Antworten   </flowSpan></flowPara></flowRoot>    <g
       transform="matrix(0.07672838,0,0,0.07672838,14.180644,72.809244)"
       id="layer1-1-1-6"
       inkscape:label="Laag 1"
       style="fill:#ffffff;stroke:#ffffff">
      <path
         inkscape:connector-curvature="0"
         id="path4293-4-9-6"
         d="m 76.42344,1042.717 c -2.2224,-0.2267 -4.7225,-0.6821 -5.5559,-1.012 -0.8334,-0.3299 -9.3384,-2.8569 -18.9001,-5.6157 -9.5617,-2.7588 -17.4523,-5.0834 -17.5347,-5.1657 -0.2391,-0.2392 2.2788,-42.51159 2.8639,-48.08136 2.2676,-21.58406 6.0483,-32.16101 14.8649,-41.58634 7.5909,-8.11487 14.9224,-11.77177 27.5448,-13.73911 5.5107,-0.85889 39.4433,-1.23111 47.6206,-0.52237 13.0001,1.12673 21.3056,3.10399 29.1231,6.93322 3.9457,1.93271 5.526,3.0883 9.1422,6.68524 9.4197,9.36932 13.7657,22.358 15.8544,47.38281 1.1656,13.96551 2.4884,42.59711 1.9903,43.07931 -0.9176,0.8884 -17.7367,5.5971 -23.3654,6.5414 -20.4406,3.4292 -70.2575,6.467 -83.6481,5.1006 z"
         style="opacity:1;fill:#ffffff;fill-opacity:1;fill-rule:nonzero;stroke:#ffffff;stroke-width:0.50507629;stroke-opacity:1" />
      <ellipse
         ry="38.327599"
         rx="40.658642"
         cy="883.10352"
         cx="106.96198"
         id="path4295-9-1-2"
         style="opacity:1;fill:#ffffff;fill-opacity:1;fill-rule:nonzero;stroke:#ffffff;stroke-opacity:1" />
    </g>
    <flowRoot
       transform="matrix(0.26418067,0,0,0.26418067,-0.47791908,116.47843)"
       xml:space="preserve"
       id="flowRoot1171-2-0-3-9"
       style="font-style:normal;font-weight:normal;font-size:40px;line-height:0.99961823;font-family:sans-serif;letter-spacing:0px;word-spacing:0px;fill:#193e72;fill-opacity:1;stroke:none"><flowRegion
         id="flowRegion1173-2-2-8-7"
         style="fill:#193e72;fill-opacity:1"><rect
           id="rect1175-7-2-7-0"
           width="1382.8987"
           height="273.13708"
           x="146"
           y="93.519661"
           style="fill:#193e72;fill-opacity:1" /></flowRegion><flowPara
         style="font-style:normal;font-variant:normal;font-weight:normal;font-stretch:normal;font-size:18.66666603px;font-family:changa;-inkscape-font-specification:changa;text-align:start;text-anchor:start;fill:#193e72;fill-opacity:1"
         id="flowPara2175-7">Wenn wir Weltmeister werden wollen,sollten wir uns von unnützen,lustlosen und motivationslosen Müll befreien</flowPara></flowRoot>    <rect
       id="rect3713-2-7-3-3"
       width="20.449255"
       height="20.449255"
       x="12.317937"
       y="176.84344"
       style="fill:#ed2116;fill-opacity:1;stroke:#ed2116;stroke-width:2;stroke-linejoin:round;stroke-miterlimit:4;stroke-dasharray:none;stroke-opacity:1" />
    <rect
       style="fill:#ed2116;fill-opacity:1;stroke:none;stroke-width:22.18493843;stroke-linejoin:round;stroke-miterlimit:4;stroke-dasharray:none;stroke-opacity:1"
       id="rect4560-3-1-1-8"
       width="138.96597"
       height="6.7860217"
       x="28.638777"
       y="175.84743" />
    <flowRoot
       xml:space="preserve"
       id="flowRoot4562-7-7-3-6"
       style="font-style:normal;font-weight:normal;font-size:40px;line-height:1.25;font-family:sans-serif;letter-spacing:0px;word-spacing:0px;fill:#000000;fill-opacity:1;stroke:none"
       transform="matrix(0.085113,0,0,0.085113,-12.629603,149.50108)"><flowRegion
         id="flowRegion4564-5-0-8-7"><rect
           id="rect4566-9-6-7-3"
           width="921.875"
           height="53.90625"
           x="593.75"
           y="328.76965" /></flowRegion><flowPara
         id="flowPara4568-2-0-9-6"
         style="font-style:normal;font-variant:normal;font-weight:normal;font-stretch:normal;font-family:Changa;-inkscape-font-specification:Changa;fill:#ffffff">19. Juni 2018 <flowSpan
   style="font-size:26.66666794px"
   id="flowSpan4583-2-41-3-0">Gefällt  3 Mal   2 Antworten   </flowSpan></flowPara></flowRoot>    <path
       style="fill:none;fill-rule:evenodd;stroke:#000000;stroke-width:0.26458332px;stroke-linecap:butt;stroke-linejoin:miter;stroke-opacity:1"
       d="m 30.719626,224.95023 -0.187087,0.46772"
       id="path988-3-8-2"
       inkscape:connector-type="polyline"
       inkscape:connector-curvature="3" />
    <g
       transform="matrix(0.07672838,0,0,0.07672838,14.180644,114.65289)"
       id="layer1-1-1-6-4"
       inkscape:label="Laag 1"
       style="fill:#ffffff;stroke:#ffffff">
      <path
         inkscape:connector-curvature="0"
         id="path4293-4-9-6-7"
         d="m 76.42344,1042.717 c -2.2224,-0.2267 -4.7225,-0.6821 -5.5559,-1.012 -0.8334,-0.3299 -9.3384,-2.8569 -18.9001,-5.6157 -9.5617,-2.7588 -17.4523,-5.0834 -17.5347,-5.1657 -0.2391,-0.2392 2.2788,-42.51159 2.8639,-48.08136 2.2676,-21.58406 6.0483,-32.16101 14.8649,-41.58634 7.5909,-8.11487 14.9224,-11.77177 27.5448,-13.73911 5.5107,-0.85889 39.4433,-1.23111 47.6206,-0.52237 13.0001,1.12673 21.3056,3.10399 29.1231,6.93322 3.9457,1.93271 5.526,3.0883 9.1422,6.68524 9.4197,9.36932 13.7657,22.358 15.8544,47.38281 1.1656,13.96551 2.4884,42.59711 1.9903,43.07931 -0.9176,0.8884 -17.7367,5.5971 -23.3654,6.5414 -20.4406,3.4292 -70.2575,6.467 -83.6481,5.1006 z"
         style="opacity:1;fill:#ffffff;fill-opacity:1;fill-rule:nonzero;stroke:#ffffff;stroke-width:0.50507629;stroke-opacity:1" />
      <ellipse
         ry="38.327599"
         rx="40.658642"
         cy="883.10352"
         cx="106.96198"
         id="path4295-9-1-2-0"
         style="opacity:1;fill:#ffffff;fill-opacity:1;fill-rule:nonzero;stroke:#ffffff;stroke-opacity:1" />
    </g>
    <flowRoot
       transform="matrix(0.26418067,0,0,0.26418067,-0.87242908,158.32215)"
       xml:space="preserve"
       id="flowRoot1171-2-0-3-9-4"
       style="font-style:normal;font-weight:normal;font-size:40px;line-height:0.99961823;font-family:sans-serif;letter-spacing:0px;word-spacing:0px;fill:#193e72;fill-opacity:1;stroke:none"><flowRegion
         id="flowRegion1173-2-2-8-7-9"
         style="fill:#193e72;fill-opacity:1"><rect
           id="rect1175-7-2-7-0-6"
           width="1382.8987"
           height="273.13708"
           x="146"
           y="93.519661"
           style="fill:#193e72;fill-opacity:1" /></flowRegion><flowPara
         style="font-style:normal;font-variant:normal;font-weight:normal;font-stretch:normal;font-size:18.66666603px;font-family:changa;-inkscape-font-specification:changa;text-align:start;text-anchor:start;fill:#193e72;fill-opacity:1"
         id="flowPara2175-7-5">Jeder sieht das was mit dem Türken los ist, nur nich sein Homosexueller Mentor... 😂</flowPara></flowRoot>    <rect
       id="rect3713-2-7-3-4"
       width="20.449255"
       height="20.449255"
       x="11.752954"
       y="215.98451"
       style="fill:#ed2116;fill-opacity:1;stroke:#ed2116;stroke-width:2;stroke-linejoin:round;stroke-miterlimit:4;stroke-dasharray:none;stroke-opacity:1" />
    <rect
       style="fill:#ed2116;fill-opacity:1;stroke:none;stroke-width:22.18493843;stroke-linejoin:round;stroke-miterlimit:4;stroke-dasharray:none;stroke-opacity:1"
       id="rect4560-3-1-1-7"
       width="138.96597"
       height="6.7860217"
       x="28.073792"
       y="214.98849" />
    <flowRoot
       xml:space="preserve"
       id="flowRoot4562-7-7-3-5"
       style="font-style:normal;font-weight:normal;font-size:40px;line-height:1.25;font-family:sans-serif;letter-spacing:0px;word-spacing:0px;fill:#000000;fill-opacity:1;stroke:none"
       transform="matrix(0.085113,0,0,0.085113,-13.194584,188.64226)"><flowRegion
         id="flowRegion4564-5-0-8-5"><rect
           id="rect4566-9-6-7-9"
           width="921.875"
           height="53.90625"
           x="593.75"
           y="328.76965" /></flowRegion><flowPara
         id="flowPara4568-2-0-9-4"
         style="font-style:normal;font-variant:normal;font-weight:normal;font-stretch:normal;font-family:Changa;-inkscape-font-specification:Changa;fill:#ffffff">19. Juni 2018 <flowSpan
   style="font-size:26.66666794px"
   id="flowSpan4583-2-41-3-9">Gefällt  0 Mal   2 Antworten   </flowSpan></flowPara></flowRoot>    <g
       transform="matrix(0.07672838,0,0,0.07672838,13.615656,153.79424)"
       id="layer1-1-1-6-3"
       inkscape:label="Laag 1"
       style="fill:#ffffff;stroke:#ffffff">
      <path
         inkscape:connector-curvature="0"
         id="path4293-4-9-6-4"
         d="m 76.42344,1042.717 c -2.2224,-0.2267 -4.7225,-0.6821 -5.5559,-1.012 -0.8334,-0.3299 -9.3384,-2.8569 -18.9001,-5.6157 -9.5617,-2.7588 -17.4523,-5.0834 -17.5347,-5.1657 -0.2391,-0.2392 2.2788,-42.51159 2.8639,-48.08136 2.2676,-21.58406 6.0483,-32.16101 14.8649,-41.58634 7.5909,-8.11487 14.9224,-11.77177 27.5448,-13.73911 5.5107,-0.85889 39.4433,-1.23111 47.6206,-0.52237 13.0001,1.12673 21.3056,3.10399 29.1231,6.93322 3.9457,1.93271 5.526,3.0883 9.1422,6.68524 9.4197,9.36932 13.7657,22.358 15.8544,47.38281 1.1656,13.96551 2.4884,42.59711 1.9903,43.07931 -0.9176,0.8884 -17.7367,5.5971 -23.3654,6.5414 -20.4406,3.4292 -70.2575,6.467 -83.6481,5.1006 z"
         style="opacity:1;fill:#ffffff;fill-opacity:1;fill-rule:nonzero;stroke:#ffffff;stroke-width:0.50507629;stroke-opacity:1" />
      <ellipse
         ry="38.327599"
         rx="40.658642"
         cy="883.10352"
         cx="106.96198"
         id="path4295-9-1-2-4"
         style="opacity:1;fill:#ffffff;fill-opacity:1;fill-rule:nonzero;stroke:#ffffff;stroke-opacity:1" />
    </g>
    <flowRoot
       transform="matrix(0.26418067,0,0,0.26418067,-1.0429044,197.46332)"
       xml:space="preserve"
       id="flowRoot1171-2-0-3-9-41"
       style="font-style:normal;font-weight:normal;font-size:40px;line-height:0.99961823;font-family:sans-serif;letter-spacing:0px;word-spacing:0px;fill:#193e72;fill-opacity:1;stroke:none"><flowRegion
         id="flowRegion1173-2-2-8-7-1"
         style="fill:#193e72;fill-opacity:1"><rect
           id="rect1175-7-2-7-0-4"
           width="918.19147"
           height="225.06392"
           x="146"
           y="93.519661"
           style="fill:#193e72;fill-opacity:1" /></flowRegion><flowPara
         style="font-style:normal;font-variant:normal;font-weight:normal;font-stretch:normal;font-size:18.66666603px;font-family:changa;-inkscape-font-specification:changa;text-align:start;text-anchor:start;fill:#193e72;fill-opacity:1"
         id="flowPara2175-7-3">Und in zehn Jahren werden die Nachbarn sagen: &quot;Er war so ein unscheinbarer und unauffälliger junger Mann. Das hätten wir nie von ihm erwartet&quot;</flowPara></flowRoot>    <rect
       id="rect3713-2-7-3-3-4"
       width="20.449255"
       height="20.449255"
       x="11.752954"
       y="261.0032"
       style="fill:#ed2116;fill-opacity:1;stroke:#ed2116;stroke-width:2;stroke-linejoin:round;stroke-miterlimit:4;stroke-dasharray:none;stroke-opacity:1" />
    <rect
       style="fill:#ed2116;fill-opacity:1;stroke:none;stroke-width:22.18493843;stroke-linejoin:round;stroke-miterlimit:4;stroke-dasharray:none;stroke-opacity:1"
       id="rect4560-3-1-1-8-4"
       width="138.96597"
       height="6.7860217"
       x="28.073792"
       y="260.00717" />
    <flowRoot
       xml:space="preserve"
       id="flowRoot4562-7-7-3-6-1"
       style="font-style:normal;font-weight:normal;font-size:40px;line-height:1.25;font-family:sans-serif;letter-spacing:0px;word-spacing:0px;fill:#000000;fill-opacity:1;stroke:none"
       transform="matrix(0.085113,0,0,0.085113,-13.194584,233.13176)"><flowRegion
         id="flowRegion4564-5-0-8-7-8"><rect
           id="rect4566-9-6-7-3-0"
           width="921.875"
           height="53.90625"
           x="593.75"
           y="328.76965" /></flowRegion><flowPara
         id="flowPara4568-2-0-9-6-9"
         style="font-style:normal;font-variant:normal;font-weight:normal;font-stretch:normal;font-family:Changa;-inkscape-font-specification:Changa;fill:#ffffff">19. Juni 2018 <flowSpan
   style="font-size:26.66666794px"
   id="flowSpan4583-2-41-3-0-6">Gefällt  5 Mal   0 Antworten   </flowSpan></flowPara></flowRoot>    <path
       style="fill:none;fill-rule:evenodd;stroke:#000000;stroke-width:0.26458332px;stroke-linecap:butt;stroke-linejoin:miter;stroke-opacity:1"
       d="m 30.154646,309.63925 -0.18709,0.46772"
       id="path988-3-8-2-2"
       inkscape:connector-type="polyline"
       inkscape:connector-curvature="3" />
    <g
       transform="matrix(0.07672838,0,0,0.07672838,13.615656,198.81287)"
       id="layer1-1-1-6-4-2"
       inkscape:label="Laag 1"
       style="fill:#ffffff;stroke:#ffffff">
      <path
         inkscape:connector-curvature="0"
         id="path4293-4-9-6-7-0"
         d="m 76.42344,1042.717 c -2.2224,-0.2267 -4.7225,-0.6821 -5.5559,-1.012 -0.8334,-0.3299 -9.3384,-2.8569 -18.9001,-5.6157 -9.5617,-2.7588 -17.4523,-5.0834 -17.5347,-5.1657 -0.2391,-0.2392 2.2788,-42.51159 2.8639,-48.08136 2.2676,-21.58406 6.0483,-32.16101 14.8649,-41.58634 7.5909,-8.11487 14.9224,-11.77177 27.5448,-13.73911 5.5107,-0.85889 39.4433,-1.23111 47.6206,-0.52237 13.0001,1.12673 21.3056,3.10399 29.1231,6.93322 3.9457,1.93271 5.526,3.0883 9.1422,6.68524 9.4197,9.36932 13.7657,22.358 15.8544,47.38281 1.1656,13.96551 2.4884,42.59711 1.9903,43.07931 -0.9176,0.8884 -17.7367,5.5971 -23.3654,6.5414 -20.4406,3.4292 -70.2575,6.467 -83.6481,5.1006 z"
         style="opacity:1;fill:#ffffff;fill-opacity:1;fill-rule:nonzero;stroke:#ffffff;stroke-width:0.50507629;stroke-opacity:1" />
      <ellipse
         ry="38.327599"
         rx="40.658642"
         cy="883.10352"
         cx="106.96198"
         id="path4295-9-1-2-0-1"
         style="opacity:1;fill:#ffffff;fill-opacity:1;fill-rule:nonzero;stroke:#ffffff;stroke-opacity:1" />
    </g>
    <flowRoot
       transform="matrix(0.26418067,0,0,0.26418067,-1.4374144,242.482)"
       xml:space="preserve"
       id="flowRoot1171-2-0-3-9-4-0"
       style="font-style:normal;font-weight:normal;font-size:40px;line-height:0.99961823;font-family:sans-serif;letter-spacing:0px;word-spacing:0px;fill:#193e72;fill-opacity:1;stroke:none"><flowRegion
         id="flowRegion1173-2-2-8-7-9-7"
         style="fill:#193e72;fill-opacity:1"><rect
           id="rect1175-7-2-7-0-6-5"
           width="1382.8987"
           height="273.13708"
           x="146"
           y="93.519661"
           style="fill:#193e72;fill-opacity:1" /></flowRegion><flowPara
         style="font-style:normal;font-variant:normal;font-weight:normal;font-stretch:normal;font-size:18.66666603px;font-family:changa;-inkscape-font-specification:changa;text-align:start;text-anchor:start;fill:#193e72;fill-opacity:1"
         id="flowPara2175-7-5-7">Dann soll das Fischauge das Trikot ausziehen und in Anatolien eine Ziegenfarm eröffnen</flowPara></flowRoot>  </g>
</svg>
