<?xml version="1.0" encoding="UTF-8" standalone="no"?>
<!-- Created with Inkscape (http://www.inkscape.org/) -->

<svg
   xmlns:dc="http://purl.org/dc/elements/1.1/"
   xmlns:cc="http://creativecommons.org/ns#"
   xmlns:rdf="http://www.w3.org/1999/02/22-rdf-syntax-ns#"
   xmlns:svg="http://www.w3.org/2000/svg"
   xmlns="http://www.w3.org/2000/svg"
   xmlns:sodipodi="http://sodipodi.sourceforge.net/DTD/sodipodi-0.dtd"
   xmlns:inkscape="http://www.inkscape.org/namespaces/inkscape"
   width="420mm"
   height="297mm"
   viewBox="0 0 420 297"
   version="1.1"
   id="svg8"
   inkscape:version="0.92.2 (5c3e80d, 2017-08-06)"
   sodipodi:docname="DissKurs-Kommentare.svg">
  <defs
     id="defs2" />
  <sodipodi:namedview
     id="base"
     pagecolor="#ffffff"
     bordercolor="#666666"
     borderopacity="1.0"
     inkscape:pageopacity="0.0"
     inkscape:pageshadow="2"
     inkscape:zoom="0.35355339"
     inkscape:cx="-26.14973"
     inkscape:cy="737.80203"
     inkscape:document-units="mm"
     inkscape:current-layer="layer1"
     showgrid="false"
     inkscape:window-width="1920"
     inkscape:window-height="1017"
     inkscape:window-x="-8"
     inkscape:window-y="-8"
     inkscape:window-maximized="1"
     inkscape:snap-text-baseline="false"
     inkscape:snap-center="true"
     showguides="false">
    <sodipodi:guide
       position="1.8520833,271.46251"
       orientation="-0.70710678,0.70710678"
       id="guide2035"
       inkscape:locked="false" />
  </sodipodi:namedview>
  <metadata
     id="metadata5">
    <rdf:RDF>
      <cc:Work
         rdf:about="">
        <dc:format>image/svg+xml</dc:format>
        <dc:type
           rdf:resource="http://purl.org/dc/dcmitype/StillImage" />
        <dc:title></dc:title>
      </cc:Work>
    </rdf:RDF>
  </metadata>
  <g
     inkscape:label="Ebene 1"
     inkscape:groupmode="layer"
     id="layer1">
    <text
       xml:space="preserve"
       style="font-style:normal;font-weight:normal;font-size:10.58333302px;line-height:1.25;font-family:sans-serif;letter-spacing:0px;word-spacing:0px;fill:#000000;fill-opacity:1;stroke:none;stroke-width:0.26458332"
       x="222.25"
       y="-142.20833"
       id="text4531"><tspan
         sodipodi:role="line"
         id="tspan4529"
         x="222.25"
         y="-132.84456"
         style="stroke-width:0.26458332" /></text>
    <text
       xml:space="preserve"
       style="font-style:normal;font-weight:normal;font-size:10.58333302px;line-height:1.25;font-family:sans-serif;letter-spacing:0px;word-spacing:0px;fill:#000000;fill-opacity:1;stroke:none;stroke-width:0.26458332"
       x="283.26392"
       y="-319.64169"
       id="text4587"><tspan
         sodipodi:role="line"
         id="tspan4585"
         x="283.26392"
         y="-319.64169"
         style="stroke-width:0.26458332" /></text>
    <text
       xml:space="preserve"
       style="font-style:normal;font-weight:normal;font-size:10.58333302px;line-height:1.25;font-family:sans-serif;letter-spacing:0px;word-spacing:0px;fill:#000000;fill-opacity:1;stroke:none;stroke-width:0.26458332"
       x="22.634277"
       y="25.388662"
       id="text986"><tspan
         sodipodi:role="line"
         id="tspan984"
         x="22.634277"
         y="34.75243"
         style="font-style:normal;font-variant:normal;font-weight:normal;font-stretch:normal;font-family:D050000L;-inkscape-font-specification:D050000L;stroke-width:0.26458332" /></text>
    <flowRoot
       xml:space="preserve"
       id="flowRoot992"
       style="fill:black;fill-opacity:1;stroke:none;font-family:sans-serif;font-style:normal;font-weight:normal;font-size:40px;line-height:1.25;letter-spacing:0px;word-spacing:0px"><flowRegion
         id="flowRegion994"><rect
           id="rect996"
           width="67.842911"
           height="72.880661"
           x="56.922096"
           y="62.213039" /></flowRegion><flowPara
         id="flowPara998" /></flowRoot>    <text
       xml:space="preserve"
       style="font-style:normal;font-weight:normal;font-size:10.58333302px;line-height:1.25;font-family:sans-serif;letter-spacing:0px;word-spacing:0px;fill:#000000;fill-opacity:1;stroke:none;stroke-width:0.26458332"
       x="22.027576"
       y="21.228542"
       id="text1002"><tspan
         sodipodi:role="line"
         x="22.027576"
         y="30.592312"
         style="font-style:normal;font-variant:normal;font-weight:normal;font-stretch:normal;font-size:5.29166651px;line-height:0px;font-family:Changa;-inkscape-font-specification:Changa;text-align:center;text-anchor:middle;fill:#ffffff;stroke-width:0.26458332"
         id="tspan1042" /><tspan
         sodipodi:role="line"
         x="22.027576"
         y="43.821476"
         style="font-style:normal;font-variant:normal;font-weight:normal;font-stretch:normal;font-size:5.29166651px;line-height:0px;font-family:Changa;-inkscape-font-specification:Changa;text-align:center;text-anchor:middle;fill:#ffffff;stroke-width:0.26458332"
         id="tspan1048" /></text>
    <rect
       id="rect3713-2"
       width="20.449255"
       height="20.449255"
       x="12.317937"
       y="15.294288"
       style="fill:#ed2116;fill-opacity:1;stroke:#ed2116;stroke-width:2;stroke-linejoin:round;stroke-miterlimit:4;stroke-dasharray:none;stroke-opacity:1" />
    <rect
       style="fill:#ed2116;fill-opacity:1;stroke:none;stroke-width:22.18493843;stroke-linejoin:round;stroke-miterlimit:4;stroke-dasharray:none;stroke-opacity:1"
       id="rect4560-3"
       width="138.96597"
       height="6.7860217"
       x="28.638777"
       y="14.298267" />
    <flowRoot
       xml:space="preserve"
       id="flowRoot4562-7"
       style="font-style:normal;font-weight:normal;font-size:40px;line-height:1.25;font-family:sans-serif;letter-spacing:0px;word-spacing:0px;fill:#000000;fill-opacity:1;stroke:none"
       transform="matrix(0.085113,0,0,0.085113,-12.629603,-12.048573)"><flowRegion
         id="flowRegion4564-5"><rect
           id="rect4566-9"
           width="921.875"
           height="53.90625"
           x="593.75"
           y="328.76965" /></flowRegion><flowPara
         id="flowPara4568-2"
         style="font-style:normal;font-variant:normal;font-weight:normal;font-stretch:normal;font-family:Changa;-inkscape-font-specification:Changa;fill:#ffffff">14. Mai 2017 <flowSpan
   style="font-size:26.66666794px"
   id="flowSpan4583-2">Gefällt  74 Mal   11 Antworten    </flowSpan></flowPara></flowRoot>    <g
       transform="matrix(0.07672838,0,0,0.07672838,14.180644,-46.89662)"
       id="layer1-1"
       inkscape:label="Laag 1"
       style="fill:#ffffff;stroke:#ffffff">
      <path
         inkscape:connector-curvature="0"
         id="path4293-4"
         d="m 76.42344,1042.717 c -2.2224,-0.2267 -4.7225,-0.6821 -5.5559,-1.012 -0.8334,-0.3299 -9.3384,-2.8569 -18.9001,-5.6157 -9.5617,-2.7588 -17.4523,-5.0834 -17.5347,-5.1657 -0.2391,-0.2392 2.2788,-42.51159 2.8639,-48.08136 2.2676,-21.58406 6.0483,-32.16101 14.8649,-41.58634 7.5909,-8.11487 14.9224,-11.77177 27.5448,-13.73911 5.5107,-0.85889 39.4433,-1.23111 47.6206,-0.52237 13.0001,1.12673 21.3056,3.10399 29.1231,6.93322 3.9457,1.93271 5.526,3.0883 9.1422,6.68524 9.4197,9.36932 13.7657,22.358 15.8544,47.38281 1.1656,13.96551 2.4884,42.59711 1.9903,43.07931 -0.9176,0.8884 -17.7367,5.5971 -23.3654,6.5414 -20.4406,3.4292 -70.2575,6.467 -83.6481,5.1006 z"
         style="opacity:1;fill:#ffffff;fill-opacity:1;fill-rule:nonzero;stroke:#ffffff;stroke-width:0.50507629;stroke-opacity:1" />
      <ellipse
         ry="38.327599"
         rx="40.658642"
         cy="883.10352"
         cx="106.96198"
         id="path4295-9"
         style="opacity:1;fill:#ffffff;fill-opacity:1;fill-rule:nonzero;stroke:#ffffff;stroke-opacity:1" />
    </g>
    <rect
       id="rect3713-2-2"
       width="20.449255"
       height="20.449255"
       x="12.317937"
       y="63.464931"
       style="fill:#ed2116;fill-opacity:1;stroke:#ed2116;stroke-width:2;stroke-linejoin:round;stroke-miterlimit:4;stroke-dasharray:none;stroke-opacity:1" />
    <rect
       style="fill:#ed2116;fill-opacity:1;stroke:none;stroke-width:22.18493843;stroke-linejoin:round;stroke-miterlimit:4;stroke-dasharray:none;stroke-opacity:1"
       id="rect4560-3-2"
       width="138.96597"
       height="6.7860217"
       x="28.638777"
       y="62.468914" />
    <flowRoot
       xml:space="preserve"
       id="flowRoot4562-7-9"
       style="font-style:normal;font-weight:normal;font-size:40px;line-height:1.25;font-family:sans-serif;letter-spacing:0px;word-spacing:0px;fill:#000000;fill-opacity:1;stroke:none"
       transform="matrix(0.085113,0,0,0.085113,-12.629603,36.122072)"><flowRegion
         id="flowRegion4564-5-7"><rect
           id="rect4566-9-5"
           width="921.875"
           height="53.90625"
           x="593.75"
           y="328.76965" /></flowRegion><flowPara
         id="flowPara4568-2-6"
         style="font-style:normal;font-variant:normal;font-weight:normal;font-stretch:normal;font-family:Changa;-inkscape-font-specification:Changa;fill:#ffffff">14. Mai 2017 <flowSpan
   style="font-size:26.66666794px"
   id="flowSpan4583-2-4">Gefällt  29 Mal   43 Antworten   </flowSpan></flowPara></flowRoot>    <g
       transform="matrix(0.07672838,0,0,0.07672838,14.180644,1.274025)"
       id="layer1-1-8"
       inkscape:label="Laag 1"
       style="fill:#ffffff;stroke:#ffffff">
      <path
         inkscape:connector-curvature="0"
         id="path4293-4-5"
         d="m 76.42344,1042.717 c -2.2224,-0.2267 -4.7225,-0.6821 -5.5559,-1.012 -0.8334,-0.3299 -9.3384,-2.8569 -18.9001,-5.6157 -9.5617,-2.7588 -17.4523,-5.0834 -17.5347,-5.1657 -0.2391,-0.2392 2.2788,-42.51159 2.8639,-48.08136 2.2676,-21.58406 6.0483,-32.16101 14.8649,-41.58634 7.5909,-8.11487 14.9224,-11.77177 27.5448,-13.73911 5.5107,-0.85889 39.4433,-1.23111 47.6206,-0.52237 13.0001,1.12673 21.3056,3.10399 29.1231,6.93322 3.9457,1.93271 5.526,3.0883 9.1422,6.68524 9.4197,9.36932 13.7657,22.358 15.8544,47.38281 1.1656,13.96551 2.4884,42.59711 1.9903,43.07931 -0.9176,0.8884 -17.7367,5.5971 -23.3654,6.5414 -20.4406,3.4292 -70.2575,6.467 -83.6481,5.1006 z"
         style="opacity:1;fill:#ffffff;fill-opacity:1;fill-rule:nonzero;stroke:#ffffff;stroke-width:0.50507629;stroke-opacity:1" />
      <ellipse
         ry="38.327599"
         rx="40.658642"
         cy="883.10352"
         cx="106.96198"
         id="path4295-9-2"
         style="opacity:1;fill:#ffffff;fill-opacity:1;fill-rule:nonzero;stroke:#ffffff;stroke-opacity:1" />
    </g>
    <flowRoot
       transform="matrix(0.26418067,0,0,0.26418067,-0.65544908,44.791035)"
       xml:space="preserve"
       id="flowRoot1171-2"
       style="font-style:normal;font-weight:normal;font-size:40px;line-height:0.99961823;font-family:sans-serif;letter-spacing:0px;word-spacing:0px;fill:#193e72;fill-opacity:1;stroke:none"><flowRegion
         id="flowRegion1173-2"
         style="fill:#193e72;fill-opacity:1"><rect
           id="rect1175-7"
           width="1382.8987"
           height="273.13708"
           x="146"
           y="93.519661"
           style="fill:#193e72;fill-opacity:1" /></flowRegion><flowPara
         id="flowPara1177-0"
         style="font-style:normal;font-variant:normal;font-weight:normal;font-stretch:normal;font-size:18.66666603px;font-family:changa;-inkscape-font-specification:changa;text-align:start;text-anchor:start;fill:#193e72;fill-opacity:1">Dieser Bund besteht vor Gott nicht, da die Homosexualität von ihm abgelehnt wird. Homosexualität ist keine natürliche Verbindung, sondern die Ablehnung der Schöpfung. Und das auf eine ganz niedere Art.</flowPara></flowRoot>    <rect
       id="rect3713-2-2-2"
       width="20.449255"
       height="20.449255"
       x="39.024002"
       y="101.63136"
       style="fill:#ed2116;fill-opacity:1;stroke:#ed2116;stroke-width:2;stroke-linejoin:round;stroke-miterlimit:4;stroke-dasharray:none;stroke-opacity:1" />
    <rect
       style="fill:#ed2116;fill-opacity:1;stroke:none;stroke-width:22.18493843;stroke-linejoin:round;stroke-miterlimit:4;stroke-dasharray:none;stroke-opacity:1"
       id="rect4560-3-2-1"
       width="138.96597"
       height="6.7860217"
       x="55.344841"
       y="100.63534" />
    <flowRoot
       xml:space="preserve"
       id="flowRoot4562-7-9-7"
       style="font-style:normal;font-weight:normal;font-size:40px;line-height:1.25;font-family:sans-serif;letter-spacing:0px;word-spacing:0px;fill:#000000;fill-opacity:1;stroke:none"
       transform="matrix(0.085113,0,0,0.085113,14.07646,74.288501)"><flowRegion
         id="flowRegion4564-5-7-9"><rect
           id="rect4566-9-5-5"
           width="921.875"
           height="53.90625"
           x="593.75"
           y="328.76965" /></flowRegion><flowPara
         id="flowPara4568-2-6-6"
         style="font-style:normal;font-variant:normal;font-weight:normal;font-stretch:normal;font-family:Changa;-inkscape-font-specification:Changa;fill:#ffffff">15. Mai 2017 <flowSpan
   style="font-size:26.66666794px"
   id="flowSpan4583-2-4-8">Gefällt  0 Mal   0 Antworten   </flowSpan></flowPara></flowRoot>    <g
       transform="matrix(0.07672838,0,0,0.07672838,40.886707,39.440454)"
       id="layer1-1-8-6"
       inkscape:label="Laag 1"
       style="fill:#ffffff;stroke:#ffffff">
      <path
         inkscape:connector-curvature="0"
         id="path4293-4-5-9"
         d="m 76.42344,1042.717 c -2.2224,-0.2267 -4.7225,-0.6821 -5.5559,-1.012 -0.8334,-0.3299 -9.3384,-2.8569 -18.9001,-5.6157 -9.5617,-2.7588 -17.4523,-5.0834 -17.5347,-5.1657 -0.2391,-0.2392 2.2788,-42.51159 2.8639,-48.08136 2.2676,-21.58406 6.0483,-32.16101 14.8649,-41.58634 7.5909,-8.11487 14.9224,-11.77177 27.5448,-13.73911 5.5107,-0.85889 39.4433,-1.23111 47.6206,-0.52237 13.0001,1.12673 21.3056,3.10399 29.1231,6.93322 3.9457,1.93271 5.526,3.0883 9.1422,6.68524 9.4197,9.36932 13.7657,22.358 15.8544,47.38281 1.1656,13.96551 2.4884,42.59711 1.9903,43.07931 -0.9176,0.8884 -17.7367,5.5971 -23.3654,6.5414 -20.4406,3.4292 -70.2575,6.467 -83.6481,5.1006 z"
         style="opacity:1;fill:#ffffff;fill-opacity:1;fill-rule:nonzero;stroke:#ffffff;stroke-width:0.50507629;stroke-opacity:1" />
      <ellipse
         ry="38.327599"
         rx="40.658642"
         cy="883.10352"
         cx="106.96198"
         id="path4295-9-2-0"
         style="opacity:1;fill:#ffffff;fill-opacity:1;fill-rule:nonzero;stroke:#ffffff;stroke-opacity:1" />
    </g>
    <flowRoot
       transform="matrix(0.26458333,0,0,0.26458333,25.16863,81.777752)"
       xml:space="preserve"
       id="flowRoot1171-2-4"
       style="font-style:normal;font-weight:normal;font-size:40px;line-height:1.00428903;font-family:sans-serif;letter-spacing:0px;word-spacing:0px;fill:#193e72;fill-opacity:1;stroke:none"><flowRegion
         id="flowRegion1173-2-8"
         style="fill:#193e72;fill-opacity:1"><rect
           id="rect1175-7-5"
           width="1220.8987"
           height="265.13708"
           x="146"
           y="93.519661"
           style="fill:#193e72;fill-opacity:1" /></flowRegion><flowPara
         id="flowPara1177-0-1"
         style="font-style:normal;font-variant:normal;font-weight:normal;font-stretch:normal;font-size:18.66666603px;font-family:Changa;-inkscape-font-specification:Changa;text-align:start;text-anchor:start;fill:#193e72;fill-opacity:1">Homosexualität ist keine Mutation, die etwas Besseres hervorbringt, im Gegenteil: die Fortpflanzung wird dadurch eingestellt, der Fortbestand der Art ist nicht mehr gewährleistet. Solche &quot;Wesen&quot; selektieren sich somit selber aus.......logisch , nicht ideo-logisch!</flowPara><flowPara
         style="font-style:normal;font-variant:normal;font-weight:normal;font-stretch:normal;font-size:18.66666603px;font-family:Changa;-inkscape-font-specification:Changa;text-align:start;text-anchor:start;fill:#193e72;fill-opacity:1"
         id="flowPara1726" /></flowRoot>    <rect
       id="rect3713-2-2-2-3"
       width="20.449255"
       height="20.449255"
       x="38.2798"
       y="135.30042"
       style="fill:#ed2116;fill-opacity:1;stroke:#ed2116;stroke-width:2;stroke-linejoin:round;stroke-miterlimit:4;stroke-dasharray:none;stroke-opacity:1" />
    <rect
       style="fill:#ed2116;fill-opacity:1;stroke:none;stroke-width:22.18493843;stroke-linejoin:round;stroke-miterlimit:4;stroke-dasharray:none;stroke-opacity:1"
       id="rect4560-3-2-1-1"
       width="138.96597"
       height="6.7860217"
       x="54.600639"
       y="134.3044" />
    <flowRoot
       xml:space="preserve"
       id="flowRoot4562-7-9-7-8"
       style="font-style:normal;font-weight:normal;font-size:40px;line-height:1.25;font-family:sans-serif;letter-spacing:0px;word-spacing:0px;fill:#000000;fill-opacity:1;stroke:none"
       transform="matrix(0.085113,0,0,0.085113,13.33226,107.95756)"><flowRegion
         id="flowRegion4564-5-7-9-7"><rect
           id="rect4566-9-5-5-4"
           width="921.875"
           height="53.90625"
           x="593.75"
           y="328.76965" /></flowRegion><flowPara
         id="flowPara4568-2-6-6-1"
         style="font-style:normal;font-variant:normal;font-weight:normal;font-stretch:normal;font-family:Changa;-inkscape-font-specification:Changa;fill:#ffffff">15. Mai 2017 <flowSpan
   style="font-size:26.66666794px"
   id="flowSpan4583-2-4-8-6">Gefällt  0 Mal   0 Antworten   </flowSpan></flowPara></flowRoot>    <g
       transform="matrix(0.07672838,0,0,0.07672838,40.142507,73.10951)"
       id="layer1-1-8-6-6"
       inkscape:label="Laag 1"
       style="fill:#ffffff;stroke:#ffffff">
      <path
         inkscape:connector-curvature="0"
         id="path4293-4-5-9-0"
         d="m 76.42344,1042.717 c -2.2224,-0.2267 -4.7225,-0.6821 -5.5559,-1.012 -0.8334,-0.3299 -9.3384,-2.8569 -18.9001,-5.6157 -9.5617,-2.7588 -17.4523,-5.0834 -17.5347,-5.1657 -0.2391,-0.2392 2.2788,-42.51159 2.8639,-48.08136 2.2676,-21.58406 6.0483,-32.16101 14.8649,-41.58634 7.5909,-8.11487 14.9224,-11.77177 27.5448,-13.73911 5.5107,-0.85889 39.4433,-1.23111 47.6206,-0.52237 13.0001,1.12673 21.3056,3.10399 29.1231,6.93322 3.9457,1.93271 5.526,3.0883 9.1422,6.68524 9.4197,9.36932 13.7657,22.358 15.8544,47.38281 1.1656,13.96551 2.4884,42.59711 1.9903,43.07931 -0.9176,0.8884 -17.7367,5.5971 -23.3654,6.5414 -20.4406,3.4292 -70.2575,6.467 -83.6481,5.1006 z"
         style="opacity:1;fill:#ffffff;fill-opacity:1;fill-rule:nonzero;stroke:#ffffff;stroke-width:0.50507629;stroke-opacity:1" />
      <ellipse
         ry="38.327599"
         rx="40.658642"
         cy="883.10352"
         cx="106.96198"
         id="path4295-9-2-0-7"
         style="opacity:1;fill:#ffffff;fill-opacity:1;fill-rule:nonzero;stroke:#ffffff;stroke-opacity:1" />
    </g>
    <flowRoot
       transform="matrix(0.26418067,0,0,0.26418067,-0.87242908,-3.2275005)"
       xml:space="preserve"
       id="flowRoot1171-2-0"
       style="font-style:normal;font-weight:normal;font-size:40px;line-height:0.99961823;font-family:sans-serif;letter-spacing:0px;word-spacing:0px;fill:#193e72;fill-opacity:1;stroke:none"><flowRegion
         id="flowRegion1173-2-2"
         style="fill:#193e72;fill-opacity:1"><rect
           id="rect1175-7-2"
           width="1382.8987"
           height="273.13708"
           x="146"
           y="93.519661"
           style="fill:#193e72;fill-opacity:1" /></flowRegion><flowPara
         id="flowPara1177-0-6"
         style="font-style:normal;font-variant:normal;font-weight:normal;font-stretch:normal;font-size:18.66666603px;font-family:changa;-inkscape-font-specification:changa;text-align:start;text-anchor:start;fill:#193e72;fill-opacity:1">Die Frau &quot;haut&quot; ja Einen nach dem Anderen in dieser Richtung raus, wie man so schön umgangssprachlich sagt. Kann man Christ sein, ohne dass man sich an die Bibel hält...? Meine Antwort darauf ist NEIN. Wahrscheinlich kommt als nächstes dann die Aussage, dass wir und die Muslime denselben Gott haben und dass viele Wege zur Erlösung führen. Steht wahrscheinlich alles in der Bibel 2.0 Interreligious Edition. Natürlich mit dem Siegel extrem gender-proof...</flowPara></flowRoot>    <flowRoot
       transform="matrix(0.26458333,0,0,0.26458333,26.417157,116.28831)"
       xml:space="preserve"
       id="flowRoot1171-2-4-9"
       style="font-style:normal;font-weight:normal;font-size:40px;line-height:1.00428903;font-family:sans-serif;letter-spacing:0px;word-spacing:0px;fill:#193e72;fill-opacity:1;stroke:none"><flowRegion
         id="flowRegion1173-2-8-0"
         style="fill:#193e72;fill-opacity:1"><rect
           id="rect1175-7-5-3"
           width="1220.8987"
           height="265.13708"
           x="146"
           y="93.519661"
           style="fill:#193e72;fill-opacity:1" /></flowRegion><flowPara
         style="font-style:normal;font-variant:normal;font-weight:normal;font-stretch:normal;font-size:18.66666603px;font-family:Changa;-inkscape-font-specification:Changa;text-align:start;text-anchor:start;fill:#193e72;fill-opacity:1"
         id="flowPara1726-5"> Wenn es aber so wäre, dürfte es die Homosexualität seit langem nicht mehr geben. So ist es aber nicht, der Prozentsatz in der Bevölkerung ist sogar recht stabil. Wie erklären Sie das?</flowPara></flowRoot>    <rect
       id="rect3713-2-7"
       width="20.449255"
       height="20.449255"
       x="12.317937"
       y="173.2267"
       style="fill:#ed2116;fill-opacity:1;stroke:#ed2116;stroke-width:2;stroke-linejoin:round;stroke-miterlimit:4;stroke-dasharray:none;stroke-opacity:1" />
    <rect
       style="fill:#ed2116;fill-opacity:1;stroke:none;stroke-width:22.18493843;stroke-linejoin:round;stroke-miterlimit:4;stroke-dasharray:none;stroke-opacity:1"
       id="rect4560-3-1"
       width="138.96597"
       height="6.7860217"
       x="28.638777"
       y="172.23068" />
    <flowRoot
       xml:space="preserve"
       id="flowRoot4562-7-7"
       style="font-style:normal;font-weight:normal;font-size:40px;line-height:1.25;font-family:sans-serif;letter-spacing:0px;word-spacing:0px;fill:#000000;fill-opacity:1;stroke:none"
       transform="matrix(0.085113,0,0,0.085113,-12.629603,145.88384)"><flowRegion
         id="flowRegion4564-5-0"><rect
           id="rect4566-9-6"
           width="921.875"
           height="53.90625"
           x="593.75"
           y="328.76965" /></flowRegion><flowPara
         id="flowPara4568-2-0"
         style="font-style:normal;font-variant:normal;font-weight:normal;font-stretch:normal;font-family:Changa;-inkscape-font-specification:Changa;fill:#ffffff">14. Mai 2017 <flowSpan
   style="font-size:26.66666794px"
   id="flowSpan4583-2-41">Gefällt  0 Mal   11 Antworten    </flowSpan></flowPara></flowRoot>    <g
       transform="matrix(0.07672838,0,0,0.07672838,14.180644,111.03579)"
       id="layer1-1-1"
       inkscape:label="Laag 1"
       style="fill:#ffffff;stroke:#ffffff">
      <path
         inkscape:connector-curvature="0"
         id="path4293-4-9"
         d="m 76.42344,1042.717 c -2.2224,-0.2267 -4.7225,-0.6821 -5.5559,-1.012 -0.8334,-0.3299 -9.3384,-2.8569 -18.9001,-5.6157 -9.5617,-2.7588 -17.4523,-5.0834 -17.5347,-5.1657 -0.2391,-0.2392 2.2788,-42.51159 2.8639,-48.08136 2.2676,-21.58406 6.0483,-32.16101 14.8649,-41.58634 7.5909,-8.11487 14.9224,-11.77177 27.5448,-13.73911 5.5107,-0.85889 39.4433,-1.23111 47.6206,-0.52237 13.0001,1.12673 21.3056,3.10399 29.1231,6.93322 3.9457,1.93271 5.526,3.0883 9.1422,6.68524 9.4197,9.36932 13.7657,22.358 15.8544,47.38281 1.1656,13.96551 2.4884,42.59711 1.9903,43.07931 -0.9176,0.8884 -17.7367,5.5971 -23.3654,6.5414 -20.4406,3.4292 -70.2575,6.467 -83.6481,5.1006 z"
         style="opacity:1;fill:#ffffff;fill-opacity:1;fill-rule:nonzero;stroke:#ffffff;stroke-width:0.50507629;stroke-opacity:1" />
      <ellipse
         ry="38.327599"
         rx="40.658642"
         cy="883.10352"
         cx="106.96198"
         id="path4295-9-1"
         style="opacity:1;fill:#ffffff;fill-opacity:1;fill-rule:nonzero;stroke:#ffffff;stroke-opacity:1" />
    </g>
    <flowRoot
       transform="matrix(0.26418067,0,0,0.26418067,-0.65544908,154.70491)"
       xml:space="preserve"
       id="flowRoot1171-2-0-3"
       style="font-style:normal;font-weight:normal;font-size:40px;line-height:0.99961823;font-family:sans-serif;letter-spacing:0px;word-spacing:0px;fill:#193e72;fill-opacity:1;stroke:none"><flowRegion
         id="flowRegion1173-2-2-8"
         style="fill:#193e72;fill-opacity:1"><rect
           id="rect1175-7-2-7"
           width="1382.8987"
           height="273.13708"
           x="146"
           y="93.519661"
           style="fill:#193e72;fill-opacity:1" /></flowRegion><flowPara
         id="flowPara1177-0-6-4"
         style="font-style:normal;font-variant:normal;font-weight:normal;font-stretch:normal;font-size:18.66666603px;font-family:changa;-inkscape-font-specification:changa;text-align:start;text-anchor:start;fill:#193e72;fill-opacity:1">Seid fruchtbar und mehret Euch.</flowPara><flowPara
         style="font-style:normal;font-variant:normal;font-weight:normal;font-stretch:normal;font-size:18.66666603px;font-family:changa;-inkscape-font-specification:changa;text-align:start;text-anchor:start;fill:#193e72;fill-opacity:1"
         id="flowPara2175">Ups, geht nicht. Also wird die Standard-Ehe wohl einen Sinn haben. Aber das interessiert in der Kirche niemanden mehr.</flowPara></flowRoot>    <rect
       id="rect3713-2-7-3"
       width="20.449255"
       height="20.449255"
       x="12.317937"
       y="208.02519"
       style="fill:#ed2116;fill-opacity:1;stroke:#ed2116;stroke-width:2;stroke-linejoin:round;stroke-miterlimit:4;stroke-dasharray:none;stroke-opacity:1" />
    <rect
       style="fill:#ed2116;fill-opacity:1;stroke:none;stroke-width:22.18493843;stroke-linejoin:round;stroke-miterlimit:4;stroke-dasharray:none;stroke-opacity:1"
       id="rect4560-3-1-1"
       width="138.96597"
       height="6.7860217"
       x="28.638777"
       y="207.02917" />
    <flowRoot
       xml:space="preserve"
       id="flowRoot4562-7-7-3"
       style="font-style:normal;font-weight:normal;font-size:40px;line-height:1.25;font-family:sans-serif;letter-spacing:0px;word-spacing:0px;fill:#000000;fill-opacity:1;stroke:none"
       transform="matrix(0.085113,0,0,0.085113,-12.629603,180.68234)"><flowRegion
         id="flowRegion4564-5-0-8"><rect
           id="rect4566-9-6-7"
           width="921.875"
           height="53.90625"
           x="593.75"
           y="328.76965" /></flowRegion><flowPara
         id="flowPara4568-2-0-9"
         style="font-style:normal;font-variant:normal;font-weight:normal;font-stretch:normal;font-family:Changa;-inkscape-font-specification:Changa;fill:#ffffff">14. Mai 2017 <flowSpan
   style="font-size:26.66666794px"
   id="flowSpan4583-2-41-3">Gefällt  0 Mal   2 Antworten   </flowSpan></flowPara></flowRoot>    <g
       transform="matrix(0.07672838,0,0,0.07672838,14.180644,145.83429)"
       id="layer1-1-1-6"
       inkscape:label="Laag 1"
       style="fill:#ffffff;stroke:#ffffff">
      <path
         inkscape:connector-curvature="0"
         id="path4293-4-9-6"
         d="m 76.42344,1042.717 c -2.2224,-0.2267 -4.7225,-0.6821 -5.5559,-1.012 -0.8334,-0.3299 -9.3384,-2.8569 -18.9001,-5.6157 -9.5617,-2.7588 -17.4523,-5.0834 -17.5347,-5.1657 -0.2391,-0.2392 2.2788,-42.51159 2.8639,-48.08136 2.2676,-21.58406 6.0483,-32.16101 14.8649,-41.58634 7.5909,-8.11487 14.9224,-11.77177 27.5448,-13.73911 5.5107,-0.85889 39.4433,-1.23111 47.6206,-0.52237 13.0001,1.12673 21.3056,3.10399 29.1231,6.93322 3.9457,1.93271 5.526,3.0883 9.1422,6.68524 9.4197,9.36932 13.7657,22.358 15.8544,47.38281 1.1656,13.96551 2.4884,42.59711 1.9903,43.07931 -0.9176,0.8884 -17.7367,5.5971 -23.3654,6.5414 -20.4406,3.4292 -70.2575,6.467 -83.6481,5.1006 z"
         style="opacity:1;fill:#ffffff;fill-opacity:1;fill-rule:nonzero;stroke:#ffffff;stroke-width:0.50507629;stroke-opacity:1" />
      <ellipse
         ry="38.327599"
         rx="40.658642"
         cy="883.10352"
         cx="106.96198"
         id="path4295-9-1-2"
         style="opacity:1;fill:#ffffff;fill-opacity:1;fill-rule:nonzero;stroke:#ffffff;stroke-opacity:1" />
    </g>
    <flowRoot
       transform="matrix(0.26418067,0,0,0.26418067,-0.47791908,189.50341)"
       xml:space="preserve"
       id="flowRoot1171-2-0-3-9"
       style="font-style:normal;font-weight:normal;font-size:40px;line-height:0.99961823;font-family:sans-serif;letter-spacing:0px;word-spacing:0px;fill:#193e72;fill-opacity:1;stroke:none"><flowRegion
         id="flowRegion1173-2-2-8-7"
         style="fill:#193e72;fill-opacity:1"><rect
           id="rect1175-7-2-7-0"
           width="1382.8987"
           height="273.13708"
           x="146"
           y="93.519661"
           style="fill:#193e72;fill-opacity:1" /></flowRegion><flowPara
         style="font-style:normal;font-variant:normal;font-weight:normal;font-stretch:normal;font-size:18.66666603px;font-family:changa;-inkscape-font-specification:changa;text-align:start;text-anchor:start;fill:#193e72;fill-opacity:1"
         id="flowPara2175-7">Es heißt, dass die Protestanten bzw die Evangelischen die Hl.Schrift soooo gut kennen. Das kann nicht sein, denn in der Bibel steht ja geschrieben, dass Sodom und Gomorrha wegen gelebter Homosexualität von Gott mit Feuer ausgelöscht worden ist. Und das ist nicht die einzige Stelle. Die Bibel spricht von widernatürlichem Verkehr von Männern mit Männern und Frauen mit Frauen. -- Die Welt steht auf kan Fall mehr lang - nach Nestroy.</flowPara></flowRoot>    <rect
       id="rect3713-2-7-3-3"
       width="20.449255"
       height="20.449255"
       x="12.317937"
       y="248.81052"
       style="fill:#ed2116;fill-opacity:1;stroke:#ed2116;stroke-width:2;stroke-linejoin:round;stroke-miterlimit:4;stroke-dasharray:none;stroke-opacity:1" />
    <rect
       style="fill:#ed2116;fill-opacity:1;stroke:none;stroke-width:22.18493843;stroke-linejoin:round;stroke-miterlimit:4;stroke-dasharray:none;stroke-opacity:1"
       id="rect4560-3-1-1-8"
       width="138.96597"
       height="6.7860217"
       x="28.638777"
       y="247.8145" />
    <flowRoot
       xml:space="preserve"
       id="flowRoot4562-7-7-3-6"
       style="font-style:normal;font-weight:normal;font-size:40px;line-height:1.25;font-family:sans-serif;letter-spacing:0px;word-spacing:0px;fill:#000000;fill-opacity:1;stroke:none"
       transform="matrix(0.085113,0,0,0.085113,-12.629603,221.46766)"><flowRegion
         id="flowRegion4564-5-0-8-7"><rect
           id="rect4566-9-6-7-3"
           width="921.875"
           height="53.90625"
           x="593.75"
           y="328.76965" /></flowRegion><flowPara
         id="flowPara4568-2-0-9-6"
         style="font-style:normal;font-variant:normal;font-weight:normal;font-stretch:normal;font-family:Changa;-inkscape-font-specification:Changa;fill:#ffffff">14. Mai 2017 <flowSpan
   style="font-size:26.66666794px"
   id="flowSpan4583-2-41-3-0">Gefällt  3 Mal   2 Antworten   </flowSpan></flowPara></flowRoot>    <path
       style="fill:none;fill-rule:evenodd;stroke:#000000;stroke-width:0.26458332px;stroke-linecap:butt;stroke-linejoin:miter;stroke-opacity:1"
       d="m 30.719626,285.80424 -0.187087,0.46772"
       id="path988-3-8-2"
       inkscape:connector-type="polyline"
       inkscape:connector-curvature="3" />
    <g
       transform="matrix(0.07672838,0,0,0.07672838,14.180644,186.61961)"
       id="layer1-1-1-6-4"
       inkscape:label="Laag 1"
       style="fill:#ffffff;stroke:#ffffff">
      <path
         inkscape:connector-curvature="0"
         id="path4293-4-9-6-7"
         d="m 76.42344,1042.717 c -2.2224,-0.2267 -4.7225,-0.6821 -5.5559,-1.012 -0.8334,-0.3299 -9.3384,-2.8569 -18.9001,-5.6157 -9.5617,-2.7588 -17.4523,-5.0834 -17.5347,-5.1657 -0.2391,-0.2392 2.2788,-42.51159 2.8639,-48.08136 2.2676,-21.58406 6.0483,-32.16101 14.8649,-41.58634 7.5909,-8.11487 14.9224,-11.77177 27.5448,-13.73911 5.5107,-0.85889 39.4433,-1.23111 47.6206,-0.52237 13.0001,1.12673 21.3056,3.10399 29.1231,6.93322 3.9457,1.93271 5.526,3.0883 9.1422,6.68524 9.4197,9.36932 13.7657,22.358 15.8544,47.38281 1.1656,13.96551 2.4884,42.59711 1.9903,43.07931 -0.9176,0.8884 -17.7367,5.5971 -23.3654,6.5414 -20.4406,3.4292 -70.2575,6.467 -83.6481,5.1006 z"
         style="opacity:1;fill:#ffffff;fill-opacity:1;fill-rule:nonzero;stroke:#ffffff;stroke-width:0.50507629;stroke-opacity:1" />
      <ellipse
         ry="38.327599"
         rx="40.658642"
         cy="883.10352"
         cx="106.96198"
         id="path4295-9-1-2-0"
         style="opacity:1;fill:#ffffff;fill-opacity:1;fill-rule:nonzero;stroke:#ffffff;stroke-opacity:1" />
    </g>
    <flowRoot
       transform="matrix(0.26418067,0,0,0.26418067,-0.87242908,230.28873)"
       xml:space="preserve"
       id="flowRoot1171-2-0-3-9-4"
       style="font-style:normal;font-weight:normal;font-size:40px;line-height:0.99961823;font-family:sans-serif;letter-spacing:0px;word-spacing:0px;fill:#193e72;fill-opacity:1;stroke:none"><flowRegion
         id="flowRegion1173-2-2-8-7-9"
         style="fill:#193e72;fill-opacity:1"><rect
           id="rect1175-7-2-7-0-6"
           width="1382.8987"
           height="273.13708"
           x="146"
           y="93.519661"
           style="fill:#193e72;fill-opacity:1" /></flowRegion><flowPara
         style="font-style:normal;font-variant:normal;font-weight:normal;font-stretch:normal;font-size:18.66666603px;font-family:changa;-inkscape-font-specification:changa;text-align:start;text-anchor:start;fill:#193e72;fill-opacity:1"
         id="flowPara2175-7-5">Ich liebe meine Katzen auch sehr, bin aber noch nie auf die Idee gekommen sie zu heiraten....</flowPara></flowRoot>  </g>
</svg>
