<?xml version="1.0" encoding="utf-8"?>
<!-- Generator: Adobe Illustrator 23.0.1, SVG Export Plug-In . SVG Version: 6.00 Build 0)  -->
<svg version="1.1" xmlns="http://www.w3.org/2000/svg" xmlns:xlink="http://www.w3.org/1999/xlink" x="0px" y="0px"
	 viewBox="0 0 419.53 297.64" style="enable-background:new 0 0 419.53 297.64;" xml:space="preserve">
<style type="text/css">
	.st0{fill:none;}
	.st1{fill:#FFFFFF;}
	.st2{fill:#504E4D;}
	.st3{opacity:0.05;fill:url(#SVGID_1_);}
	.st4{fill:#1C9CD9;}
	.st5{fill:#E7305A;}
	.st6{clip-path:url(#SVGID_3_);fill:#8B8989;}
	.st7{fill:#DDDEDB;}
	.st8{opacity:0.2;fill:url(#SVGID_4_);}
	.st9{clip-path:url(#SVGID_6_);fill:#8B8989;}
	.st10{fill:#1584AF;}
	.st11{fill:#E61354;}
</style>
<pattern  x="-1449.28" y="381.73" width="121.18" height="120.47" patternUnits="userSpaceOnUse" id="Neues_Muster" viewBox="57.6 -178.07 121.18 120.47" style="overflow:visible;">
	<g>
		<rect x="57.6" y="-178.07" class="st0" width="121.18" height="120.47"/>
		<g>
			<path class="st1" d="M178.78-115.2l57.6,57.6L178.78,0l-57.6-57.6L178.78-115.2z M232.14-57.6l-12.38-12.38l-9.9,9.9
				l-10.72-10.72l9.9-9.9l-7.17-7.17l-9.9,9.9l-10.72-10.72l9.9-9.9l-12.38-12.38L166.4-98.58l10.16,10.16L165.85-77.7l-10.16-10.16
				l-7.17,7.17l10.16,10.16l-10.71,10.71L137.8-69.98L125.42-57.6l12.38,12.38l10.11-10.11l10.72,10.72l-10.11,10.11l7.17,7.17
				l10.11-10.11l10.72,10.72L166.4-16.62l12.38,12.38l12.38-12.38l-10.23-10.23l10.71-10.71l10.23,10.23l7.17-7.17l-10.23-10.23
				l10.71-10.71l10.23,10.23L232.14-57.6z"/>
			
				<rect x="172.21" y="-64.18" transform="matrix(0.7071 -0.7071 0.7071 0.7071 93.0944 109.5471)" class="st1" width="13.15" height="13.15"/>
		</g>
		<g>
			<path class="st1" d="M57.6-115.2l57.6,57.6L57.6,0L0-57.6L57.6-115.2z M110.96-57.6L98.58-69.98l-9.9,9.9L77.97-70.79l9.9-9.9
				l-7.17-7.17l-9.9,9.9L60.08-88.68l9.9-9.9L57.6-110.96L45.22-98.58l10.16,10.16L44.67-77.7L34.51-87.87l-7.17,7.17L37.5-70.53
				L26.78-59.82L16.62-69.98L4.24-57.6l12.38,12.38l10.11-10.11l10.72,10.72L27.34-34.51l7.17,7.17l10.11-10.11l10.72,10.72
				L45.22-16.62L57.6-4.24l12.38-12.38L59.75-26.85l10.71-10.71l10.23,10.23l7.17-7.17L77.64-44.73l10.71-10.71l10.23,10.23
				L110.96-57.6z"/>
			
				<rect x="51.02" y="-64.18" transform="matrix(0.7071 -0.7071 0.7071 0.7071 57.6012 23.8591)" class="st1" width="13.15" height="13.15"/>
		</g>
		<g>
			<path class="st1" d="M178.78-235.67l57.6,57.6l-57.6,57.6l-57.6-57.6L178.78-235.67z M232.14-178.07l-12.38-12.38l-9.9,9.9
				l-10.72-10.72l9.9-9.9l-7.17-7.17l-9.9,9.9l-10.72-10.72l9.9-9.9l-12.38-12.38l-12.38,12.38l10.16,10.16l-10.71,10.71
				l-10.16-10.16l-7.17,7.17L158.68-191l-10.71,10.71l-10.16-10.16l-12.38,12.38l12.38,12.38l10.11-10.11l10.72,10.72l-10.11,10.11
				l7.17,7.17l10.11-10.11l10.72,10.72l-10.11,10.11l12.38,12.38l12.38-12.38l-10.23-10.23l10.71-10.71l10.23,10.23l7.17-7.17
				l-10.23-10.23l10.71-10.71l10.23,10.23L232.14-178.07z"/>
			
				<rect x="172.21" y="-184.65" transform="matrix(0.7071 -0.7071 0.7071 0.7071 178.2812 74.2616)" class="st1" width="13.15" height="13.15"/>
		</g>
		<g>
			<path class="st1" d="M118.19-175.44l57.6,57.6l-57.6,57.6l-57.6-57.6L118.19-175.44z M171.55-117.84l-12.38-12.38l-9.9,9.9
				l-10.72-10.72l9.9-9.9l-7.17-7.17l-9.9,9.9l-10.72-10.72l9.9-9.9l-12.38-12.38l-12.38,12.38l10.16,10.16l-10.71,10.71L95.1-148.1
				l-7.17,7.17l10.16,10.16l-10.71,10.71l-10.16-10.16l-12.38,12.38l12.38,12.38l10.11-10.11l10.72,10.72L87.93-94.74l7.17,7.17
				l10.11-10.11l10.72,10.72l-10.11,10.11l12.38,12.38l12.38-12.38l-10.23-10.23l10.71-10.71l10.23,10.23l7.17-7.17l-10.23-10.23
				l10.71-10.71l10.23,10.23L171.55-117.84z"/>
			
				<rect x="111.62" y="-124.41" transform="matrix(0.7071 -0.7071 0.7071 0.7071 117.9412 49.0603)" class="st1" width="13.15" height="13.15"/>
		</g>
		<g>
			<path class="st1" d="M57.6-235.67l57.6,57.6l-57.6,57.6L0-178.07L57.6-235.67z M110.96-178.07l-12.38-12.38l-9.9,9.9
				l-10.72-10.72l9.9-9.9l-7.17-7.17l-9.9,9.9l-10.72-10.72l9.9-9.9L57.6-231.43l-12.38,12.38l10.16,10.16l-10.71,10.71
				l-10.16-10.16l-7.17,7.17L37.5-191l-10.71,10.71l-10.16-10.16L4.24-178.07l12.38,12.38l10.11-10.11l10.72,10.72l-10.11,10.11
				l7.17,7.17l10.11-10.11l10.72,10.72l-10.11,10.11l12.38,12.38l12.38-12.38l-10.23-10.23l10.71-10.71l10.23,10.23l7.17-7.17
				l-10.23-10.23l10.71-10.71l10.23,10.23L110.96-178.07z"/>
			
				<rect x="51.02" y="-184.65" transform="matrix(0.7071 -0.7071 0.7071 0.7071 142.7881 -11.4264)" class="st1" width="13.15" height="13.15"/>
		</g>
	</g>
</pattern>
<g id="Ebene_1">
</g>
<g id="Ebene_2">
	<rect x="-41.29" y="-7.9" class="st7" width="509.99" height="314.6"/>
	<pattern  id="SVGID_1_" xlink:href="#Neues_Muster" patternTransform="matrix(0.2883 0 0 0.2883 -4516.3672 -5324.1777)">
	</pattern>
	<rect x="-39.67" y="-6.89" style="opacity:0.2;fill:url(#SVGID_1_);" width="506.74" height="312.6"/>
	<g>
		<defs>
			<path id="SVGID_5_" d="M209.39,262.85l0.04-0.01l0.09-0.05l0.13-0.1l0.15-0.1l0.16-0.12l0.17-0.13l0.31-0.26l0.02-0.02l0.02-0.02
				l0.03-0.06l0.03-0.06l0.02-0.06l0.04-0.12l0.03-0.07l0.04-0.06l0.03-0.04l0.04-0.02l0.04-0.02l0.05-0.02l0.09-0.02l0.08-0.01
				h0.04l0.06,0.02l0.19,0.04l0.26,0.05l0.15,0.03l0.16,0.03l0.09,0.01l0.1,0.01l0.2,0.01h0.1l0.1,0.02l0.09,0.01l0.05,0.01
				l0.04,0.02l0.39,0.13l0.2,0.07l0.19,0.06l0.19,0.08l0.19,0.08l0.08,0.04l0.09,0.05l0.08,0.05l0.08,0.05l0.16,0.1l0.07,0.05
				l0.07,0.06l0.06,0.07l0.06,0.06l0.05,0.06l0.05,0.06l0.05,0.08l0.04,0.07l0.04,0.08l0.03,0.08l0.02,0.08l0.02,0.08l0.01,0.09
				v0.09v0.13l-0.02,0.12l-0.02,0.06l-0.01,0.06l-0.04,0.11l-0.05,0.11l-0.05,0.11l-0.11,0.23l-0.06,0.12l-0.09,0.15l-0.1,0.14
				l-0.12,0.14l-0.09,0.11l-0.11,0.11l-0.1,0.11l-0.11,0.1l-0.23,0.2l-0.13,0.1l-0.12,0.09l-0.03,0.03l-0.01,0.03v0.03v0.04
				l0.03,0.06v0.04l0.01,0.04v0.05v0.05l0.01,0.09v0.05v0.05l-0.01,0.04l-0.03,0.05l-0.02,0.02l-0.02,0.02l-0.04,0.02l-0.05,0.01
				l-0.05,0.01l-0.05,0.01l-0.05,0.01l-0.02,0.01l-0.02,0.02l-0.01,0.02l-0.01,0.02l-0.01,0.03l0.01,0.02l0.01,0.03l0.02,0.02
				l0.05,0.05l0.02,0.03l0.02,0.03v0.04v0.03l-0.01,0.06l-0.02,0.06l-0.03,0.06l-0.03,0.04l-0.03,0.05l-0.02,0.05l-0.02,0.03
				l-0.02,0.06l-0.03,0.06l-0.02,0.03l-0.02,0.03l-0.03,0.03l-0.03,0.02l-0.02,0.01h-0.03h-0.03l-0.03-0.01l-0.05-0.03l-0.06-0.03
				l-0.04-0.04l-0.04-0.02l-0.02-0.01h-0.02l-0.01,0.01l-0.01,0.01l-0.01,0.06v0.07l0.01,0.03l0.01,0.04l0.01,0.03l0.02,0.03
				l0.03,0.02l0.03,0.02l0.05,0.02l0.02,0.01l0.02,0.01l0.01,0.02v0.02l-0.03,0.08l-0.02,0.04l-0.02,0.05l-0.06,0.09L212.4,268
				l-0.06,0.08l-0.06,0.06l-0.05,0.04l-0.04,0.03h0.09h0.09h0.09l0.1,0.01l0.61,0.05l0.04,0.02l0.01,0.01l0.02,0.02l0.02,0.04
				l0.02,0.03v0.04v0.04l-0.01,0.02l-0.01,0.02l-0.02,0.02l-0.02,0.01l-0.02,0.01h-0.04h-0.06h-0.05l-0.1-0.01h-0.03l-0.02,0.01
				l-0.89,0.33l-0.77,0.28l-0.34,0.12l-0.32,0.11l-0.31,0.1l-0.31,0.1l-0.3,0.07l-0.3,0.07l-0.15,0.03l-0.15,0.03l-0.31,0.04
				l-0.16,0.02l-0.17,0.02l-0.34,0.02l-0.18,0.01l-0.19,0.01l-0.39,0.01l-0.31-0.01l-0.17-0.01l-0.16-0.01l-0.17-0.02l-0.15-0.04
				l-0.07-0.02l-0.08-0.03l-0.07-0.02l-0.06-0.04l-0.03-0.01l-0.04-0.01h-0.07h-0.08h-0.03l-0.04-0.01l-0.13-0.05l-0.15-0.06
				l-0.08-0.03l-0.08-0.04l-0.07-0.04l-0.06-0.04l-0.12-0.08l-0.11-0.08l-0.11-0.08l-0.09-0.1l-0.1-0.1l-0.11-0.12l-0.11-0.14
				l-0.12-0.17l-0.03-0.03l-0.02-0.04l-0.05-0.09l-0.06-0.11l-0.05-0.11l-0.09-0.21l-0.04-0.1l-0.04-0.09l-0.03-0.1l-0.03-0.09
				v-0.06l-0.01-0.04l-0.01-0.1v-0.26l-0.01-0.19l-0.01-0.12l-0.02-0.09v-0.07l-0.01-0.06l0.01-0.08l0.03-0.12l0.02-0.09l0.04-0.09
				l0.03-0.08l0.04-0.08l0.06-0.15l0.02-0.07l0.02-0.05l0.03-0.16l0.02-0.07l0.02-0.08l0.03-0.08l0.02-0.07l0.06-0.17l0.07-0.17
				l0.08-0.17l0.1-0.17l0.05-0.08l0.06-0.08l0.11-0.17l0.12-0.17l0.13-0.17l0.14-0.17l0.14-0.16l0.16-0.16l0.16-0.16l0.16-0.15
				l0.18-0.15l0.17-0.15l0.18-0.13l0.18-0.13l0.19-0.13l0.18-0.11l0.2-0.11l0.19-0.1l0.19-0.09l0.2-0.07l0.19-0.08l0.19-0.06
				l0.2-0.06l0.19-0.04l0.19-0.03l0.09-0.01l0.1-0.01h0.06h0.07l0.07,0.02l0.05,0.02l0.03,0.02l0.02,0.02l0.02,0.02l0.02,0.03
				l0.02,0.03l0.01,0.03v0.04l0.01,0.04l-0.02,0.63l0.01,0.05v0.04l0.02,0.04l0.02,0.05l0.02,0.03l0.04,0.03l0.03,0.02l0.05,0.01
				L209.39,262.85z M210.28,250.33l-0.1,0.1l-0.09,0.07l-0.09,0.06l-0.08,0.06l-0.14,0.09l-0.11,0.07l-0.05,0.05l-0.05,0.04
				l-0.02,0.03l-0.02,0.02l-0.03,0.06l-0.02,0.06l-0.02,0.07l-0.01,0.08v0.1v0.87l0.01,1.86v0.22l0.01,0.13l-2.68,0.01h-0.23
				l-0.43,0.03l-0.25,0.02l-0.24,0.03l-0.23,0.03l-0.1,0.01l-0.08,0.02l-0.05,0.02l-0.04,0.02l-0.04,0.03l-0.03,0.04l-0.03,0.05
				l-0.02,0.05l-0.01,0.04l-0.01,0.04l0.01,0.04l0.01,0.04l0.02,0.04l0.03,0.05l0.07,0.09l0.08,0.09l0.09,0.08l0.08,0.08l0.06,0.05
				l0.03,0.02l0.02,0.02h0.04l0.04,0.01h0.08h0.1l0.07,0.01h0.05l0.03,0.01l0.04,0.01l0.03,0.02l0.02,0.03l0.02,0.03l0.01,0.05
				l0.01,0.04v0.04l0.01,0.03l0.02,0.02l0.01,0.02l0.04,0.03l0.02,0.02l0.01,0.03l0.24-0.01h0.11l0.1,0.01l0.11,0.01l0.1,0.01
				l0.12,0.03l0.12,0.02l0.15,0.04l0.13,0.05l0.13,0.05l0.08,0.02l0.07,0.02l0.08,0.01l0.06,0.01l0.12,0.02l0.13,0.01l0.14,0.02
				l0.17,0.03l0.17,0.04l0.13,0.04l0.07,0.01h0.21h0.04h0.05l0.05,0.01l0.03,0.02l0.04,0.02l0.04,0.04l0.04,0.04l0.03,0.05
				l0.02,0.02l0.01,0.03l0.03,0.05l0.01,0.05l0.01,0.04l-0.01,0.05v0.05l-0.02,0.22l-0.01,0.21l-0.01,0.31l-0.01,0.42v0.56v0.4
				l-0.01,0.07v0.06l-0.03,0.11l-0.08,1.89l-0.52,0.09l-0.44,0.07l-0.2,0.05l-0.21,0.06l-0.22,0.06l-0.26,0.07l-0.17,0.05
				l-0.21,0.08l-0.24,0.1l-0.27,0.12l-0.28,0.14l-0.15,0.07l-0.15,0.08l-0.14,0.08l-0.15,0.08l-0.14,0.09l-0.14,0.09l-0.19,0.12
				l-0.17,0.13l-0.17,0.13l-0.16,0.13l-0.15,0.12l-0.13,0.11l-0.1,0.11l-0.09,0.1l-0.12,0.16l-0.12,0.16l-0.22,0.31l-0.11,0.17
				l-0.1,0.16l-0.09,0.17l-0.09,0.16l-0.08,0.17l-0.07,0.17l-0.08,0.17l-0.06,0.17l-0.05,0.18l-0.02,0.08l-0.03,0.08l-0.03,0.17
				l-0.03,0.18l-0.03,0.12l-0.03,0.13l-0.02,0.12l-0.01,0.05v0.05v0.06v0.09l0.01,0.13l0.02,0.15l0.02,0.17l0.03,0.18l0.03,0.19
				l0.03,0.08l0.02,0.09l0.03,0.07l0.03,0.08l0.04,0.09l0.04,0.1l0.11,0.23l0.05,0.12l0.08,0.13l0.15,0.26l0.09,0.13l0.04,0.06
				l0.04,0.06l0.1,0.12l0.1,0.13l0.06,0.05l0.04,0.06l0.11,0.11l0.09,0.08l0.1,0.07l0.09,0.06l0.09,0.06l0.09,0.06l0.09,0.06
				l0.19,0.1l0.34,0.19l0.15,0.08l0.13,0.08l0.09,0.04l0.19,0.08l0.24,0.09l0.13,0.04l0.12,0.03l0.06,0.03l0.08,0.02l0.18,0.07
				l0.19,0.06l0.08,0.02l0.08,0.02l0.5,0.06l0.22,0.02l0.2,0.03l0.21,0.01l0.2,0.02l0.19,0.01h0.2l0.03,0.01l0.04-0.01l0.1-0.03
				l0.14-0.03l0.08-0.02l0.06-0.01l0.06-0.01l0.05-0.01h0.11l0.11,0.01l0.09,0.01l0.1,0.01h0.11h0.11l0.05-0.01h0.06l0.32-0.06
				l0.29-0.04l0.27-0.06l0.25-0.06l0.25-0.06l0.26-0.07l0.27-0.1l0.31-0.1l0.17-0.06l0.15-0.06l0.14-0.07l0.14-0.06l0.27-0.15
				l0.15-0.08l0.17-0.08l0.14-0.06l0.12-0.06l0.12-0.05l0.14-0.06l0.1-0.05l0.1-0.06l0.09-0.06l0.09-0.05l0.15-0.11l0.06-0.05
				l0.04-0.04l0.11-0.13l0.12-0.12l0.23-0.23l0.23-0.21l0.23-0.22l0.11-0.11l0.11-0.11l0.11-0.12l0.1-0.13l0.1-0.13l0.09-0.15
				l0.09-0.16l0.09-0.17l0.07-0.15l0.06-0.15l0.06-0.15l0.05-0.15l0.08-0.26l0.06-0.18l0.04-0.13l0.04-0.13l0.04-0.15l0.03-0.16
				l0.03-0.18l0.02-0.18l0.01-0.18v-0.09v-0.1v-0.27v-0.12l-0.01-0.12l-0.02-0.11l-0.02-0.12l-0.04-0.13l-0.02-0.06l-0.02-0.06
				l-0.07-0.18l-0.04-0.08l-0.04-0.07l-0.09-0.14l-0.1-0.16l-0.06-0.08l-0.06-0.07l-0.06-0.06l-0.06-0.06l-0.06-0.06l-0.06-0.06
				l-0.06-0.08l-0.07-0.09l-0.02-0.03l-0.04-0.01l-0.03-0.01l-0.04-0.01h-0.05l-0.04-0.01l-0.04-0.01l-0.02-0.01l-0.02-0.01
				l-0.03-0.03l-0.02-0.03l-0.04-0.05l-0.04-0.06l-0.01-0.02l-0.02-0.01l-0.18-0.13l-0.18-0.11l-0.19-0.11l-0.2-0.1l-0.19-0.1
				l-0.21-0.1l-0.22-0.09l-0.23-0.1l-0.19-0.08l-0.17-0.06l-0.17-0.06l-0.2-0.06l-0.17-0.04l-0.17-0.04l-0.19-0.04l-0.19-0.04
				l-0.19-0.03l-0.18-0.03l-0.35-0.04l-0.32-0.03l-0.25-0.02l-0.23-0.01h-0.02l-0.02-0.01l-0.03-0.01l-0.02-0.02l-0.01-0.02
				l-0.02-0.02l-0.02-0.04l-0.02-0.05v-0.04v-0.02l0.01-0.01l0.01-0.01l0.01-0.01v-0.36v-0.35l0.01-0.18v-0.17v-0.09l-0.01-0.13
				l-0.02-0.3l-0.03-0.29l-0.01-0.18l0.01-0.21l0.03-0.33l0.02-0.35l0.01-0.2V257v-0.08l-0.01-0.07l-0.01-0.16v-0.08v-0.07v-0.04
				l0.01-0.04l0.01-0.03l0.01-0.04l0.03-0.06l0.04-0.05l0.04-0.03l0.04-0.03l0.09-0.04l0.1-0.04l0.05-0.06l0.04-0.06l0.05-0.04
				l0.06-0.04l0.06-0.03l0.07-0.02l0.06-0.01l0.08-0.01h0.14h0.14l0.14-0.01h0.06l0.05-0.01l0.08-0.03l0.11-0.03l0.12-0.03
				l0.07-0.01h0.08l0.06,0.01l0.06,0.01l0.06,0.01l0.06,0.02l0.14,0.04l0.06,0.02l0.06,0.01l0.26,0.02l0.28,0.02l0.27,0.01
				l0.26,0.01h0.23h0.1l0.09-0.01l0.08-0.01l0.07-0.01l0.05-0.01l0.03-0.01l0.05-0.03l0.05-0.02l0.05-0.02l0.04-0.01l0.1-0.01
				l0.09-0.01h0.09l0.08,0.01l0.12,0.01h0.04l0.05-0.02l0.08-0.02l0.07-0.03l0.08-0.04l0.04-0.03l0.03-0.02l0.03-0.04l0.03-0.03
				l0.03-0.04l0.01-0.04l0.01-0.06v-0.06l0.02-0.06l0.01-0.06l0.04-0.09l0.02-0.04l0.03-0.05l0.06-0.06l0.06-0.06l0.07-0.06
				l0.08-0.05l0.17-0.09l0.17-0.09l0.08-0.05l0.07-0.06l0.04-0.03l0.04-0.03l0.03-0.04l0.03-0.03h-0.26l-0.33-0.02l-0.34-0.02
				l-0.37-0.02l-0.36-0.03l-0.34-0.01l-0.31-0.01h-0.14l-0.11,0.01l-2.6-0.07l-0.17,0.01l-0.27,0.01l-0.31,0.02l-0.3-0.01
				l-0.06-0.06l-0.05-0.04l-0.03-0.03l-0.02-0.03l-0.01-0.03v-0.04v-0.16l0.01-1.87v-0.87l-0.02-0.9H210.28z"/>
		</defs>
		<use xlink:href="#SVGID_5_"  style="overflow:visible;fill:#8B8989;"/>
		<clipPath id="SVGID_3_">
			<use xlink:href="#SVGID_5_"  style="overflow:visible;"/>
		</clipPath>
		<rect x="202.67" y="250.34" class="st6" width="14.19" height="20.51"/>
	</g>
	<g>
		<polygon class="st10" points="123.13,97.35 97.07,97.35 97.07,76.53 89,76.53 89,97.35 62.94,97.35 62.94,104.79 89,104.79 
			89,157.82 97.07,157.82 97.07,104.79 123.13,104.79 		"/>
		<g>
			<path class="st10" d="M66.18,180.77l0.02,0.29l-0.07,1.12v1.62l-0.03,0.73v1.02l-0.02,0.19l-0.1,0.17l-0.14,0.22l-0.16,0.22
				l-0.29,0.29l-0.21,0.19l-0.1,0.1l-0.22,0.16l-0.12,0.07l-0.22,0.14l-0.35,0.17l-0.26,0.1l-0.24,0.09l-0.4,0.12L63,187.87
				l-0.28,0.05l-0.26,0.05l-0.4,0.05l-0.24,0.03l-0.26,0.05l-0.69,0.09l-0.26,0.02l-0.54-0.03l-0.4-0.03l-0.28-0.04l-0.28-0.05
				l-0.26-0.07l-0.61-0.17l-0.26-0.07l-0.26-0.09l-0.35-0.12l-0.22-0.12l-0.35-0.19l-0.21-0.16l-0.22-0.16l-0.21-0.17l-0.21-0.16
				l-0.19-0.17l-0.28-0.28l-0.17-0.21l-0.19-0.26L55,185.43l-0.43-0.78l-0.12-0.28l-0.12-0.26l-0.09-0.28l-0.09-0.29l-0.05-0.28
				l-0.05-0.29l-0.04-0.28l-0.07-0.38l-0.04-0.28l-0.02-0.26v-0.26l0.05-0.78l0.03-0.14l0.05-0.29l0.07-0.29l0.09-0.28l0.09-0.29
				l0.09-0.28l0.09-0.26l0.12-0.28l0.12-0.29l0.12-0.24l0.22-0.31l0.16-0.21l0.19-0.22l0.19-0.21l0.21-0.19l0.45-0.38l0.22-0.17
				l0.21-0.16l0.21-0.14l0.57-0.33l0.26-0.16l0.29-0.12l0.29-0.09l0.28-0.07l0.64-0.1l0.5-0.07l0.26-0.05l0.26-0.03l0.4-0.04
				l0.28-0.02l0.38,0.03l0.26,0.02l0.4,0.05l0.24,0.05l0.38,0.07l0.26,0.07l0.38,0.12l0.26,0.09l0.62,0.31l0.26,0.16l0.22,0.16
				l0.09,0.05l0.19,0.12l0.19,0.14l0.09,0.09l0.19,0.14l0.1,0.09l0.1,0.12v0.12l-0.05,0.12l-0.1,0.16l-0.16,0.22l-0.17,0.19
				l-0.48,0.48l-0.31,0.28l-0.21,0.17l-0.19,0.14l-0.14,0.1l-0.1,0.07l-0.14,0.02l-0.19-0.12l-0.22-0.16l-0.22-0.14l-0.24-0.14
				l-0.28-0.12l-0.28-0.1l-0.29-0.07l-0.29-0.05l-0.81-0.05H60.5l-0.28,0.02l-0.45,0.04l-0.28,0.07l-0.52,0.24l-0.22,0.16
				l-0.22,0.17l-0.19,0.19l-0.17,0.22l-0.16,0.22l-0.14,0.24l-0.1,0.26l-0.09,0.28l-0.07,0.26l-0.1,0.52l-0.05,0.28l-0.02,0.29v0.29
				l0.03,0.41l0.05,0.28l0.09,0.4l0.09,0.28l0.17,0.41l0.12,0.24l0.21,0.31l0.17,0.21l0.31,0.29l0.22,0.17l0.35,0.19l0.26,0.1
				l0.52,0.12l0.29,0.03l0.29,0.02h0.28l0.28-0.04l0.26-0.05l0.93-0.22l0.28-0.1l0.26-0.12l0.17-0.12l0.05-0.1v-0.19l0.02-0.16
				v-0.26l-0.03-0.52v-0.29l-0.07-0.1l-0.19-0.03h-0.42l-0.28,0.02l-0.4,0.05l-0.28,0.02h-0.4l-0.28-0.02l-0.59-0.1l-0.1-0.03
				l-0.07-0.09l-0.03-0.21L60,182.45l-0.02-0.28l0.02-0.43l-0.03-0.52l-0.04-0.26v-0.36l0.05-0.19l0.09-0.09l0.21-0.03l0.43-0.05
				l0.29-0.02h0.79l1.12-0.05l1.38,0.09h0.28l0.71-0.09l0.28-0.02l0.14,0.02l0.26,0.05l0.12,0.07l0.04,0.1l0.05,0.24L66.18,180.77z"
				/>
			<path class="st10" d="M77.87,187.04l-0.02,0.28v0.16l-0.05,0.21l-0.1,0.12l-0.12,0.05l-0.17,0.03h-0.14l-0.24,0.02l-1.92-0.1
				h-1.3l-1.55,0.1l-1-0.07h-1.28l-0.79,0.05h-0.26l-0.24-0.02l-0.19-0.04l-0.12-0.07l-0.09-0.1l-0.03-0.21v-0.28l0.09-0.66
				l0.02-0.26l-0.07-0.92v-0.28l0.04-0.92v-0.28l0.03-2.11v-0.28l-0.07-2.11v-0.28l-0.02-0.92v-1.47l-0.04-0.52v-0.26l0.02-0.16
				l0.05-0.22l0.07-0.1l0.12-0.05l0.19-0.03h0.14l0.26-0.02l0.85,0.05h0.28l1.23-0.02h0.17l0.12,0.07l0.09,0.12v1.5l0.03,1v0.28
				l-0.05,1v0.28l0.03,1v0.28l0.05,1v0.28l-0.1,2.28l0.02,0.17l0.02,0.09l0.03,0.09l0.09,0.07l0.21,0.04l0.59,0.03l0.52-0.03h0.28
				l2.49-0.04l0.28-0.02l0.59-0.07l0.28-0.02h0.26l0.21,0.05l0.12,0.1l0.05,0.12l0.02,0.19l0.02,0.97l0.02,0.28L77.87,187.04z"/>
			<path class="st10" d="M93.61,187.37l0.05,0.24l-0.12,0.19l-0.19,0.09l-0.22,0.04h-0.24l-0.4-0.04l-0.26-0.02h-0.78l-1.07,0.07
				l-0.22-0.07l-0.1-0.14l-0.09-0.19l-0.54-1.45l-0.12-0.17l-0.16-0.03l-0.21-0.02l-1.04-0.07h-0.28l-1.3-0.03l-1.04-0.02h-0.26
				l-0.26,0.02h-0.79l-0.22,0.03l-0.14,0.09l-0.1,0.21l-0.4,1.17l-0.1,0.28l-0.19,0.22l-0.26,0.1l-0.28-0.02l-1-0.05h-0.28
				l-1.07,0.07l-0.22,0.02l-0.21-0.1l-0.14-0.19l0.02-0.22l0.03-0.14l0.1-0.28l0.24-0.54l0.1-0.26l0.43-0.97l0.1-0.24l0.45-0.97
				l0.1-0.26l0.4-0.93l0.1-0.26l0.47-0.97l0.1-0.24l0.62-1.42l0.48-1.04l0.12-0.28l0.38-0.78l0.12-0.28l0.33-0.79l0.1-0.26
				l0.31-0.71l0.09-0.19l0.17-0.1l0.26-0.05l0.79-0.04h1.35l0.79,0.02l0.29,0.05l0.19,0.14l0.09,0.22l0.24,0.67l0.1,0.26l0.43,0.81
				l0.1,0.24l0.38,0.85l0.1,0.24l0.31,0.88l0.1,0.24l0.38,0.83l0.1,0.24l0.38,0.85l0.1,0.24l0.35,0.86l0.1,0.24l0.54,1.07l0.42,0.81
				l0.12,0.24l0.47,1.09L93.61,187.37z M87.84,182.5l-0.07-0.22l-0.38-1.17l-0.09-0.26l-0.35-1.02l-0.09-0.22l-0.17-0.12l-0.22-0.05
				l-0.19,0.05l-0.17,0.17l-0.47,1.17l-0.1,0.26l-0.45,1.16l-0.05,0.26l0.05,0.21l0.19,0.09l0.24,0.03h1.09l0.81,0.05l0.22-0.07
				l0.14-0.14L87.84,182.5z"/>
			<path class="st10" d="M105.54,181.77l0.04,0.55l-0.02,0.26l-0.02,0.4l-0.03,0.26l-0.07,0.42l-0.05,0.28l-0.07,0.4l-0.07,0.26
				l-0.14,0.36l-0.09,0.24l-0.16,0.36l-0.12,0.24l-0.22,0.35l-0.17,0.22l-0.21,0.22l-0.22,0.19l-0.35,0.28l-0.22,0.16l-0.35,0.21
				l-0.22,0.12l-0.36,0.17l-0.26,0.09l-0.38,0.14l-0.26,0.07l-0.4,0.07l-0.26,0.05l-0.54,0.03h-0.79l-0.4-0.03l-0.26-0.02l-0.95-0.1
				l-0.28-0.05l-0.16-0.02l-0.28-0.09l-0.14-0.05l-0.28-0.12l-0.38-0.17l-0.26-0.16l-0.26-0.17l-0.45-0.38l-0.19-0.19l-0.22-0.29
				l-0.16-0.21l-0.28-0.45l-0.16-0.24l-0.14-0.26l-0.12-0.28l-0.1-0.26l-0.07-0.24l-0.07-0.26l-0.07-0.38l-0.05-0.29l-0.03-0.29
				l-0.04-0.59l-0.02-0.28l0.05-1.05v-0.28l-0.04-1.05v-0.28l0.05-1.05v-1.61l-0.03-0.55v-0.29l0.02-0.29l0.05-0.28l0.12-0.16
				l0.22-0.05l0.57-0.03l0.66,0.05h0.28l0.57-0.02l0.26,0.02l0.4,0.02l0.22,0.05l0.14,0.14l0.05,0.22l0.02,0.24v0.26l-0.03,0.67
				v0.28l0.05,1.05v0.28l-0.02,1.05v0.28l-0.05,1.05v0.28l-0.02,1.05l0.02,0.28l0.04,0.43l0.05,0.28l0.1,0.38l0.1,0.26l0.17,0.4
				l0.17,0.21l0.28,0.29l0.22,0.14l0.38,0.14l0.26,0.07l0.45,0.03h0.28l0.45-0.09l0.26-0.07l0.33-0.16l0.22-0.14l0.28-0.24
				l0.17-0.21l0.19-0.36l0.12-0.26l0.09-0.28l0.05-0.28l0.07-0.52l0.02-0.28l-0.07-1.05v-0.28l0.05-1.07v-0.28l0.03-1.05v-0.28
				l-0.03-1.07l-0.02-0.28l-0.05-0.73v-0.43l0.07-0.24l0.16-0.14l0.22-0.05h0.36l0.88,0.07h0.28l0.69-0.05h0.28l0.26,0.02l0.22,0.05
				l0.14,0.12l0.02,0.21l0.02,0.52v0.26l-0.02,0.4v0.28l0.05,1.07v0.28l-0.03,1.05v0.28l-0.07,1.07L105.54,181.77z"/>
			<path class="st10" d="M119.13,184.05l-0.02,0.28l-0.04,0.45l-0.05,0.26l-0.12,0.36l-0.1,0.24l-0.17,0.33l-0.16,0.22l-0.28,0.33
				l-0.19,0.19l-0.43,0.31l-0.22,0.14l-0.24,0.12l-0.26,0.12l-0.28,0.09l-0.26,0.09l-0.78,0.16l-0.4,0.05l-0.28,0.02l-0.42,0.03
				h-0.28l-0.95,0.04h-1.5l-0.97-0.05h-0.28l-0.95,0.03h-0.26l-0.66-0.02l-0.28-0.03l-0.24-0.03l-0.14-0.05l-0.09-0.09l-0.03-0.19
				l-0.02-0.24l0.02-0.26v-0.28l0.02-0.14v-0.29l0.05-0.92l-0.02-0.28l-0.02-0.43l-0.02-0.26l-0.02-0.24v-0.26l0.02-0.43v-0.76
				l0.07-0.92v-0.28l-0.03-0.92v-0.28l-0.02-0.92l0.02-0.28l0.05-0.92l0.02-0.28l-0.07-0.92l-0.02-0.28l-0.05-0.52v-0.4l0.07-0.22
				l0.17-0.1l0.24-0.03l0.28-0.02l1.88-0.05l1.5,0.09l0.93-0.04h0.28l0.95,0.02h0.28l1,0.07l0.29,0.03l0.29,0.05l0.66,0.21
				l0.26,0.12l0.33,0.17l0.22,0.16l0.29,0.24l0.17,0.19l0.24,0.29l0.12,0.22l0.19,0.33l0.1,0.24l0.09,0.26l0.05,0.28l0.07,0.45
				l0.02,0.28l-0.02,0.29l-0.05,0.29l-0.1,0.4l-0.1,0.24l-0.19,0.33l-0.17,0.19l-0.28,0.26l-0.14,0.14l-0.05,0.12l0.05,0.14
				l0.16,0.17l0.21,0.19l0.21,0.22l0.26,0.36l0.16,0.26l0.12,0.28l0.07,0.14l0.09,0.28l0.07,0.29l0.04,0.29L119.13,184.05z
				 M111.27,179.34l0.02,0.14l0.02,0.28l0.03,0.19l0.07,0.1l0.14,0.07l0.21,0.02h0.69l0.29-0.02h0.29l0.4,0.03l0.59,0.04h0.38
				l0.22-0.05l0.21-0.1l0.17-0.12l0.12-0.14l0.1-0.17l0.05-0.24v-0.29l-0.05-0.22l-0.16-0.22l-0.24-0.17l-0.1-0.03l-0.26-0.07
				l-0.12-0.02l-0.29-0.04h-0.16l-0.67-0.09h-0.26l-0.43,0.02l-0.28,0.02h-0.36l-0.17,0.03l-0.16,0.02l-0.1,0.05l-0.07,0.09
				l-0.05,0.22l-0.05,0.41L111.27,179.34z M115.25,184.9l0.14-0.12l0.07-0.1l0.12-0.26l0.05-0.28l0.02-0.1l-0.02-0.24l-0.05-0.24
				l-0.14-0.24l-0.1-0.12l-0.22-0.22l-0.28-0.16l-0.26-0.09l-0.12-0.04l-0.24-0.02l-0.78,0.03l-0.29,0.02h-1.02l-0.26,0.02
				l-0.31,0.05l-0.16,0.05l-0.05,0.09l-0.02,0.21v0.29l0.02,0.28v0.38l-0.03,0.29v0.35l0.03,0.19l0.07,0.1l0.12,0.07l0.22,0.03
				l2.44-0.05l0.59-0.03l0.28-0.05L115.25,184.9z"/>
			<path class="st10" d="M131.05,186.23l-0.02,0.28l-0.07,0.93l-0.02,0.17l-0.07,0.12l-0.09,0.07l-2.26,0.07h-0.28l-0.92-0.07
				l-0.28,0.02l-0.9,0.07l-0.28,0.02h-1.19l-0.9-0.07h-0.28l-1.49,0.09l-0.59-0.04l-0.21-0.03l-0.12-0.09l-0.05-0.12l-0.03-0.19
				l-0.04-0.4l-0.02-0.28l0.02-0.26v-0.26l0.07-0.92v-0.28l0.02-0.92l-0.02-0.28l-0.05-0.92l-0.02-0.28l0.04-0.93v-1.47l0.07-0.92
				l-0.02-0.28l-0.05-0.92l-0.02-0.28v-0.42l0.03-0.52v-0.26l0.05-0.9l0.02-0.24l0.05-0.14l0.09-0.07l0.14-0.02l0.22-0.03l1.12,0.07
				l1.05-0.02h0.28l1.04,0.07h0.28l1.04-0.07h0.28l2.35,0.03l0.29-0.02l0.59-0.05h0.43l0.24,0.05l0.1,0.09l0.03,0.12l0.03,0.22v0.47
				l-0.03,0.43V177l0.02,0.43l0.02,0.26l-0.02,0.26l-0.04,0.21l-0.07,0.12l-0.09,0.07l-0.21,0.03h-0.14l-0.28,0.02l-1.62-0.03h-0.28
				l-0.88,0.03h-0.28l-0.9-0.03l-0.78-0.05h-0.26l-0.14,0.02l-0.17,0.04l-0.09,0.09l-0.02,0.1l-0.03,0.19l-0.04,0.41v0.28l0.02,0.29
				l0.02,0.19l0.03,0.12l0.07,0.09l0.19,0.05l0.55,0.03l0.55-0.03h1.64l1.93-0.1l0.54,0.03l0.19,0.03l0.1,0.09l0.05,0.1l0.02,0.19
				l0.04,0.29l0.02,0.29v0.57l0.03,0.4l-0.03,0.52l-0.04,0.21l-0.07,0.12l-0.12,0.09l-0.17,0.04h-0.35l-0.78-0.09l-0.28-0.02
				l-1.38,0.09l-1.11-0.03h-0.28l-0.69-0.05l-0.29,0.02l-0.21,0.02l-0.09,0.05l-0.05,0.12l-0.02,0.26l-0.05,0.43l-0.02,0.28v0.38
				l0.02,0.17l0.05,0.12l0.07,0.07l0.19,0.02l0.95,0.03H126l0.93-0.07l1.23,0.07h0.28l1.23-0.07h0.26l0.26,0.02l0.62,0.07l0.1,0.05
				l0.07,0.1l0.02,0.19L131.05,186.23z"/>
			<path class="st10" d="M75.25,200.97l-0.02,0.29l-0.04,0.29l-0.05,0.28l-0.09,0.38l-0.09,0.24l-0.16,0.35l-0.12,0.22l-0.21,0.31
				l-0.17,0.21l-0.21,0.21l-0.21,0.19l-0.35,0.22l-0.22,0.16l-0.26,0.14l-0.24,0.12l-0.4,0.14l-0.52,0.17l-0.28,0.05l-0.43,0.07
				l-0.26,0.03l-0.38,0.04l-0.24,0.02l-0.4,0.02l-0.83,0.05h-0.38l-0.24-0.02l-0.4-0.03l-0.26-0.03l-0.29-0.05l-0.26-0.09
				l-0.38-0.12l-0.24-0.12l-0.26-0.12l-0.24-0.12l-0.22-0.14l-0.55-0.38l-0.21-0.17l-0.31-0.24l-0.21-0.17l-0.19-0.19l-0.14-0.16
				l-0.02-0.12l0.09-0.16l0.07-0.09l0.17-0.19l0.48-0.45l0.16-0.19l0.29-0.45l0.16-0.19l0.17-0.19l0.19-0.1l0.19,0.03l0.19,0.14
				l0.55,0.38l0.26,0.14l0.24,0.12l0.4,0.19l0.26,0.09l0.28,0.09l0.28,0.05l0.4,0.02l0.28,0.02l1.09-0.07l0.28-0.03l0.14-0.04
				l0.26-0.1l0.22-0.14l0.17-0.17l0.09-0.12l0.1-0.26l-0.02-0.29l-0.03-0.14l-0.14-0.24l-0.09-0.1l-0.22-0.17l-0.14-0.05l-0.26-0.1
				l-0.29-0.07l-0.29-0.05l-1.64-0.16l-0.52-0.1l-0.28-0.07l-0.38-0.14l-0.26-0.09l-0.26-0.12l-0.59-0.29l-0.22-0.16l-0.26-0.16
				l-0.22-0.16l-0.29-0.24l-0.16-0.22l-0.16-0.26l-0.1-0.26l-0.12-0.36l-0.05-0.26l-0.05-0.38l-0.03-0.55l0.02-0.28l0.03-0.42
				l0.05-0.26l0.07-0.22l0.09-0.26l0.17-0.38l0.12-0.24l0.14-0.21l0.17-0.19l0.28-0.26l0.22-0.17l0.22-0.16l0.24-0.12l0.33-0.19
				l0.52-0.21l0.26-0.09l0.4-0.07l0.28-0.05l0.52-0.07l0.38-0.07l0.28-0.03l0.26-0.02h0.28l0.52,0.05l0.26,0.04l0.12,0.03l0.28,0.03
				l0.59,0.1l0.29,0.07l0.28,0.09l0.29,0.09l0.28,0.1l0.26,0.12l0.26,0.1l0.33,0.19l0.24,0.12l0.22,0.16l0.16,0.16v0.17l-0.1,0.19
				l-0.19,0.35l-0.14,0.21l-0.66,0.86l-0.19,0.24l-0.21,0.17l-0.14,0.05l-0.12-0.02l-0.17-0.09l-0.26-0.16l-0.26-0.1l-0.12-0.05
				l-0.26-0.09l-0.14-0.03l-0.29-0.07l-0.4-0.09l-0.28-0.02l-0.45-0.03h-0.45l-0.29,0.02l-0.29,0.05l-0.28,0.09l-0.1,0.05
				l-0.21,0.16l-0.09,0.1l-0.12,0.24L68.12,196l0.05,0.22l0.14,0.22l0.19,0.17l0.21,0.1l0.12,0.05l0.26,0.05l0.43,0.05l0.59,0.03
				l0.29,0.05l0.59,0.14l0.55,0.17l0.4,0.09l0.26,0.07l0.48,0.17l0.35,0.16l0.24,0.12l0.24,0.14l0.22,0.14l0.5,0.41l0.19,0.21
				l0.17,0.21l0.21,0.31l0.14,0.22l0.12,0.26l0.07,0.26l0.07,0.38l0.04,0.26L75.25,200.97z"/>
			<path class="st10" d="M86.39,193.73l-0.02,0.26l0.02,0.52l-0.02,0.28l-0.02,0.14l-0.03,0.21l-0.05,0.12l-0.1,0.09l-0.21,0.03
				h-0.28l-0.52-0.05l-0.28-0.02l-0.79,0.05h-0.28l-0.43-0.04h-0.26l-0.12,0.02l-0.17,0.05l-0.07,0.1l-0.02,0.22l-0.07,1.02v0.28
				l0.07,1.04l-0.02,0.28l-0.07,1.04l-0.02,0.28l0.04,1.02v1.59l-0.04,1.02l0.02,0.26l0.09,0.78l0.02,0.28l-0.05,0.21l-0.09,0.09
				l-0.22,0.04l-0.33-0.02l-0.43-0.05l-0.29-0.02l-0.78,0.05H80.3l-0.78-0.05l-0.21-0.02l-0.1-0.05l-0.03-0.19v-0.29l0.05-0.73
				l0.02-0.28v-1.29l0.02-1.04v-0.28l0.02-1.02v-0.28l-0.07-1.04l-0.02-0.28v-1.31l-0.04-1.02v-0.24l-0.05-0.14l-0.17-0.03h-0.26
				l-0.55,0.03h-0.31l-0.47-0.03l-0.29-0.02l-0.29,0.02l-0.4,0.02H76.1l-0.14-0.02l-0.19-0.04l-0.1-0.07l-0.07-0.1l-0.04-0.17v-0.12
				l-0.02-0.28l0.03-0.52v-0.26l-0.05-0.66l0.02-0.28l0.05-0.22l0.07-0.12l0.1-0.05l0.17-0.04h0.4l0.64,0.05h0.28l1-0.07h0.28
				l1.02,0.09h0.28l1.28-0.09l1,0.02h0.28l1.29-0.02h1.28l0.57-0.04l0.29,0.02l0.14,0.02l0.21,0.03l0.12,0.07l0.09,0.12l0.03,0.21
				v0.12l0.02,0.26L86.39,193.73z"/>
			<path class="st10" d="M99.26,204.36l0.05,0.24l-0.12,0.19L99,204.87l-0.22,0.04h-0.24l-0.4-0.04l-0.26-0.02H97.1l-1.07,0.07
				l-0.22-0.07l-0.1-0.14l-0.09-0.19l-0.54-1.45l-0.12-0.17l-0.16-0.03l-0.21-0.02l-1.04-0.07h-0.28l-1.3-0.03l-1.04-0.02h-0.26
				l-0.26,0.02h-0.79l-0.22,0.03l-0.14,0.09l-0.1,0.21l-0.4,1.17l-0.1,0.28l-0.19,0.22l-0.26,0.1l-0.28-0.02l-1-0.05h-0.28
				l-1.07,0.07l-0.22,0.02l-0.21-0.1l-0.14-0.19l0.02-0.22l0.03-0.14l0.1-0.28l0.24-0.54l0.1-0.26l0.43-0.97l0.1-0.24l0.45-0.97
				l0.1-0.26l0.4-0.93l0.1-0.26l0.47-0.97l0.1-0.24l0.62-1.42l0.48-1.04l0.12-0.28l0.38-0.78l0.12-0.28l0.33-0.79l0.1-0.26
				l0.31-0.71l0.09-0.19l0.17-0.1l0.26-0.05l0.79-0.04h1.35l0.79,0.02l0.29,0.05l0.19,0.14l0.09,0.22l0.24,0.67l0.1,0.26l0.43,0.81
				l0.1,0.24l0.38,0.85l0.1,0.24l0.31,0.88l0.1,0.24l0.38,0.83l0.1,0.24l0.38,0.85l0.1,0.24l0.35,0.86l0.1,0.24l0.54,1.07l0.42,0.81
				l0.12,0.24l0.47,1.09L99.26,204.36z M93.49,199.49l-0.07-0.22l-0.38-1.17l-0.09-0.26l-0.35-1.02l-0.09-0.22l-0.17-0.12
				l-0.22-0.05l-0.19,0.05l-0.17,0.17l-0.47,1.17l-0.1,0.26l-0.45,1.16l-0.05,0.26l0.05,0.21l0.19,0.09l0.24,0.03h1.09l0.81,0.05
				l0.22-0.07l0.14-0.14L93.49,199.49z"/>
			<path class="st10" d="M108.88,193.73l-0.02,0.26l0.02,0.52l-0.02,0.28l-0.02,0.14l-0.03,0.21l-0.05,0.12l-0.1,0.09l-0.21,0.03
				h-0.28l-0.52-0.05l-0.28-0.02l-0.79,0.05h-0.28l-0.43-0.04h-0.26l-0.12,0.02l-0.17,0.05l-0.07,0.1l-0.02,0.22l-0.07,1.02v0.28
				l0.07,1.04l-0.02,0.28l-0.07,1.04l-0.02,0.28l0.04,1.02v1.59l-0.04,1.02l0.02,0.26l0.09,0.78l0.02,0.28l-0.05,0.21l-0.09,0.09
				l-0.22,0.04l-0.33-0.02l-0.43-0.05l-0.29-0.02l-0.78,0.05h-0.28l-0.78-0.05l-0.21-0.02l-0.1-0.05l-0.03-0.19v-0.29l0.05-0.73
				l0.02-0.28v-1.29l0.02-1.04v-0.28l0.02-1.02v-0.28l-0.07-1.04l-0.02-0.28v-1.31l-0.04-1.02v-0.24l-0.05-0.14l-0.17-0.03h-0.26
				l-0.55,0.03h-0.31l-0.47-0.03l-0.29-0.02l-0.29,0.02l-0.4,0.02h-0.26l-0.14-0.02l-0.19-0.04l-0.1-0.07l-0.07-0.1l-0.04-0.17
				v-0.12l-0.02-0.28l0.03-0.52v-0.26l-0.05-0.66l0.02-0.28l0.05-0.22l0.07-0.12l0.1-0.05l0.17-0.04h0.4l0.64,0.05h0.28l1-0.07h0.28
				l1.02,0.09h0.28l1.28-0.09l1,0.02h0.28l1.29-0.02h1.28l0.57-0.04l0.29,0.02l0.14,0.02l0.21,0.03l0.12,0.07l0.09,0.12l0.03,0.21
				v0.12l0.02,0.26L108.88,193.73z"/>
			<path class="st10" d="M121.11,193.73l-0.02,0.26l0.02,0.52l-0.02,0.28l-0.02,0.14l-0.03,0.21l-0.05,0.12l-0.1,0.09l-0.21,0.03
				h-0.28l-0.52-0.05l-0.28-0.02l-0.79,0.05h-0.28l-0.43-0.04h-0.26l-0.12,0.02l-0.17,0.05l-0.07,0.1l-0.02,0.22l-0.07,1.02v0.28
				l0.07,1.04l-0.02,0.28l-0.07,1.04l-0.02,0.28l0.04,1.02v1.59l-0.04,1.02l0.02,0.26l0.09,0.78l0.02,0.28l-0.05,0.21l-0.09,0.09
				l-0.22,0.04l-0.33-0.02l-0.43-0.05l-0.29-0.02l-0.78,0.05h-0.28l-0.78-0.05l-0.21-0.02l-0.1-0.05l-0.03-0.19v-0.29l0.05-0.73
				l0.02-0.28v-1.29l0.02-1.04v-0.28l0.02-1.02v-0.28l-0.07-1.04l-0.02-0.28v-1.31l-0.04-1.02v-0.24l-0.05-0.14l-0.17-0.03h-0.26
				l-0.55,0.03h-0.31l-0.47-0.03l-0.29-0.02l-0.29,0.02l-0.4,0.02h-0.26l-0.14-0.02l-0.19-0.04l-0.1-0.07l-0.07-0.1l-0.04-0.17
				v-0.12l-0.02-0.28l0.03-0.52v-0.26l-0.05-0.66l0.02-0.28l0.05-0.22l0.07-0.12l0.1-0.05l0.17-0.04h0.4l0.64,0.05h0.28l1-0.07h0.28
				l1.02,0.09h0.28l1.28-0.09l1,0.02h0.28l1.3-0.02h1.28l0.57-0.04l0.29,0.02l0.14,0.02l0.21,0.03l0.12,0.07l0.09,0.12l0.03,0.21
				v0.12l0.02,0.26L121.11,193.73z"/>
			<path class="st10" d="M45.61,220.26l0.02,0.28l0.07,0.54l0.02,0.26l-0.02,0.14l-0.02,0.19l-0.09,0.14l-0.1,0.09l-0.19,0.03
				l-0.26,0.02h-0.28l-0.69-0.05l-0.29-0.02h-0.43l-0.31-0.02l-0.64-0.09l-0.12-0.03l-0.07-0.09l-0.02-0.17l-0.02-0.24l-0.02-0.26
				l0.04-0.59v-1.62l-0.05-1.09v-0.28l0.07-1.07v-1.35l-0.04-0.21l-0.1-0.07h-0.1l-0.12,0.16l-0.17,0.24l-0.73,0.83l-1.05,1.26
				l-0.69,0.86l-0.16,0.14l-0.12,0.05h-0.14l-0.19-0.03l-0.21-0.05l-0.19-0.14l-0.86-1.04l-0.64-0.85l-0.17-0.21l-0.9-1l-0.22-0.22
				l-0.1,0.03l-0.03,0.19l-0.05,1.09v0.28l0.07,1.09v0.28l0.03,1.09v0.28l-0.02,1.07v0.26l0.02,0.52l-0.02,0.28l-0.02,0.29
				l-0.04,0.22l-0.07,0.1l-0.12,0.04l-0.45,0.05l-0.28,0.02l-0.67-0.05l-0.28,0.02l-0.83,0.07h-0.4l-0.21-0.04l-0.1-0.1l-0.03-0.12
				l-0.04-0.17v-0.4l0.04-0.54v-2.66l-0.04-0.92v-0.28l0.02-0.92l-0.02-0.28l-0.05-0.93v-0.28l0.05-0.92l0.02-0.28l-0.07-0.92
				l0.02-0.28l0.07-0.92v-0.28l-0.07-0.64v-0.28l0.03-0.22l0.07-0.12l0.1-0.09l0.14-0.04l0.22-0.02l0.29,0.03l0.38,0.09h0.28
				l0.54-0.05l0.29-0.03l0.26-0.02l0.66,0.02h0.22l0.19,0.09l0.17,0.19l0.6,0.67l0.17,0.22l0.5,0.71l0.17,0.22l0.57,0.67l0.17,0.24
				l0.54,0.67l0.17,0.19l0.16,0.09h0.17l0.16-0.09l0.16-0.17l0.52-0.69l0.17-0.24l0.55-0.67l0.17-0.22l0.6-0.67l0.17-0.22l0.45-0.55
				l0.14-0.19l0.14-0.14l0.17-0.09l0.22,0.02l0.92,0.05l0.81,0.02h0.28l0.52-0.03l0.29,0.02l0.21,0.04l0.12,0.03l0.1,0.09l0.04,0.14
				l-0.02,0.21l-0.07,0.78l-0.02,0.28l0.03,0.92v0.28l-0.02,0.92v0.28l0.02,0.92v0.28l0.07,0.93v0.28l-0.07,0.92v0.28l0.05,0.92
				v0.28l-0.07,0.92v0.28L45.61,220.26z"/>
			<path class="st10" d="M51.72,219.12v0.28l-0.07,0.93v0.28l-0.02,0.95v0.19l-0.05,0.1l-0.14,0.03l-0.24,0.02l-0.88-0.02h-1.07
				l-0.86-0.07l-0.1-0.03l-0.05-0.05v-0.17l-0.03-0.43v-0.28l-0.02-0.26v-0.26l-0.05-0.93l0.02-0.28l0.05-0.93l0.02-0.28l-0.05-0.95
				v-0.28l-0.02-0.93v-1.49l-0.02-0.95v-0.28l0.02-0.93v-1.49l-0.04-0.95l0.05-0.19l0.1-0.07l0.17-0.02h0.14l0.26-0.02l0.42,0.02
				h0.28l0.79-0.03h1.07l0.19,0.03l0.03,0.1l0.02,0.19l0.03,0.45l0.02,0.28v1.69l0.02,0.93v0.28l-0.02,0.95v0.28l0.02,0.93v0.28
				l-0.04,0.93v1.5L51.72,219.12z"/>
			<path class="st10" d="M64.52,217.96l-0.02,0.29l-0.04,0.29l-0.05,0.28l-0.09,0.38l-0.09,0.24l-0.16,0.35l-0.12,0.22l-0.21,0.31
				l-0.17,0.21l-0.21,0.21l-0.21,0.19l-0.35,0.22l-0.22,0.16l-0.26,0.14l-0.24,0.12l-0.4,0.14l-0.52,0.17l-0.28,0.05L60.48,222
				l-0.26,0.03l-0.38,0.04l-0.24,0.02l-0.4,0.02l-0.83,0.05h-0.38l-0.24-0.02l-0.4-0.03l-0.26-0.03l-0.29-0.05l-0.26-0.09
				l-0.38-0.12l-0.24-0.12l-0.26-0.12l-0.24-0.12l-0.22-0.14l-0.55-0.38l-0.21-0.17l-0.31-0.24l-0.21-0.17l-0.19-0.19L53.59,220
				l-0.02-0.12l0.09-0.16l0.07-0.09l0.17-0.19l0.48-0.45l0.16-0.19l0.29-0.45l0.16-0.19l0.17-0.19l0.19-0.1l0.19,0.03l0.19,0.14
				l0.55,0.38l0.26,0.14l0.24,0.12l0.4,0.19l0.26,0.09l0.28,0.09l0.28,0.05l0.4,0.02l0.28,0.02l1.09-0.07l0.28-0.03l0.14-0.04
				l0.26-0.1l0.22-0.14l0.17-0.17l0.09-0.12l0.1-0.26L61,217.91l-0.03-0.14l-0.14-0.24l-0.09-0.1l-0.22-0.17l-0.14-0.05l-0.26-0.1
				l-0.29-0.07l-0.29-0.05l-1.64-0.16l-0.52-0.1l-0.28-0.07l-0.38-0.14l-0.26-0.09l-0.26-0.12l-0.59-0.29l-0.22-0.16l-0.26-0.16
				l-0.22-0.16l-0.29-0.24l-0.16-0.22l-0.16-0.26l-0.1-0.26l-0.12-0.36l-0.05-0.26l-0.05-0.38L53.93,213l0.02-0.28l0.03-0.42
				l0.05-0.26l0.07-0.22l0.09-0.26l0.17-0.38l0.12-0.24l0.14-0.21l0.17-0.19l0.28-0.26l0.22-0.17l0.22-0.16l0.24-0.12l0.33-0.19
				l0.52-0.21l0.26-0.09l0.4-0.07l0.28-0.05l0.52-0.07l0.38-0.07l0.28-0.03l0.26-0.02h0.28l0.52,0.05l0.26,0.04l0.12,0.03l0.28,0.03
				l0.59,0.1l0.29,0.07l0.28,0.09l0.29,0.09l0.28,0.1l0.26,0.12l0.26,0.1l0.33,0.19l0.24,0.12l0.22,0.16l0.16,0.16v0.17l-0.1,0.19
				l-0.19,0.35l-0.14,0.21l-0.66,0.86l-0.19,0.24l-0.21,0.17L62,212.74l-0.12-0.02l-0.17-0.09l-0.26-0.16l-0.26-0.1l-0.12-0.05
				l-0.26-0.09l-0.14-0.03l-0.29-0.07l-0.4-0.09l-0.28-0.02L59.25,212H58.8l-0.29,0.02l-0.29,0.05l-0.28,0.09l-0.1,0.05l-0.21,0.16
				l-0.09,0.1l-0.12,0.24l-0.03,0.28l0.05,0.22l0.14,0.22l0.19,0.17l0.21,0.1l0.12,0.05l0.26,0.05l0.43,0.05l0.59,0.03l0.29,0.05
				l0.59,0.14l0.55,0.17l0.4,0.09l0.26,0.07l0.48,0.17l0.35,0.16l0.24,0.12l0.24,0.14l0.22,0.14l0.5,0.41l0.19,0.21l0.17,0.21
				l0.21,0.31l0.14,0.22l0.12,0.26l0.07,0.26l0.07,0.38l0.04,0.26L64.52,217.96z"/>
			<path class="st10" d="M76.11,217.96l-0.02,0.29l-0.04,0.29l-0.05,0.28l-0.09,0.38l-0.09,0.24l-0.16,0.35l-0.12,0.22l-0.21,0.31
				l-0.17,0.21l-0.21,0.21l-0.21,0.19l-0.35,0.22l-0.22,0.16l-0.26,0.14l-0.24,0.12l-0.4,0.14l-0.52,0.17l-0.28,0.05L72.07,222
				l-0.26,0.03l-0.38,0.04l-0.24,0.02l-0.4,0.02l-0.83,0.05h-0.38l-0.24-0.02l-0.4-0.03l-0.26-0.03l-0.29-0.05l-0.26-0.09
				l-0.38-0.12l-0.24-0.12l-0.26-0.12l-0.24-0.12l-0.22-0.14l-0.55-0.38l-0.21-0.17l-0.31-0.24l-0.21-0.17l-0.19-0.19L65.18,220
				l-0.02-0.12l0.09-0.16l0.07-0.09l0.17-0.19l0.48-0.45l0.16-0.19l0.29-0.45l0.16-0.19l0.17-0.19l0.19-0.1l0.19,0.03l0.19,0.14
				l0.55,0.38l0.26,0.14l0.24,0.12l0.4,0.19l0.26,0.09l0.28,0.09l0.28,0.05l0.4,0.02l0.28,0.02l1.09-0.07l0.28-0.03l0.14-0.04
				l0.26-0.1l0.22-0.14l0.17-0.17l0.09-0.12l0.1-0.26l-0.02-0.29l-0.03-0.14l-0.14-0.24l-0.09-0.1l-0.22-0.17l-0.14-0.05l-0.26-0.1
				l-0.29-0.07l-0.29-0.05l-1.64-0.16l-0.52-0.1l-0.28-0.07l-0.38-0.14l-0.26-0.09l-0.26-0.12l-0.59-0.29l-0.22-0.16l-0.26-0.16
				l-0.22-0.16l-0.29-0.24l-0.16-0.22l-0.16-0.26l-0.1-0.26l-0.12-0.36l-0.05-0.26l-0.05-0.38L65.52,213l0.02-0.28l0.03-0.42
				l0.05-0.26l0.07-0.22l0.09-0.26l0.17-0.38l0.12-0.24l0.14-0.21l0.17-0.19l0.28-0.26l0.22-0.17l0.22-0.16l0.24-0.12l0.33-0.19
				l0.52-0.21l0.26-0.09l0.4-0.07l0.28-0.05l0.52-0.07l0.38-0.07l0.28-0.03l0.26-0.02h0.28l0.52,0.05l0.26,0.04l0.12,0.03l0.28,0.03
				l0.59,0.1l0.29,0.07l0.28,0.09l0.29,0.09l0.28,0.1l0.26,0.12l0.26,0.1l0.33,0.19l0.24,0.12l0.22,0.16l0.16,0.16v0.17l-0.1,0.19
				l-0.19,0.35l-0.14,0.21l-0.66,0.86l-0.19,0.24l-0.21,0.17l-0.14,0.05l-0.12-0.02l-0.17-0.09l-0.26-0.16l-0.26-0.1l-0.12-0.05
				l-0.26-0.09l-0.14-0.03l-0.29-0.07l-0.4-0.09l-0.28-0.02L70.84,212h-0.45l-0.29,0.02l-0.29,0.05l-0.28,0.09l-0.1,0.05l-0.21,0.16
				l-0.09,0.1l-0.12,0.24l-0.04,0.28l0.05,0.22l0.14,0.22l0.19,0.17l0.21,0.1l0.12,0.05l0.26,0.05l0.43,0.05l0.59,0.03l0.29,0.05
				l0.59,0.14l0.55,0.17l0.4,0.09l0.26,0.07l0.48,0.17l0.35,0.16l0.24,0.12l0.24,0.14l0.22,0.14l0.5,0.41l0.19,0.21l0.17,0.21
				l0.21,0.31l0.14,0.22l0.12,0.26l0.07,0.26l0.07,0.38l0.04,0.26L76.11,217.96z"/>
			<path class="st10" d="M87.08,210.72l-0.02,0.26l0.02,0.52l-0.02,0.28l-0.02,0.14l-0.03,0.21l-0.05,0.12l-0.1,0.09l-0.21,0.03
				h-0.28l-0.52-0.05l-0.28-0.02l-0.79,0.05H84.5l-0.43-0.04h-0.26l-0.12,0.02l-0.17,0.05l-0.07,0.1l-0.02,0.22l-0.07,1.02V214
				l0.07,1.04l-0.02,0.28l-0.07,1.04l-0.02,0.28l0.04,1.02v1.59l-0.04,1.02l0.02,0.26l0.09,0.78l0.02,0.28l-0.05,0.21l-0.09,0.09
				l-0.22,0.04l-0.33-0.02l-0.43-0.05l-0.29-0.02l-0.78,0.05h-0.28l-0.78-0.05l-0.21-0.02l-0.1-0.05l-0.03-0.19v-0.29l0.05-0.73
				l0.02-0.28v-1.29l0.02-1.04v-0.28l0.02-1.02v-0.28l-0.07-1.04l-0.02-0.28v-1.31l-0.04-1.02v-0.24l-0.05-0.14l-0.17-0.04h-0.26
				l-0.55,0.04h-0.31l-0.47-0.04l-0.29-0.02l-0.29,0.02l-0.4,0.02h-0.26l-0.14-0.02l-0.19-0.03l-0.1-0.07l-0.07-0.1l-0.04-0.17
				v-0.12l-0.02-0.28l0.03-0.52v-0.26l-0.05-0.66l0.02-0.28l0.05-0.22l0.07-0.12l0.1-0.05l0.17-0.04h0.4l0.64,0.05h0.28l1-0.07h0.28
				l1.02,0.09h0.28l1.28-0.09l1,0.02h0.28l1.29-0.02h1.28l0.57-0.04l0.29,0.02l0.14,0.02l0.21,0.03l0.12,0.07l0.09,0.12l0.03,0.21
				v0.12l0.02,0.26L87.08,210.72z"/>
			<path class="st10" d="M100.34,221.76l-0.22,0.07h-1.21l-0.95-0.02h-0.28l-0.78,0.04h-0.22l-0.16-0.07l-0.14-0.14l-0.55-0.78
				l-0.16-0.21l-0.55-0.74l-0.16-0.21l-0.48-0.79l-0.16-0.21l-0.55-0.74l-0.12-0.14l-0.1-0.05l-0.21-0.02l-0.55-0.04l-0.22,0.02
				l-0.14,0.1l-0.05,0.22l-0.03,0.95l0.02,0.28l0.07,0.97l0.02,0.28l0.02,0.42v0.28l-0.02,0.28l-0.03,0.21l-0.09,0.09l-0.19,0.05
				h-0.28l-0.83-0.05l-0.79,0.05h-0.28l-0.79-0.05l-0.21-0.04l-0.1-0.07l-0.03-0.17l-0.02-0.24l-0.02-0.26l0.03-0.45l0.02-0.28
				l0.07-0.93v-0.28l-0.05-0.93l-0.02-0.28l-0.02-0.92v-0.28l0.05-0.93v-0.28l-0.05-0.93v-0.28l0.05-0.93v-0.28l0.03-0.92v-0.28
				l-0.02-0.93v-0.28l-0.04-0.57l0.02-0.26l0.02-0.1l0.05-0.22l0.1-0.14l0.21-0.05l0.14-0.02l0.26-0.02l0.78,0.04l2.06,0.07
				l1.17-0.07h0.28l1.14,0.07h0.66l0.29,0.02l0.26,0.05l0.36,0.1l0.26,0.09l0.26,0.1l0.28,0.1l0.26,0.12l0.22,0.14l0.33,0.22
				l0.19,0.16l0.17,0.17l0.17,0.21l0.24,0.35l0.16,0.22l0.21,0.33l0.12,0.24l0.12,0.26l0.09,0.28l0.05,0.28l0.02,0.28l0.04,0.38
				v0.28l-0.02,0.28l-0.03,0.29l-0.05,0.29l-0.07,0.28l-0.1,0.26l-0.12,0.26l-0.16,0.26l-0.16,0.22l-0.16,0.21l-0.16,0.19
				l-0.28,0.28l-0.19,0.16l-0.35,0.19l-0.21,0.12l-0.22,0.12l-0.22,0.05l-0.14,0.05l0.07,0.14l0.62,0.88l0.16,0.21l0.62,0.85
				l0.17,0.21l0.62,0.86l0.17,0.21l0.54,0.62l0.16,0.19l0.09,0.19L100.34,221.76z M95.49,215.04l0.22-0.09l0.21-0.12l0.17-0.21
				l0.12-0.26l0.07-0.28l0.02-0.28l-0.02-0.29l-0.04-0.29l-0.07-0.26l-0.12-0.26l-0.16-0.21l-0.19-0.16l-0.24-0.1l-0.38-0.09
				l-0.28-0.03l-0.86-0.02h-0.28l-0.88,0.05l-0.21,0.02l-0.12,0.05l-0.1,0.1l-0.02,0.19l0.02,0.4l0.03,0.28l0.04,0.29l0.02,0.29
				l-0.03,0.95l0.02,0.19l0.03,0.1l0.12,0.05l0.21,0.04l0.9,0.07h0.28l1.14-0.07L95.49,215.04z"/>
			<path class="st10" d="M115.12,221.33l0.05,0.24l-0.12,0.19l-0.19,0.09l-0.22,0.03h-0.24l-0.4-0.03l-0.26-0.02h-0.78l-1.07,0.07
				l-0.22-0.09l-0.1-0.12l-0.09-0.19l-0.54-1.45l-0.12-0.17l-0.16-0.03l-0.21-0.02l-1.04-0.07h-0.28l-1.3-0.04l-1.04-0.02h-0.26
				l-0.26,0.02h-0.79l-0.22,0.04l-0.14,0.09l-0.1,0.21l-0.4,1.17l-0.1,0.28l-0.19,0.22l-0.26,0.09h-0.28l-1-0.05h-0.28l-1.07,0.07
				l-0.22,0.02l-0.21-0.1l-0.14-0.19l0.02-0.22l0.03-0.14l0.1-0.28l0.24-0.54l0.1-0.26l0.43-0.97l0.1-0.24l0.45-0.97l0.1-0.26
				l0.4-0.93l0.1-0.26l0.47-0.97l0.1-0.24l0.62-1.42l0.48-1.04l0.12-0.28l0.38-0.78l0.12-0.28l0.33-0.79l0.1-0.26l0.31-0.71
				l0.09-0.19l0.17-0.1l0.26-0.05l0.79-0.03h1.35l0.79,0.02l0.29,0.05l0.19,0.14l0.09,0.22l0.24,0.67l0.1,0.26l0.43,0.81l0.1,0.24
				l0.38,0.85l0.1,0.24l0.31,0.88l0.1,0.24l0.38,0.83l0.1,0.24l0.38,0.85l0.1,0.24l0.35,0.86l0.1,0.24l0.54,1.07l0.42,0.81
				l0.12,0.24l0.47,1.09L115.12,221.33z M109.35,216.46l-0.07-0.22l-0.38-1.17l-0.09-0.26l-0.35-1.02l-0.09-0.22l-0.17-0.12
				l-0.22-0.05l-0.19,0.05l-0.17,0.17l-0.47,1.17l-0.1,0.26l-0.45,1.16l-0.05,0.26l0.05,0.21l0.19,0.09l0.24,0.03h1.09l0.81,0.05
				l0.22-0.07l0.14-0.14L109.35,216.46z"/>
			<path class="st10" d="M127.23,215.75l0.04,0.55l-0.02,0.26l-0.02,0.4l-0.03,0.26l-0.07,0.42l-0.05,0.28l-0.07,0.4l-0.07,0.26
				l-0.14,0.36l-0.09,0.24l-0.16,0.36l-0.12,0.24l-0.22,0.35l-0.17,0.22l-0.21,0.22l-0.22,0.19l-0.35,0.28l-0.22,0.16l-0.35,0.21
				l-0.22,0.12l-0.36,0.17l-0.26,0.09l-0.38,0.14l-0.26,0.07l-0.4,0.07l-0.26,0.05l-0.54,0.03h-0.79l-0.4-0.03l-0.26-0.02l-0.95-0.1
				l-0.28-0.05l-0.16-0.02l-0.28-0.09l-0.14-0.05l-0.28-0.12l-0.38-0.17l-0.26-0.16l-0.26-0.17l-0.45-0.38l-0.19-0.19l-0.22-0.29
				l-0.16-0.21l-0.28-0.45l-0.16-0.24l-0.14-0.26l-0.12-0.28l-0.1-0.26l-0.07-0.24l-0.07-0.26l-0.07-0.38l-0.05-0.29l-0.03-0.29
				l-0.04-0.59l-0.02-0.28l0.05-1.05v-0.28l-0.04-1.05v-0.28l0.05-1.05v-1.61l-0.03-0.55v-0.29l0.02-0.29l0.05-0.28l0.12-0.16
				l0.22-0.05l0.57-0.03l0.66,0.05h0.28l0.57-0.02l0.26,0.02l0.4,0.02l0.22,0.05l0.14,0.14l0.05,0.22l0.02,0.24v0.26l-0.03,0.67
				v0.28l0.05,1.05v0.28l-0.02,1.05v0.28l-0.05,1.05v0.28l-0.02,1.05l0.02,0.28l0.04,0.43l0.05,0.28l0.1,0.38l0.1,0.26l0.17,0.4
				l0.17,0.21l0.28,0.29l0.22,0.14l0.38,0.14l0.26,0.07l0.45,0.03h0.28l0.45-0.09l0.26-0.07l0.33-0.16l0.22-0.14l0.28-0.24
				l0.17-0.21l0.19-0.36l0.12-0.26l0.09-0.28l0.05-0.28l0.07-0.52l0.02-0.28l-0.07-1.05v-0.28l0.05-1.07v-0.28l0.03-1.05v-0.28
				l-0.03-1.07l-0.02-0.28l-0.05-0.73v-0.43l0.07-0.24l0.16-0.14l0.22-0.05h0.36l0.88,0.07h0.28l0.69-0.05h0.28l0.26,0.02l0.22,0.05
				l0.14,0.12l0.02,0.21l0.02,0.52v0.26l-0.02,0.4v0.28l0.05,1.07v0.28l-0.03,1.05v0.28l-0.07,1.07L127.23,215.75z"/>
			<path class="st10" d="M139.56,220.2l-0.02,0.28l-0.07,0.93l-0.02,0.17l-0.07,0.12l-0.09,0.07l-2.26,0.07h-0.28l-0.92-0.07
				l-0.28,0.02l-0.9,0.07l-0.28,0.02h-1.19l-0.9-0.07h-0.28l-1.49,0.09l-0.59-0.04l-0.21-0.03l-0.12-0.09l-0.05-0.12l-0.03-0.19
				l-0.04-0.4l-0.02-0.28l0.02-0.26v-0.26l0.07-0.92v-0.28l0.02-0.92l-0.02-0.28l-0.05-0.92l-0.02-0.28l0.04-0.93v-1.47l0.07-0.92
				l-0.02-0.28l-0.05-0.92l-0.02-0.28v-0.41l0.03-0.52v-0.26l0.05-0.9l0.02-0.24l0.05-0.14l0.09-0.07l0.14-0.02l0.22-0.03l1.12,0.07
				l1.05-0.02h0.28l1.04,0.07h0.28l1.04-0.07h0.28l2.35,0.03l0.29-0.02l0.59-0.05h0.43l0.24,0.05l0.1,0.09l0.03,0.12l0.03,0.22v0.47
				l-0.03,0.43v0.29l0.02,0.43l0.02,0.26l-0.02,0.26l-0.04,0.21l-0.07,0.12l-0.09,0.07l-0.21,0.03h-0.14l-0.28,0.02l-1.62-0.03
				h-0.28l-0.88,0.03h-0.28l-0.9-0.03l-0.78-0.05h-0.26l-0.14,0.02l-0.17,0.04l-0.09,0.09l-0.02,0.1l-0.03,0.19l-0.04,0.41v0.28
				l0.02,0.29l0.02,0.19l0.03,0.12l0.07,0.09l0.19,0.05l0.55,0.03l0.55-0.03h1.64l1.93-0.1l0.54,0.03l0.19,0.03l0.1,0.09l0.05,0.1
				l0.02,0.19l0.03,0.29l0.02,0.29v0.57l0.03,0.4l-0.03,0.52l-0.04,0.21l-0.07,0.12l-0.12,0.09l-0.17,0.03h-0.35l-0.78-0.09
				l-0.28-0.02l-1.38,0.09l-1.11-0.03h-0.28l-0.69-0.05l-0.29,0.02l-0.21,0.02l-0.09,0.05l-0.05,0.12l-0.02,0.26l-0.05,0.43
				l-0.02,0.28v0.38l0.02,0.17l0.05,0.12l0.07,0.07l0.19,0.02l0.95,0.03h0.28l0.93-0.07l1.23,0.07h0.28l1.23-0.07h0.26l0.26,0.02
				l0.62,0.07l0.1,0.05l0.07,0.1l0.02,0.19L139.56,220.2z"/>
			<path class="st10" d="M153.31,212.07l-0.02,0.28v2.56l0.05,1v0.28l0.04,2.28v0.29l-0.02,0.14l-0.02,0.29l-0.05,0.83l0.02,1
				l-0.02,0.24l-0.07,0.21l-0.14,0.19l-0.17,0.12l-0.16,0.05l-0.24,0.02l-0.88,0.03l-0.28,0.02l-0.43,0.02h-0.28l-0.22-0.05
				l-0.21-0.09l-0.21-0.16l-0.16-0.22l-0.26-0.5l-0.16-0.22l-0.67-0.85l-0.17-0.21l-0.67-0.83l-0.16-0.22l-0.6-0.9l-0.16-0.21
				l-0.67-0.83l-0.17-0.21l-0.64-0.85l-0.16-0.14l-0.12,0.05l-0.05,0.21l-0.04,0.86v0.28l0.02,0.86v0.28l0.02,0.97v0.28l-0.05,0.97
				l0.02,0.28l0.1,0.69l0.02,0.28l-0.05,0.22l-0.12,0.12l-0.12,0.03l-0.21,0.04l-0.14,0.02l-0.29,0.02l-0.79-0.02h-0.28l-0.71,0.04
				h-0.28l-0.26-0.02l-0.19-0.03l-0.14-0.09l-0.07-0.12l-0.03-0.17l-0.02-0.12v-0.26l0.04-0.57l0.02-0.28l-0.05-0.92v-0.28
				l0.04-2.11l0.02-0.28l0.05-0.92l0.02-0.28v-1.19l-0.07-0.92v-0.28l0.07-0.92l-0.02-0.28l-0.07-0.93l-0.02-0.28v-0.4l0.02-0.26
				l0.03-0.26l0.03-0.19l0.05-0.12l0.1-0.05l0.19-0.04l0.52-0.03l0.52,0.03h1.3l0.21,0.02l0.09,0.07l0.1,0.16l0.73,0.78l0.17,0.21
				l0.64,0.83l0.17,0.21l0.64,0.85l0.17,0.21l0.62,0.86l0.16,0.21l0.66,0.83l0.17,0.21l0.62,0.86l0.14,0.12l0.14,0.02l0.12-0.09
				v-0.19l-0.12-0.73l-0.02-0.28l0.05-0.74v-0.28l-0.07-1.05v-0.28l0.07-1.05l-0.02-0.28l-0.05-0.64v-0.43l0.05-0.22l0.07-0.14
				l0.12-0.07l0.21-0.03h0.16l0.29-0.02l0.78,0.05h0.28l0.59-0.03l0.26,0.02l0.4,0.02l0.19,0.03l0.12,0.05l0.1,0.12l0.03,0.24
				l0.02,0.16l0.02,0.29l-0.04,0.54l-0.03,0.28L153.31,212.07z"/>
		</g>
	</g>
	<g>
		<path class="st11" d="M210.36,157.01c-2.74,0.17-47.18-33.28-48.55-52.5c-1.22-17.03,12.63-28.1,26.93-27.45
			c15.1,0.69,21.79,16.64,21.79,16.64s7.21-16.25,25.73-16.47c14.24-0.17,26.08,14.93,22.3,31.22
			C254.79,124.76,213.1,156.84,210.36,157.01z"/>
		<g>
			<path class="st11" d="M197.25,186.26l0.02,0.28l0.04,0.43l0.02,0.26l-0.02,0.24l-0.09,0.22l-0.12,0.12l-0.19,0.02l-0.28,0.04
				l-0.93-0.05h-0.28l-0.92,0.07h-0.28l-0.24-0.05l-0.1-0.14l-0.04-0.24l-0.07-1.12l-0.02-0.28l0.03-1.12v-0.28l-0.03-1.11v-0.24
				l-0.07-0.14l-0.19-0.07h-0.42l-0.69,0.05l-0.28,0.02l-1.38-0.04l-0.93-0.05l-0.22,0.02l-0.16,0.05l-0.09,0.16l-0.02,0.24
				l0.02,1.11v0.28l-0.04,1.12l0.02,0.28l0.07,0.74v0.4l-0.07,0.24l-0.16,0.14l-0.22,0.05l-0.26,0.02l-0.26-0.02l-0.72-0.07
				l-0.28-0.02l-0.81,0.05l-0.28-0.02h-0.14l-0.19-0.03l-0.14-0.07l-0.07-0.09l-0.03-0.19l-0.02-0.16v-0.28l0.03-0.52v-1.45
				l0.04-0.92v-0.28l0.02-0.92v-0.28l-0.05-0.92v-0.28l-0.02-0.92v-1.19l0.02-0.28l0.05-0.92l0.02-0.28l-0.02-0.92l-0.02-0.28
				l-0.09-0.59v-0.36l0.07-0.21l0.16-0.12l0.22-0.05l0.26-0.02h0.26l0.73,0.03h0.28l0.69-0.05h0.28l0.26,0.02l0.22,0.03l0.14,0.14
				l0.07,0.22l0.02,0.12v0.26l-0.05,0.78l-0.02,0.28l-0.02,1.12v1.42l0.02,0.21l0.05,0.14l0.09,0.07l0.17,0.02l0.24,0.02h0.24
				l0.66-0.1l0.26-0.02l1.11,0.03l1.02,0.07h0.26l0.12-0.02l0.19-0.1l0.07-0.14l0.02-0.19l0.07-1.12v-0.28l-0.03-1.12v-0.28
				l-0.02-1.12l0.05-0.28l0.14-0.16l0.21-0.04h0.28l0.93,0.05h0.28l0.78-0.05l0.28,0.02h0.16l0.22,0.03l0.14,0.14l0.07,0.24v0.26
				l-0.05,0.69l-0.02,0.28l0.05,0.92v0.28l-0.04,0.92v0.28l0.07,0.92v0.28l-0.07,0.92v0.28l-0.03,0.92v0.28l0.02,0.92v0.28
				l-0.02,0.92V186.26z"/>
			<path class="st11" d="M209.77,186.23l-0.02,0.28l-0.07,0.93l-0.02,0.17l-0.07,0.12l-0.09,0.07l-2.26,0.07h-0.28l-0.92-0.07
				l-0.28,0.02l-0.9,0.07l-0.28,0.02h-1.19l-0.9-0.07h-0.28l-1.49,0.09l-0.59-0.04l-0.21-0.03l-0.12-0.09l-0.05-0.12l-0.03-0.19
				l-0.04-0.4l-0.02-0.28l0.02-0.26v-0.26l0.07-0.92v-0.28l0.02-0.92l-0.02-0.28l-0.05-0.92l-0.02-0.28l0.04-0.93v-1.47l0.07-0.92
				l-0.02-0.28l-0.05-0.92l-0.02-0.28v-0.42l0.03-0.52v-0.26l0.05-0.9l0.02-0.24l0.05-0.14l0.09-0.07l0.14-0.02l0.22-0.03l1.12,0.07
				l1.05-0.02h0.28l1.04,0.07h0.28l1.04-0.07h0.28l2.35,0.03l0.29-0.02l0.59-0.05h0.43l0.24,0.05l0.1,0.09l0.03,0.12l0.03,0.22v0.47
				l-0.03,0.43V177l0.02,0.43l0.02,0.26l-0.02,0.26l-0.04,0.21l-0.07,0.12l-0.09,0.07l-0.21,0.03h-0.14l-0.28,0.02l-1.62-0.03h-0.28
				l-0.88,0.03h-0.28l-0.9-0.03l-0.78-0.05h-0.26l-0.14,0.02l-0.17,0.04l-0.09,0.09l-0.02,0.1l-0.03,0.19l-0.04,0.41v0.28l0.02,0.29
				l0.02,0.19l0.03,0.12l0.07,0.09l0.19,0.05l0.55,0.03l0.55-0.03h1.64l1.93-0.1l0.54,0.03l0.19,0.03l0.1,0.09l0.05,0.1l0.02,0.19
				l0.04,0.29l0.02,0.29v0.57l0.03,0.4l-0.03,0.52l-0.04,0.21l-0.07,0.12l-0.12,0.09l-0.17,0.04h-0.35l-0.78-0.09l-0.28-0.02
				l-1.38,0.09l-1.11-0.03h-0.28l-0.69-0.05l-0.29,0.02l-0.21,0.02l-0.09,0.05l-0.05,0.12l-0.02,0.26l-0.05,0.43l-0.02,0.28v0.38
				l0.02,0.17l0.05,0.12l0.07,0.07l0.19,0.02l0.95,0.03h0.28l0.93-0.07l1.23,0.07h0.28l1.23-0.07h0.26l0.26,0.02l0.62,0.07l0.1,0.05
				l0.07,0.1l0.02,0.19L209.77,186.23z"/>
			<path class="st11" d="M223.33,187.78l-0.22,0.07h-1.21l-0.95-0.02h-0.28l-0.78,0.04h-0.22l-0.16-0.07l-0.14-0.14l-0.55-0.78
				l-0.16-0.21l-0.55-0.74l-0.16-0.21l-0.48-0.79l-0.16-0.21l-0.55-0.74l-0.12-0.14l-0.1-0.05l-0.21-0.02l-0.55-0.04l-0.22,0.02
				l-0.14,0.1l-0.05,0.22l-0.04,0.95l0.02,0.28l0.07,0.97l0.02,0.28l0.02,0.42v0.28l-0.02,0.28l-0.03,0.21l-0.09,0.09l-0.19,0.05
				h-0.28l-0.83-0.05l-0.79,0.05h-0.28l-0.79-0.05l-0.21-0.04l-0.1-0.07l-0.03-0.17l-0.02-0.24l-0.02-0.26l0.04-0.45l0.02-0.28
				l0.07-0.93v-0.28l-0.05-0.93l-0.02-0.28l-0.02-0.92v-0.28l0.05-0.93v-0.28l-0.05-0.93v-0.28l0.05-0.93v-0.28l0.03-0.92v-0.28
				l-0.02-0.93v-0.28l-0.04-0.57l0.02-0.26l0.02-0.1l0.05-0.22l0.1-0.14l0.21-0.05l0.14-0.02l0.26-0.02l0.78,0.04l2.06,0.07
				l1.17-0.07h0.28l1.14,0.07h0.66l0.29,0.02l0.26,0.05l0.36,0.1l0.26,0.09l0.26,0.1l0.28,0.1l0.26,0.12l0.22,0.14l0.33,0.22
				l0.19,0.16l0.17,0.17l0.17,0.21l0.24,0.35l0.16,0.22l0.21,0.33l0.12,0.24l0.12,0.26l0.09,0.28l0.05,0.28l0.02,0.28l0.04,0.38
				v0.28l-0.02,0.28l-0.03,0.29l-0.05,0.29l-0.07,0.28l-0.1,0.26l-0.12,0.26l-0.16,0.26l-0.16,0.22l-0.16,0.21l-0.16,0.19
				l-0.28,0.28l-0.19,0.16l-0.35,0.19l-0.21,0.12l-0.22,0.12l-0.22,0.05l-0.14,0.05l0.07,0.14l0.62,0.88l0.16,0.21l0.62,0.85
				l0.17,0.21l0.62,0.86l0.17,0.21l0.54,0.62l0.16,0.19l0.09,0.19L223.33,187.78z M218.1,181.13l0.38-0.07l0.22-0.09l0.21-0.12
				l0.17-0.21l0.12-0.26l0.07-0.28l0.02-0.28l-0.02-0.29l-0.03-0.29l-0.07-0.26l-0.12-0.26l-0.16-0.21l-0.19-0.16l-0.24-0.1
				l-0.38-0.09l-0.28-0.03l-0.86-0.02h-0.28l-0.88,0.05l-0.21,0.02l-0.12,0.05l-0.1,0.1l-0.02,0.19l0.02,0.4l0.03,0.28l0.04,0.29
				l0.02,0.29l-0.03,0.95l0.02,0.19l0.03,0.1l0.12,0.05l0.21,0.04l0.9,0.07h0.28L218.1,181.13z"/>
			<path class="st11" d="M234.8,186.47l-0.03,1.14l-0.04,0.21l-0.16,0.07l-0.14,0.02h-0.24l-0.66-0.05h-0.26l-1,0.05l-1.28-0.09
				h-0.28l-1,0.05l-0.28,0.02l-1,0.02l-0.28-0.02l-1-0.05l-0.28-0.02h-1l-0.29,0.02l-0.43,0.04l-0.29,0.02h-0.26l-0.16-0.07
				l-0.03-0.21l-0.03-0.69v-0.17l0.07-0.16l0.55-0.78l0.16-0.24l0.52-0.81l0.14-0.24l0.55-0.78l0.14-0.24l0.5-0.83l0.14-0.24
				l0.54-0.81l0.14-0.24l0.69-1l0.59-0.79l0.71-1.02v-0.19l-0.21-0.07l-0.97-0.07h-0.28l-0.97,0.02h-0.28l-0.97,0.05h-0.64
				l-0.57-0.04l-0.19-0.07l-0.07-0.21v-0.14l-0.02-0.29l-0.02-0.59v-0.28l-0.04-1.05l0.09-0.17l0.22-0.02l2.16-0.07h0.28l0.95,0.02
				h0.28l0.93-0.02h0.28l0.95,0.05l1.23-0.07h0.28l1.23,0.07l0.93-0.02l0.22,0.03l0.09,0.19v0.12l0.02,0.29l-0.02,0.16l-0.02,0.19
				l-0.1,0.16l-0.54,0.79l-0.69,1l-0.14,0.24l-0.55,0.78l-0.14,0.24l-0.47,0.83l-0.16,0.22l-0.55,0.78l-0.16,0.22l-0.64,1.04
				l-0.52,0.81l-0.14,0.22l-0.54,0.79l-0.07,0.17l0.05,0.12l0.19,0.05l0.29,0.02h0.29l1.76-0.12h0.28l1.05,0.03h0.28l0.67-0.05h0.26
				l0.14,0.02l0.17,0.07l0.05,0.21V186.47z"/>
			<path class="st11" d="M192.72,200.97l-0.02,0.29l-0.04,0.29l-0.05,0.28l-0.09,0.38l-0.09,0.24l-0.16,0.35l-0.12,0.22l-0.21,0.31
				l-0.17,0.21l-0.21,0.21l-0.21,0.19l-0.35,0.22l-0.22,0.16l-0.26,0.14l-0.24,0.12l-0.4,0.14l-0.52,0.17l-0.28,0.05l-0.43,0.07
				l-0.26,0.03l-0.38,0.04l-0.24,0.02l-0.4,0.02l-0.83,0.05h-0.38l-0.24-0.02l-0.4-0.03l-0.26-0.03l-0.29-0.05l-0.26-0.09
				l-0.38-0.12l-0.24-0.12l-0.26-0.12l-0.24-0.12l-0.22-0.14l-0.55-0.38l-0.21-0.17l-0.31-0.24l-0.21-0.17l-0.19-0.19l-0.14-0.16
				l-0.02-0.12l0.09-0.16l0.07-0.09l0.17-0.19l0.48-0.45l0.16-0.19l0.29-0.45l0.16-0.19l0.17-0.19l0.19-0.1l0.19,0.03l0.19,0.14
				l0.55,0.38l0.26,0.14l0.24,0.12l0.4,0.19l0.26,0.09l0.28,0.09l0.28,0.05l0.4,0.02l0.28,0.02l1.09-0.07l0.28-0.03l0.14-0.04
				l0.26-0.1l0.22-0.14l0.17-0.17l0.09-0.12l0.1-0.26l-0.02-0.29l-0.03-0.14l-0.14-0.24l-0.09-0.1l-0.22-0.17l-0.14-0.05l-0.26-0.1
				l-0.29-0.07l-0.29-0.05l-1.64-0.16l-0.52-0.1l-0.28-0.07l-0.38-0.14l-0.26-0.09l-0.26-0.12l-0.59-0.29l-0.22-0.16l-0.26-0.16
				l-0.22-0.16l-0.29-0.24l-0.16-0.22l-0.16-0.26l-0.1-0.26l-0.12-0.36l-0.05-0.26l-0.05-0.38l-0.03-0.55l0.02-0.28l0.03-0.42
				l0.05-0.26l0.07-0.22l0.09-0.26l0.17-0.38l0.12-0.24l0.14-0.21l0.17-0.19l0.28-0.26l0.22-0.17l0.22-0.16l0.24-0.12l0.33-0.19
				l0.52-0.21l0.26-0.09l0.4-0.07l0.28-0.05l0.52-0.07l0.38-0.07l0.28-0.03l0.26-0.02h0.28l0.52,0.05l0.26,0.04l0.12,0.03l0.28,0.03
				l0.59,0.1l0.29,0.07l0.28,0.09l0.29,0.09l0.28,0.1l0.26,0.12l0.26,0.1l0.33,0.19l0.24,0.12l0.22,0.16l0.16,0.16v0.17l-0.1,0.19
				l-0.19,0.35l-0.14,0.21l-0.66,0.86l-0.19,0.24l-0.21,0.17l-0.14,0.05l-0.12-0.02l-0.17-0.09l-0.26-0.16l-0.26-0.1l-0.12-0.05
				l-0.26-0.09l-0.14-0.03l-0.29-0.07l-0.4-0.09l-0.28-0.02l-0.45-0.03H187l-0.29,0.02l-0.29,0.05l-0.28,0.09l-0.1,0.05l-0.21,0.16
				l-0.09,0.1l-0.12,0.24l-0.04,0.28l0.05,0.22l0.14,0.22l0.19,0.17l0.21,0.1l0.12,0.05l0.26,0.05l0.43,0.05l0.59,0.03l0.29,0.05
				l0.59,0.14l0.55,0.17l0.4,0.09l0.26,0.07l0.48,0.17l0.35,0.16l0.24,0.12l0.24,0.14l0.22,0.14l0.5,0.41l0.19,0.21l0.17,0.21
				l0.21,0.31l0.14,0.22l0.12,0.26l0.07,0.26l0.07,0.38l0.04,0.26L192.72,200.97z"/>
			<path class="st11" d="M203.86,193.73l-0.02,0.26l0.02,0.52l-0.02,0.28l-0.02,0.14l-0.03,0.21l-0.05,0.12l-0.1,0.09l-0.21,0.03
				h-0.28l-0.52-0.05l-0.28-0.02l-0.79,0.05h-0.28l-0.43-0.04h-0.26l-0.12,0.02l-0.17,0.05l-0.07,0.1l-0.02,0.22l-0.07,1.02v0.28
				l0.07,1.04l-0.02,0.28l-0.07,1.04l-0.02,0.28l0.04,1.02v1.59l-0.04,1.02l0.02,0.26l0.09,0.78l0.02,0.28l-0.05,0.21l-0.09,0.09
				l-0.22,0.04l-0.33-0.02l-0.43-0.05l-0.29-0.02l-0.78,0.05h-0.28l-0.78-0.05l-0.21-0.02l-0.1-0.05l-0.03-0.19v-0.29l0.05-0.73
				l0.02-0.28v-1.29l0.02-1.04v-0.28l0.02-1.02v-0.28l-0.07-1.04l-0.02-0.28v-1.31l-0.04-1.02v-0.24l-0.05-0.14l-0.17-0.03h-0.26
				l-0.55,0.03h-0.31l-0.47-0.03l-0.29-0.02l-0.29,0.02l-0.4,0.02h-0.26l-0.14-0.02l-0.19-0.04l-0.1-0.07l-0.07-0.1l-0.04-0.17
				v-0.12l-0.02-0.28l0.03-0.52v-0.26L193,193.1l0.02-0.28l0.05-0.22l0.07-0.12l0.1-0.05l0.17-0.04h0.4l0.64,0.05h0.28l1-0.07H196
				l1.02,0.09h0.28l1.28-0.09l1,0.02h0.28l1.29-0.02h1.28l0.57-0.04l0.29,0.02l0.14,0.02l0.21,0.03l0.12,0.07l0.09,0.12l0.03,0.21
				v0.12l0.02,0.26L203.86,193.73z"/>
			<path class="st11" d="M216.73,204.36l0.05,0.24l-0.12,0.19l-0.19,0.09l-0.22,0.04H216l-0.4-0.04l-0.26-0.02h-0.78l-1.07,0.07
				l-0.22-0.07l-0.1-0.14l-0.09-0.19l-0.54-1.45l-0.12-0.17l-0.16-0.03l-0.21-0.02l-1.04-0.07h-0.28l-1.3-0.03l-1.04-0.02h-0.26
				l-0.26,0.02h-0.79l-0.22,0.03l-0.14,0.09l-0.1,0.21l-0.4,1.17l-0.1,0.28l-0.19,0.22l-0.26,0.1l-0.28-0.02l-1-0.05h-0.28
				l-1.07,0.07l-0.22,0.02l-0.21-0.1l-0.14-0.19l0.02-0.22l0.03-0.14l0.1-0.28l0.24-0.54l0.1-0.26l0.43-0.97l0.1-0.24l0.45-0.97
				l0.1-0.26l0.4-0.93l0.1-0.26l0.47-0.97l0.1-0.24l0.62-1.42l0.48-1.04l0.12-0.28l0.38-0.78l0.12-0.28l0.33-0.79l0.1-0.26
				l0.31-0.71l0.09-0.19l0.17-0.1l0.26-0.05l0.79-0.04h1.35l0.79,0.02l0.29,0.05l0.19,0.14l0.09,0.22l0.24,0.67l0.1,0.26l0.43,0.81
				l0.1,0.24l0.38,0.85l0.1,0.24l0.31,0.88l0.1,0.24l0.38,0.83l0.1,0.24l0.38,0.85l0.1,0.24l0.35,0.86l0.1,0.24l0.54,1.07l0.42,0.81
				l0.12,0.24l0.47,1.09L216.73,204.36z M210.96,199.49l-0.07-0.22l-0.38-1.17l-0.09-0.26l-0.35-1.02l-0.09-0.22l-0.17-0.12
				l-0.22-0.05l-0.19,0.05l-0.17,0.17l-0.47,1.17l-0.1,0.26l-0.45,1.16l-0.05,0.26l0.05,0.21l0.19,0.09l0.24,0.03h1.09l0.81,0.05
				l0.22-0.07l0.14-0.14L210.96,199.49z"/>
			<path class="st11" d="M226.35,193.73l-0.02,0.26l0.02,0.52l-0.02,0.28l-0.02,0.14l-0.03,0.21l-0.05,0.12l-0.1,0.09l-0.21,0.03
				h-0.28l-0.52-0.05l-0.28-0.02l-0.79,0.05h-0.28l-0.43-0.04h-0.26l-0.12,0.02l-0.17,0.05l-0.07,0.1l-0.02,0.22l-0.07,1.02v0.28
				l0.07,1.04l-0.02,0.28l-0.07,1.04l-0.02,0.28l0.04,1.02v1.59l-0.04,1.02l0.02,0.26l0.09,0.78l0.02,0.28l-0.05,0.21l-0.09,0.09
				l-0.22,0.04l-0.33-0.02l-0.43-0.05l-0.29-0.02l-0.78,0.05h-0.28l-0.78-0.05l-0.21-0.02l-0.1-0.05l-0.03-0.19v-0.29l0.05-0.73
				l0.02-0.28v-1.29l0.02-1.04v-0.28l0.02-1.02v-0.28l-0.07-1.04l-0.02-0.28v-1.31l-0.04-1.02v-0.24l-0.05-0.14l-0.17-0.03h-0.26
				l-0.55,0.03h-0.31l-0.47-0.03l-0.29-0.02l-0.29,0.02l-0.4,0.02h-0.26l-0.14-0.02l-0.19-0.04l-0.1-0.07l-0.07-0.1l-0.04-0.17
				v-0.12l-0.02-0.28l0.03-0.52v-0.26l-0.05-0.66l0.02-0.28l0.05-0.22l0.07-0.12l0.1-0.05l0.17-0.04h0.4l0.64,0.05h0.28l1-0.07h0.28
				l1.02,0.09h0.28l1.28-0.09l1,0.02h0.28l1.29-0.02h1.28l0.57-0.04l0.29,0.02l0.14,0.02l0.21,0.03l0.12,0.07l0.09,0.12l0.03,0.21
				v0.12l0.02,0.26L226.35,193.73z"/>
			<path class="st11" d="M238.57,193.73l-0.02,0.26l0.02,0.52l-0.02,0.28l-0.02,0.14l-0.03,0.21l-0.05,0.12l-0.1,0.09l-0.21,0.03
				h-0.28l-0.52-0.05l-0.28-0.02l-0.79,0.05H236l-0.43-0.04h-0.26l-0.12,0.02l-0.17,0.05l-0.07,0.1l-0.02,0.22l-0.07,1.02v0.28
				l0.07,1.04l-0.02,0.28l-0.07,1.04l-0.02,0.28l0.04,1.02v1.59l-0.04,1.02l0.02,0.26l0.09,0.78l0.02,0.28l-0.05,0.21l-0.09,0.09
				l-0.22,0.04l-0.33-0.02l-0.43-0.05l-0.29-0.02l-0.78,0.05h-0.28l-0.78-0.05l-0.21-0.02l-0.1-0.05l-0.03-0.19v-0.29l0.05-0.73
				l0.02-0.28v-1.29l0.02-1.04v-0.28l0.02-1.02v-0.28l-0.07-1.04l-0.02-0.28v-1.31l-0.04-1.02v-0.24l-0.05-0.14l-0.17-0.03h-0.26
				l-0.55,0.03h-0.31l-0.47-0.03l-0.29-0.02l-0.29,0.02l-0.4,0.02h-0.26l-0.14-0.02l-0.19-0.04l-0.1-0.07l-0.07-0.1l-0.04-0.17
				v-0.12l-0.02-0.28l0.03-0.52v-0.26l-0.05-0.66l0.02-0.28l0.05-0.22l0.07-0.12l0.1-0.05l0.17-0.04h0.4l0.64,0.05h0.28l1-0.07h0.28
				l1.02,0.09h0.28l1.28-0.09l1,0.02h0.28l1.3-0.02h1.28l0.57-0.04l0.29,0.02l0.14,0.02l0.21,0.03l0.12,0.07l0.09,0.12l0.03,0.21
				v0.12l0.02,0.26L238.57,193.73z"/>
			<path class="st11" d="M191.92,220.24l0.02,0.28l0.04,0.43l0.02,0.26l-0.02,0.24l-0.09,0.22l-0.12,0.12l-0.19,0.02l-0.28,0.04
				l-0.93-0.05h-0.28l-0.92,0.07h-0.28l-0.24-0.05l-0.1-0.14l-0.04-0.24l-0.07-1.12l-0.02-0.28l0.03-1.12v-0.28l-0.03-1.11v-0.24
				l-0.07-0.14l-0.19-0.07h-0.42l-0.69,0.05l-0.28,0.02l-1.38-0.04l-0.93-0.05l-0.22,0.02l-0.16,0.05l-0.09,0.16l-0.02,0.24
				l0.02,1.11v0.28l-0.03,1.12l0.02,0.28l0.07,0.74v0.4l-0.07,0.24l-0.16,0.14l-0.22,0.05l-0.26,0.02l-0.26-0.02l-0.72-0.07
				l-0.28-0.02l-0.81,0.05l-0.28-0.02h-0.14l-0.19-0.03l-0.14-0.07l-0.07-0.09l-0.03-0.19l-0.02-0.16v-0.28l0.03-0.52v-1.45
				l0.04-0.92v-0.28l0.02-0.92v-0.28l-0.05-0.92v-0.28l-0.02-0.92v-1.19l0.02-0.28l0.05-0.92l0.02-0.28l-0.02-0.92l-0.02-0.28
				l-0.09-0.59v-0.36l0.07-0.21l0.16-0.12l0.22-0.05l0.26-0.02h0.26l0.73,0.03h0.28l0.69-0.05h0.28l0.26,0.02l0.22,0.03l0.14,0.14
				l0.07,0.22l0.02,0.12v0.26l-0.05,0.78l-0.02,0.28l-0.02,1.12v1.42l0.02,0.21l0.05,0.14l0.09,0.07l0.17,0.02l0.24,0.02h0.24
				l0.66-0.1l0.26-0.02l1.11,0.03l1.02,0.07h0.26l0.12-0.02l0.19-0.1l0.07-0.14l0.02-0.19l0.07-1.12v-0.28l-0.03-1.12v-0.28
				l-0.02-1.12l0.05-0.28l0.14-0.16l0.21-0.04h0.28l0.93,0.05h0.28l0.78-0.05l0.28,0.02h0.16l0.22,0.03l0.14,0.14l0.07,0.24v0.26
				l-0.05,0.69l-0.02,0.28l0.05,0.92v0.28l-0.03,0.92v0.28l0.07,0.92v0.28l-0.07,0.92v0.28l-0.03,0.92v0.28l0.02,0.92v0.28
				l-0.02,0.92V220.24z"/>
			<path class="st11" d="M204.44,220.2l-0.02,0.28l-0.07,0.93l-0.02,0.17l-0.07,0.12l-0.09,0.07l-2.26,0.07h-0.28l-0.92-0.07
				l-0.28,0.02l-0.9,0.07l-0.28,0.02h-1.19l-0.9-0.07h-0.28l-1.49,0.09l-0.59-0.04l-0.21-0.03l-0.12-0.09l-0.05-0.12l-0.03-0.19
				l-0.04-0.4l-0.02-0.28l0.02-0.26v-0.26l0.07-0.92v-0.28l0.02-0.92l-0.02-0.28l-0.05-0.92l-0.02-0.28l0.04-0.93v-1.47l0.07-0.92
				l-0.02-0.28l-0.05-0.92l-0.02-0.28v-0.41l0.03-0.52v-0.26l0.05-0.9l0.02-0.24l0.05-0.14l0.09-0.07l0.14-0.02l0.22-0.03l1.12,0.07
				l1.05-0.02h0.28l1.04,0.07h0.28l1.04-0.07h0.28l2.35,0.03l0.29-0.02l0.59-0.05h0.43l0.24,0.05l0.1,0.09l0.03,0.12l0.03,0.22v0.47
				l-0.03,0.43v0.29l0.02,0.43l0.02,0.26l-0.02,0.26l-0.04,0.21l-0.07,0.12l-0.09,0.07l-0.21,0.03h-0.14l-0.28,0.02l-1.62-0.03
				h-0.28l-0.88,0.03h-0.28l-0.9-0.03l-0.78-0.05h-0.26l-0.14,0.02l-0.17,0.04l-0.09,0.09l-0.02,0.1l-0.03,0.19l-0.04,0.41v0.28
				l0.02,0.29l0.02,0.19l0.03,0.12l0.07,0.09l0.19,0.05l0.55,0.03l0.55-0.03h1.64l1.93-0.1l0.54,0.03l0.19,0.03l0.1,0.09l0.05,0.1
				l0.02,0.19l0.03,0.29l0.02,0.29v0.57l0.03,0.4l-0.03,0.52l-0.04,0.21l-0.07,0.12l-0.12,0.09l-0.17,0.03h-0.35l-0.78-0.09
				l-0.28-0.02l-1.38,0.09l-1.11-0.03h-0.28l-0.69-0.05l-0.29,0.02l-0.21,0.02l-0.09,0.05l-0.05,0.12l-0.02,0.26l-0.05,0.43
				l-0.02,0.28v0.38l0.02,0.17l0.05,0.12l0.07,0.07l0.19,0.02l0.95,0.03h0.28l0.93-0.07l1.23,0.07h0.28l1.23-0.07h0.26l0.26,0.02
				l0.62,0.07l0.1,0.05l0.07,0.1l0.02,0.19L204.44,220.2z"/>
			<path class="st11" d="M216.44,210.72l-0.02,0.26l0.02,0.52l-0.02,0.28l-0.02,0.14l-0.03,0.21l-0.05,0.12l-0.1,0.09l-0.21,0.03
				h-0.28l-0.52-0.05l-0.28-0.02l-0.79,0.05h-0.28l-0.43-0.04h-0.26l-0.12,0.02l-0.17,0.05l-0.07,0.1l-0.02,0.22l-0.07,1.02V214
				l0.07,1.04l-0.02,0.28l-0.07,1.04l-0.02,0.28l0.04,1.02v1.59l-0.04,1.02l0.02,0.26l0.09,0.78l0.02,0.28l-0.05,0.21l-0.09,0.09
				l-0.22,0.04l-0.33-0.02l-0.43-0.05l-0.29-0.02l-0.78,0.05h-0.28l-0.78-0.05l-0.21-0.02l-0.1-0.05l-0.03-0.19v-0.29l0.05-0.73
				l0.02-0.28v-1.29l0.02-1.04v-0.28l0.02-1.02v-0.28l-0.07-1.04l-0.02-0.28v-1.31l-0.04-1.02v-0.24l-0.05-0.14l-0.17-0.04h-0.26
				l-0.55,0.04h-0.31l-0.47-0.04l-0.29-0.02l-0.29,0.02l-0.4,0.02h-0.26l-0.14-0.02l-0.19-0.03l-0.1-0.07l-0.07-0.1l-0.04-0.17
				v-0.12l-0.02-0.28l0.03-0.52v-0.26l-0.05-0.66l0.02-0.28l0.05-0.22l0.07-0.12l0.1-0.05l0.17-0.04h0.4l0.64,0.05h0.28l1-0.07h0.28
				l1.02,0.09h0.28l1.28-0.09l1,0.02h0.28l1.3-0.02h1.28l0.57-0.04l0.29,0.02l0.14,0.02l0.21,0.03l0.12,0.07l0.09,0.12l0.03,0.21
				v0.12l0.02,0.26L216.44,210.72z"/>
			<path class="st11" d="M228.06,220.45l-0.03,1.14l-0.04,0.21l-0.16,0.07l-0.14,0.02h-0.24l-0.66-0.05h-0.26l-1,0.05l-1.28-0.09
				h-0.28l-1,0.05l-0.28,0.02l-1,0.02l-0.28-0.02l-1-0.05l-0.28-0.02h-1l-0.29,0.02l-0.43,0.04l-0.29,0.02h-0.26l-0.16-0.07
				l-0.03-0.21l-0.03-0.69v-0.17l0.07-0.16l0.55-0.78l0.16-0.24l0.52-0.81l0.14-0.24l0.55-0.78l0.14-0.24l0.5-0.83l0.14-0.24
				l0.54-0.81l0.14-0.24l0.69-1l0.59-0.79l0.71-1.02v-0.19l-0.21-0.07l-0.97-0.07h-0.28l-0.97,0.02h-0.28l-0.97,0.05h-0.64
				l-0.57-0.04l-0.19-0.07l-0.07-0.21v-0.14l-0.02-0.29l-0.02-0.59v-0.28l-0.03-1.05l0.09-0.17l0.22-0.02l2.16-0.07h0.28l0.95,0.02
				h0.28l0.93-0.02h0.28l0.95,0.05l1.23-0.07h0.28l1.23,0.07l0.93-0.02l0.22,0.03l0.09,0.19v0.12l0.02,0.29l-0.02,0.16l-0.02,0.19
				l-0.1,0.16l-0.54,0.79l-0.69,1l-0.14,0.24l-0.55,0.78l-0.14,0.24l-0.47,0.83l-0.16,0.22l-0.55,0.78l-0.16,0.22l-0.64,1.04
				l-0.52,0.81l-0.14,0.22l-0.54,0.79l-0.07,0.17l0.05,0.12l0.19,0.05l0.29,0.02h0.29l1.76-0.12h0.28l1.05,0.03h0.28l0.67-0.05h0.26
				l0.14,0.02l0.17,0.07l0.05,0.21V220.45z"/>
			<path class="st11" d="M240,220.2l-0.02,0.28l-0.07,0.93l-0.02,0.17l-0.07,0.12l-0.09,0.07l-2.26,0.07h-0.28l-0.92-0.07
				l-0.28,0.02l-0.9,0.07l-0.28,0.02h-1.19l-0.9-0.07h-0.28l-1.49,0.09l-0.59-0.04l-0.21-0.03l-0.12-0.09l-0.05-0.12l-0.03-0.19
				l-0.04-0.4l-0.02-0.28l0.02-0.26v-0.26l0.07-0.92v-0.28l0.02-0.92l-0.02-0.28l-0.05-0.92l-0.02-0.28l0.04-0.93v-1.47l0.07-0.92
				l-0.02-0.28l-0.05-0.92l-0.02-0.28v-0.41l0.03-0.52v-0.26l0.05-0.9l0.02-0.24l0.05-0.14l0.09-0.07l0.14-0.02l0.22-0.03l1.12,0.07
				l1.05-0.02h0.28l1.04,0.07h0.28l1.04-0.07h0.28l2.35,0.03l0.29-0.02l0.59-0.05h0.43l0.24,0.05l0.1,0.09l0.03,0.12l0.03,0.22v0.47
				l-0.03,0.43v0.29l0.02,0.43l0.02,0.26l-0.02,0.26l-0.04,0.21l-0.07,0.12l-0.09,0.07l-0.21,0.03h-0.14l-0.28,0.02l-1.62-0.03
				h-0.28l-0.88,0.03h-0.28l-0.9-0.03l-0.78-0.05h-0.26l-0.14,0.02l-0.17,0.04l-0.09,0.09l-0.02,0.1l-0.03,0.19l-0.04,0.41v0.28
				l0.02,0.29l0.02,0.19l0.03,0.12l0.07,0.09l0.19,0.05l0.55,0.03l0.55-0.03h1.64l1.93-0.1l0.54,0.03l0.19,0.03l0.1,0.09l0.05,0.1
				l0.02,0.19l0.03,0.29l0.02,0.29v0.57l0.03,0.4l-0.03,0.52l-0.04,0.21l-0.07,0.12l-0.12,0.09l-0.17,0.03h-0.35l-0.78-0.09
				l-0.28-0.02l-1.38,0.09l-1.11-0.03h-0.28l-0.69-0.05l-0.29,0.02l-0.21,0.02l-0.09,0.05l-0.05,0.12l-0.02,0.26l-0.05,0.43
				l-0.02,0.28v0.38l0.02,0.17l0.05,0.12l0.07,0.07l0.19,0.02l0.95,0.03h0.28l0.93-0.07l1.23,0.07h0.28l1.23-0.07h0.26l0.26,0.02
				l0.62,0.07l0.1,0.05l0.07,0.1l0.02,0.19L240,220.2z"/>
		</g>
	</g>
	<g>
		<path class="st10" d="M362.51,120.22c-1.16-0.57-5.37,8.44-16.48,12.34c-1.46,0.51,2.34,2.52,2.34,2.52s0.42,5.76-3.42,8.17
			c-3.65,2.28-11.49,5.71-13.44-0.26l-0.96-39.78h26.11v-5.1h-26.24l-0.12-4.84c3.27-1.5,5.53-4.8,5.53-8.62
			c0-5.24-4.25-9.49-9.49-9.49c-5.24,0-9.49,4.25-9.49,9.49c0,3.77,2.2,7.03,5.39,8.56l-0.11,4.9h-26.11v5.1h26l-0.86,40.15
			c-0.82,1.34-2.44,2.98-5.42,2.84c-4.98-0.24-10.27-4.52-10.93-6.91c-1.14-4.14,3-5.82,1.35-6.71
			c-1.74-0.94-11.56-6.03-15.49-11.79c-1.68-2.46-3.4,11.96,3.27,21.28c0.72,1.01,2.7-1.59,3.61-1.46s1.32,4.8,11.83,11.53
			c2.46,1.57,8.58,3.79,11.95,5.28c3.88,1.72,4.87,2.6,4.87,2.6s4.74-3.08,8.34-3.5c3.6-0.42,15.17-7.75,20.4-15.1
			c0.85-1.23,1.76,0.67,3.38,0.26C362.61,140.61,365.31,121.58,362.51,120.22z M326.36,81.01c1.92,0,3.47,1.56,3.47,3.47
			c0,1.92-1.56,3.47-3.47,3.47c-1.92,0-3.47-1.56-3.47-3.47C322.89,82.56,324.44,81.01,326.36,81.01z"/>
		<g>
			<path class="st10" d="M284.46,186.55l0.02,0.28l0.04,0.43l0.02,0.26l-0.02,0.24l-0.09,0.22l-0.12,0.12l-0.19,0.02l-0.28,0.04
				l-0.93-0.05h-0.28l-0.92,0.07h-0.28l-0.24-0.05l-0.1-0.14l-0.04-0.24l-0.07-1.12l-0.02-0.28l0.03-1.12v-0.28l-0.03-1.11v-0.24
				l-0.07-0.14l-0.19-0.07h-0.42l-0.69,0.05l-0.28,0.02l-1.38-0.04l-0.93-0.05l-0.22,0.02l-0.16,0.05l-0.09,0.16l-0.02,0.24
				l0.02,1.11v0.28l-0.04,1.12l0.02,0.28l0.07,0.74v0.4l-0.07,0.24l-0.16,0.14l-0.22,0.05l-0.26,0.02l-0.26-0.02l-0.72-0.07
				l-0.28-0.02l-0.81,0.05l-0.28-0.02h-0.14l-0.19-0.03l-0.14-0.07l-0.07-0.09l-0.03-0.19l-0.02-0.16v-0.28l0.03-0.52v-1.45
				l0.04-0.92v-0.28l0.02-0.92v-0.28l-0.05-0.92v-0.28l-0.02-0.92v-1.19l0.02-0.28l0.05-0.92l0.02-0.28l-0.02-0.92l-0.02-0.28
				l-0.09-0.59v-0.36l0.07-0.21l0.16-0.12l0.22-0.05l0.26-0.02h0.26l0.73,0.03h0.28l0.69-0.05h0.28l0.26,0.02l0.22,0.03l0.14,0.14
				l0.07,0.22l0.02,0.12v0.26l-0.05,0.78l-0.02,0.28l-0.02,1.12v1.42l0.02,0.21l0.05,0.14l0.09,0.07l0.17,0.02l0.24,0.02h0.24
				l0.66-0.1l0.26-0.02l1.11,0.03l1.02,0.07h0.26l0.12-0.02l0.19-0.1l0.07-0.14l0.02-0.19l0.07-1.12v-0.28l-0.03-1.12v-0.28
				l-0.02-1.12l0.05-0.28l0.14-0.16l0.21-0.04h0.28l0.93,0.05h0.28l0.78-0.05l0.28,0.02h0.16l0.22,0.03l0.14,0.14l0.07,0.24v0.26
				l-0.05,0.69l-0.02,0.28l0.05,0.92v0.28l-0.04,0.92v0.28l0.07,0.92v0.28l-0.07,0.92v0.28l-0.03,0.92v0.28l0.02,0.92v0.28
				l-0.02,0.92V186.55z"/>
			<path class="st10" d="M300.28,181.76l-0.02,0.28l-0.03,0.4l-0.04,0.26l-0.1,0.52l-0.03,0.4l-0.04,0.26l-0.05,0.28l-0.07,0.26
				l-0.17,0.36l-0.12,0.24l-0.47,0.78l-0.16,0.22l-0.17,0.22l-0.17,0.19l-0.28,0.29l-0.19,0.17l-0.22,0.17l-0.21,0.16l-0.31,0.21
				l-0.22,0.14l-0.26,0.14l-0.24,0.1l-0.34,0.14l-0.26,0.07l-0.55,0.17l-0.29,0.09l-0.28,0.07l-0.29,0.07l-0.29,0.05l-0.29,0.02
				h-0.93l-0.59-0.04l-0.57-0.07l-0.24-0.05l-0.26-0.07l-0.93-0.31l-0.28-0.09l-0.29-0.12l-0.55-0.24l-0.26-0.14l-0.26-0.16
				l-0.22-0.17l-0.22-0.19l-0.21-0.22l-0.19-0.22l-0.47-0.47l-0.17-0.21l-0.17-0.22l-0.14-0.22l-0.14-0.35l-0.26-0.78l-0.1-0.36
				l-0.05-0.26l-0.05-0.28l-0.05-0.26l-0.05-0.38l-0.02-0.26l-0.02-0.29v-0.29l0.02-0.29l0.02-0.31l0.04-0.29l0.05-0.29l0.07-0.29
				l0.09-0.29l0.09-0.26l0.1-0.28l0.12-0.4l0.12-0.28l0.07-0.16l0.14-0.26l0.24-0.38l0.17-0.24l0.09-0.14l0.21-0.21l0.29-0.24
				l0.22-0.17l0.22-0.16l0.52-0.35l0.22-0.14l0.24-0.14l0.24-0.12l0.36-0.16l0.24-0.09l0.26-0.09l0.26-0.07l0.66-0.12l0.26-0.05
				l0.86-0.1l0.55-0.03l0.52,0.03l0.42,0.02l0.29,0.03l0.29,0.05l0.29,0.07l0.29,0.05l0.28,0.07l0.26,0.07l0.26,0.09l0.36,0.14
				l0.24,0.1l0.57,0.33l0.22,0.16l0.22,0.17l0.29,0.28l0.19,0.17l0.19,0.19l0.16,0.21l0.24,0.33l0.14,0.22l0.12,0.22l0.14,0.22
				l0.19,0.34l0.14,0.22l0.12,0.26l0.09,0.24l0.09,0.4l0.1,0.52l0.03,0.29l0.05,0.29L300.28,181.76z M296.06,184.01l0.16-0.24
				l0.17-0.38l0.1-0.26l0.09-0.4l0.03-0.26l0.03-0.42v-0.29l-0.02-0.29l-0.02-0.28l-0.1-0.52l-0.07-0.24l-0.19-0.38l-0.14-0.22
				l-0.24-0.31l-0.17-0.19l-0.26-0.28l-0.19-0.16l-0.45-0.26l-0.24-0.1l-0.28-0.09l-0.28-0.05l-0.55-0.03l-0.26,0.02l-0.38,0.02
				l-0.26,0.05l-0.45,0.12l-0.28,0.1l-0.4,0.21l-0.24,0.16l-0.28,0.24l-0.19,0.21l-0.19,0.26l-0.14,0.22l-0.05,0.1l-0.16,0.36
				l-0.09,0.26l-0.05,0.12l-0.05,0.24l-0.04,0.24l-0.02,0.24l-0.02,0.26v0.26l0.02,0.28l0.05,0.28l0.02,0.16l0.07,0.26l0.03,0.12
				l0.09,0.24l0.07,0.14l0.14,0.24l0.09,0.14l0.19,0.24l0.1,0.12l0.21,0.21l0.35,0.29l0.24,0.16l0.28,0.14l0.26,0.1l0.36,0.12
				l0.26,0.05l0.43,0.05l0.29,0.02l0.43-0.03l0.28-0.03l0.38-0.09l0.24-0.1l0.38-0.24l0.21-0.16l0.28-0.28l0.17-0.19L296.06,184.01z
				"/>
			<path class="st10" d="M311.59,177.7l0.02,0.28l-0.02,0.26l-0.02,0.19l-0.05,0.12l-0.1,0.09l-0.19,0.05h-0.36l-0.52-0.07
				l-0.28-0.02h-1.12l-1.97,0.07l-0.78-0.05h-0.38l-0.17,0.05l-0.07,0.12l-0.02,0.24l-0.04,1.54l0.02,0.19l0.02,0.1l0.09,0.07
				l0.21,0.05h0.45l0.59-0.05l0.28-0.02l1.04,0.03h1.31l0.26-0.02l0.66-0.05h0.41l0.19,0.04l0.1,0.09l0.07,0.14l0.03,0.21l0.02,0.14
				l0.02,0.26l-0.03,0.52v0.26l0.02,0.4l-0.02,0.26l-0.02,0.28l-0.03,0.21l-0.05,0.14l-0.09,0.07l-0.21,0.05h-0.41l-0.64-0.09
				l-0.28-0.02l-1.04,0.03h-0.28l-1.87-0.03l-0.26,0.02l-0.24,0.03l-0.17,0.05l-0.07,0.1v0.22l-0.02,0.99v0.28l-0.07,0.97v0.28
				l0.02,0.38l-0.02,0.28l-0.02,0.29l-0.02,0.21l-0.05,0.1l-0.1,0.05l-0.19,0.04l-0.29,0.03l-0.28,0.02l-0.64-0.02h-0.28l-0.71,0.05
				l-0.52-0.03l-0.19-0.04l-0.1-0.07l-0.03-0.12l-0.02-0.19l-0.05-0.92l-0.02-0.28l-0.02-0.92l0.02-0.28l0.07-0.92l0.02-0.28
				l-0.05-0.92v-0.28l-0.05-0.93v-0.28l0.03-0.92v-1.47l0.03-0.92v-1.47l0.04-0.92l0.02-0.21l0.04-0.12l0.1-0.05l0.17-0.03h0.38
				l0.66,0.05h0.28l1.02-0.05h0.28l1,0.05h0.28l1.02-0.05l0.28-0.02l1.02,0.05h0.28l1.02-0.05h0.28l0.43,0.02l0.28,0.02l0.29,0.04
				l0.19,0.02l0.1,0.05l0.07,0.1l0.02,0.19l0.02,0.16v0.26l-0.04,0.52v0.28L311.59,177.7z"/>
			<path class="st10" d="M323.21,177.7l0.02,0.28l-0.02,0.26l-0.02,0.19l-0.05,0.12l-0.1,0.09l-0.19,0.05h-0.36l-0.52-0.07
				l-0.28-0.02h-1.12l-1.97,0.07l-0.78-0.05h-0.38l-0.17,0.05l-0.07,0.12l-0.02,0.24l-0.04,1.54l0.02,0.19l0.02,0.1l0.09,0.07
				l0.21,0.05h0.45l0.59-0.05l0.28-0.02l1.04,0.03h1.31l0.26-0.02l0.66-0.05h0.41l0.19,0.04l0.1,0.09l0.07,0.14l0.03,0.21l0.02,0.14
				l0.02,0.26l-0.03,0.52v0.26l0.02,0.4l-0.02,0.26l-0.02,0.28l-0.03,0.21l-0.05,0.14l-0.09,0.07l-0.21,0.05h-0.41l-0.64-0.09
				l-0.28-0.02l-1.04,0.03h-0.28l-1.87-0.03l-0.26,0.02l-0.24,0.03l-0.17,0.05l-0.07,0.1v0.22l-0.02,0.99v0.28l-0.07,0.97v0.28
				l0.02,0.38l-0.02,0.28l-0.02,0.29l-0.02,0.21l-0.05,0.1l-0.1,0.05l-0.19,0.04l-0.29,0.03l-0.28,0.02l-0.64-0.02h-0.28l-0.71,0.05
				l-0.52-0.03l-0.19-0.04l-0.1-0.07l-0.03-0.12l-0.02-0.19l-0.05-0.92l-0.02-0.28l-0.02-0.92l0.02-0.28l0.07-0.92l0.02-0.28
				l-0.05-0.92v-0.28l-0.05-0.93v-0.28l0.03-0.92v-1.47l0.03-0.92v-1.47l0.04-0.92l0.02-0.21l0.04-0.12l0.1-0.05l0.17-0.03h0.38
				l0.66,0.05h0.28l1.02-0.05h0.28l1,0.05h0.28l1.02-0.05l0.28-0.02l1.02,0.05h0.28l1.02-0.05h0.28l0.43,0.02l0.28,0.02l0.29,0.04
				l0.19,0.02l0.1,0.05l0.07,0.1l0.02,0.19l0.02,0.16v0.26l-0.04,0.52v0.28L323.21,177.7z"/>
			<path class="st10" d="M336.98,178.38l-0.02,0.28v2.56l0.05,1v0.28l0.04,2.28v0.29l-0.02,0.14l-0.02,0.29l-0.05,0.83l0.02,1
				l-0.02,0.24l-0.07,0.21l-0.14,0.19l-0.17,0.12l-0.16,0.05l-0.24,0.02l-0.88,0.03l-0.28,0.02l-0.43,0.02h-0.28l-0.22-0.05
				l-0.21-0.09l-0.21-0.16l-0.16-0.22l-0.26-0.5l-0.16-0.22l-0.67-0.85l-0.17-0.21l-0.67-0.83l-0.16-0.22l-0.6-0.9l-0.16-0.21
				l-0.67-0.83l-0.17-0.21l-0.64-0.85l-0.16-0.14l-0.12,0.05l-0.05,0.21l-0.03,0.86v0.28l0.02,0.86v0.28l0.02,0.97v0.28l-0.05,0.97
				l0.02,0.28l0.1,0.69l0.02,0.28l-0.05,0.22l-0.12,0.12l-0.12,0.03l-0.21,0.04l-0.14,0.02l-0.29,0.02l-0.79-0.02h-0.28l-0.71,0.04
				h-0.28l-0.26-0.02l-0.19-0.03l-0.14-0.09l-0.07-0.12l-0.03-0.17l-0.02-0.12v-0.26l0.04-0.57l0.02-0.28l-0.05-0.92v-0.28
				l0.04-2.11l0.02-0.28l0.05-0.92l0.02-0.28v-1.19l-0.07-0.92v-0.28l0.07-0.92l-0.02-0.28l-0.07-0.93l-0.02-0.28v-0.4l0.02-0.26
				l0.03-0.26l0.03-0.19l0.05-0.12l0.1-0.05l0.19-0.04l0.52-0.03l0.52,0.03h1.3l0.21,0.02l0.09,0.07l0.1,0.16l0.73,0.78l0.17,0.21
				l0.64,0.83l0.17,0.21l0.64,0.85l0.17,0.21l0.62,0.86l0.16,0.21l0.66,0.83l0.17,0.21l0.62,0.86l0.14,0.12l0.14,0.02l0.12-0.09
				v-0.19l-0.12-0.73l-0.02-0.28l0.05-0.74v-0.28l-0.07-1.05v-0.28l0.07-1.05l-0.02-0.28l-0.05-0.64v-0.43l0.05-0.22l0.07-0.14
				l0.12-0.07l0.21-0.03h0.16l0.29-0.02l0.78,0.05h0.28l0.59-0.03l0.26,0.02l0.4,0.02l0.19,0.03l0.12,0.05l0.1,0.12l0.03,0.24
				l0.02,0.16l0.02,0.29l-0.04,0.54l-0.03,0.28L336.98,178.38z"/>
			<path class="st10" d="M351.04,182.06l0.04,0.55l-0.02,0.26l-0.02,0.4l-0.03,0.26l-0.07,0.42l-0.05,0.28l-0.07,0.4l-0.07,0.26
				l-0.14,0.36l-0.09,0.24l-0.16,0.36l-0.12,0.24l-0.22,0.35l-0.17,0.22l-0.21,0.22l-0.22,0.19l-0.35,0.28l-0.22,0.16l-0.35,0.21
				l-0.22,0.12l-0.36,0.17l-0.26,0.09l-0.38,0.14l-0.26,0.07l-0.4,0.07l-0.26,0.05l-0.54,0.03h-0.79l-0.4-0.03l-0.26-0.02l-0.95-0.1
				l-0.28-0.05l-0.16-0.02l-0.28-0.09l-0.14-0.05l-0.28-0.12l-0.38-0.17l-0.26-0.16l-0.26-0.17l-0.45-0.38l-0.19-0.19l-0.22-0.29
				l-0.16-0.21l-0.28-0.45l-0.16-0.24l-0.14-0.26l-0.12-0.28l-0.1-0.26l-0.07-0.24l-0.07-0.26l-0.07-0.38l-0.05-0.29l-0.03-0.29
				l-0.04-0.59l-0.02-0.28l0.05-1.05v-0.28l-0.04-1.05v-0.28l0.05-1.05v-1.61l-0.03-0.55v-0.29l0.02-0.29l0.05-0.28l0.12-0.16
				l0.22-0.05l0.57-0.03l0.66,0.05h0.28l0.57-0.02l0.26,0.02l0.4,0.02l0.22,0.05l0.14,0.14l0.05,0.22l0.02,0.24v0.26l-0.03,0.67
				v0.28l0.05,1.05v0.28l-0.02,1.05v0.28l-0.05,1.05v0.28l-0.02,1.05l0.02,0.28l0.04,0.43l0.05,0.28l0.1,0.38l0.1,0.26l0.17,0.4
				l0.17,0.21l0.28,0.29l0.22,0.14l0.38,0.14l0.26,0.07l0.45,0.03h0.28l0.45-0.09l0.26-0.07l0.33-0.16l0.22-0.14l0.28-0.24
				l0.17-0.21l0.19-0.36l0.12-0.26l0.09-0.28l0.05-0.28l0.07-0.52l0.02-0.28l-0.07-1.05v-0.28l0.05-1.07v-0.28l0.03-1.05v-0.28
				l-0.03-1.07l-0.02-0.28l-0.05-0.73v-0.43l0.07-0.24l0.16-0.14l0.22-0.05h0.36l0.88,0.07h0.28l0.69-0.05h0.28l0.26,0.02l0.22,0.05
				l0.14,0.12l0.02,0.21l0.02,0.52v0.26l-0.02,0.4v0.28l0.05,1.07v0.28l-0.03,1.05v0.28l-0.07,1.07L351.04,182.06z"/>
			<path class="st10" d="M365.04,178.38l-0.02,0.28v2.56l0.05,1v0.28l0.04,2.28v0.29l-0.02,0.14l-0.02,0.29l-0.05,0.83l0.02,1
				l-0.02,0.24l-0.07,0.21l-0.14,0.19l-0.17,0.12l-0.16,0.05l-0.24,0.02l-0.88,0.03l-0.28,0.02l-0.43,0.02h-0.28l-0.22-0.05
				l-0.21-0.09l-0.21-0.16l-0.16-0.22l-0.26-0.5l-0.16-0.22l-0.67-0.85l-0.17-0.21l-0.67-0.83l-0.16-0.22l-0.6-0.9l-0.16-0.21
				l-0.67-0.83l-0.17-0.21l-0.64-0.85l-0.16-0.14l-0.12,0.05l-0.05,0.21l-0.03,0.86v0.28l0.02,0.86v0.28l0.02,0.97v0.28l-0.05,0.97
				l0.02,0.28l0.1,0.69l0.02,0.28l-0.05,0.22l-0.12,0.12l-0.12,0.03l-0.21,0.04l-0.14,0.02l-0.29,0.02l-0.79-0.02h-0.28l-0.71,0.04
				h-0.28l-0.26-0.02l-0.19-0.03l-0.14-0.09l-0.07-0.12l-0.03-0.17l-0.02-0.12v-0.26l0.04-0.57l0.02-0.28l-0.05-0.92v-0.28
				l0.04-2.11l0.02-0.28l0.05-0.92l0.02-0.28v-1.19l-0.07-0.92v-0.28l0.07-0.92l-0.02-0.28l-0.07-0.93l-0.02-0.28v-0.4l0.02-0.26
				l0.03-0.26l0.03-0.19l0.05-0.12l0.1-0.05l0.19-0.04l0.52-0.03l0.52,0.03h1.3l0.21,0.02l0.09,0.07l0.1,0.16l0.73,0.78l0.17,0.21
				l0.64,0.83l0.17,0.21l0.64,0.85l0.17,0.21l0.62,0.86l0.16,0.21l0.66,0.83l0.17,0.21l0.62,0.86l0.14,0.12l0.14,0.02l0.12-0.09
				v-0.19l-0.12-0.73l-0.02-0.28l0.05-0.74v-0.28l-0.07-1.05v-0.28l0.07-1.05l-0.02-0.28l-0.05-0.64v-0.43l0.05-0.22l0.07-0.14
				l0.12-0.07l0.21-0.03h0.16l0.29-0.02l0.78,0.05h0.28l0.59-0.03l0.26,0.02l0.4,0.02l0.19,0.03l0.12,0.05l0.1,0.12l0.03,0.24
				l0.02,0.16l0.02,0.29l-0.04,0.54l-0.03,0.28L365.04,178.38z"/>
			<path class="st10" d="M379.26,181.05l0.02,0.29l-0.07,1.12v1.62l-0.03,0.73v1.02l-0.02,0.19l-0.1,0.17l-0.14,0.22l-0.16,0.22
				l-0.29,0.29l-0.21,0.19l-0.1,0.1l-0.22,0.16l-0.12,0.07l-0.22,0.14l-0.35,0.17l-0.26,0.1l-0.24,0.09l-0.4,0.12l-0.26,0.07
				l-0.28,0.05l-0.26,0.05l-0.4,0.05l-0.24,0.03l-0.26,0.05l-0.69,0.09l-0.26,0.02l-0.54-0.03l-0.4-0.03l-0.28-0.04l-0.28-0.05
				l-0.26-0.07l-0.61-0.17l-0.26-0.07l-0.26-0.09l-0.35-0.12l-0.22-0.12l-0.35-0.19l-0.21-0.16l-0.22-0.16l-0.21-0.17l-0.21-0.16
				l-0.19-0.17l-0.28-0.28l-0.17-0.21l-0.19-0.26l-0.16-0.24l-0.43-0.78l-0.12-0.28l-0.12-0.26l-0.09-0.28l-0.09-0.29l-0.05-0.28
				l-0.05-0.29l-0.04-0.28l-0.07-0.38l-0.04-0.28l-0.02-0.26v-0.26l0.05-0.78l0.03-0.14l0.05-0.29l0.07-0.29l0.09-0.28l0.09-0.29
				l0.09-0.28l0.09-0.26l0.12-0.28l0.12-0.29l0.12-0.24l0.22-0.31l0.16-0.21l0.19-0.22l0.19-0.21l0.21-0.19l0.45-0.38l0.22-0.17
				l0.21-0.16l0.21-0.14l0.57-0.33l0.26-0.16l0.29-0.12l0.29-0.09l0.28-0.07l0.64-0.1l0.5-0.07l0.26-0.05l0.26-0.03l0.4-0.04
				l0.28-0.02l0.38,0.03l0.26,0.02l0.4,0.05l0.24,0.05l0.38,0.07l0.26,0.07l0.38,0.12l0.26,0.09l0.62,0.31l0.26,0.16l0.22,0.16
				l0.09,0.05l0.19,0.12l0.19,0.14l0.09,0.09l0.19,0.14l0.1,0.09l0.1,0.12v0.12l-0.05,0.12l-0.1,0.16l-0.16,0.22l-0.17,0.19
				l-0.48,0.48l-0.31,0.28l-0.21,0.17l-0.19,0.14l-0.14,0.1l-0.1,0.07l-0.14,0.02l-0.19-0.12l-0.22-0.16l-0.22-0.14l-0.24-0.14
				l-0.28-0.12l-0.28-0.1l-0.29-0.07l-0.29-0.05l-0.81-0.05h-0.12l-0.28,0.02l-0.45,0.04l-0.28,0.07l-0.52,0.24l-0.22,0.16
				l-0.22,0.17l-0.19,0.19l-0.17,0.22l-0.16,0.22l-0.14,0.24l-0.1,0.26l-0.09,0.28l-0.07,0.26l-0.1,0.52l-0.05,0.28l-0.02,0.29v0.29
				l0.03,0.41l0.05,0.28l0.09,0.4l0.09,0.28l0.17,0.41l0.12,0.24l0.21,0.31l0.17,0.21l0.31,0.29l0.22,0.17l0.35,0.19l0.26,0.1
				l0.52,0.12l0.29,0.03l0.29,0.02h0.28l0.28-0.04l0.26-0.05l0.93-0.22l0.28-0.1l0.26-0.12l0.17-0.12l0.05-0.1v-0.19l0.02-0.16
				v-0.26l-0.03-0.52v-0.29l-0.07-0.1l-0.19-0.03h-0.42l-0.28,0.02l-0.4,0.05l-0.28,0.02h-0.4l-0.28-0.02l-0.59-0.1l-0.1-0.03
				l-0.07-0.09l-0.03-0.21l-0.02-0.14l-0.02-0.28l0.02-0.43l-0.03-0.52l-0.04-0.26v-0.36l0.05-0.19l0.09-0.09l0.21-0.03l0.43-0.05
				l0.29-0.02h0.79l1.12-0.05l1.38,0.09h0.28l0.71-0.09l0.28-0.02l0.14,0.02l0.26,0.05l0.12,0.07l0.04,0.1l0.05,0.24L379.26,181.05z
				"/>
			<path class="st10" d="M308.64,201.25l-0.02,0.29l-0.04,0.29l-0.05,0.28l-0.09,0.38l-0.09,0.24l-0.16,0.35l-0.12,0.22l-0.21,0.31
				l-0.17,0.21l-0.21,0.21l-0.21,0.19l-0.35,0.22l-0.22,0.16l-0.26,0.14l-0.24,0.12l-0.4,0.14l-0.52,0.17l-0.28,0.05l-0.43,0.07
				l-0.26,0.03l-0.38,0.04l-0.24,0.02l-0.4,0.02l-0.83,0.05h-0.38l-0.24-0.02l-0.4-0.03l-0.26-0.03l-0.29-0.05l-0.26-0.09
				l-0.38-0.12l-0.24-0.12l-0.26-0.12l-0.24-0.12l-0.22-0.14l-0.55-0.38l-0.21-0.17l-0.31-0.24l-0.21-0.17l-0.19-0.19l-0.14-0.16
				l-0.02-0.12l0.09-0.16l0.07-0.09l0.17-0.19l0.48-0.45l0.16-0.19l0.29-0.45l0.16-0.19l0.17-0.19l0.19-0.1l0.19,0.03l0.19,0.14
				l0.55,0.38l0.26,0.14l0.24,0.12l0.4,0.19l0.26,0.09l0.28,0.09l0.28,0.05l0.4,0.02l0.28,0.02l1.09-0.07l0.28-0.03l0.14-0.04
				l0.26-0.1l0.22-0.14l0.17-0.17l0.09-0.12l0.1-0.26l-0.02-0.29l-0.03-0.14l-0.14-0.24l-0.09-0.1l-0.22-0.17l-0.14-0.05l-0.26-0.1
				l-0.29-0.07l-0.29-0.05l-1.64-0.16l-0.52-0.1l-0.28-0.07l-0.38-0.14l-0.26-0.09l-0.26-0.12l-0.59-0.29l-0.22-0.16l-0.26-0.16
				l-0.22-0.16l-0.29-0.24l-0.16-0.22l-0.16-0.26l-0.1-0.26l-0.12-0.36l-0.05-0.26l-0.05-0.38l-0.03-0.55l0.02-0.28l0.03-0.42
				l0.05-0.26l0.07-0.22l0.09-0.26l0.17-0.38l0.12-0.24l0.14-0.21l0.17-0.19l0.28-0.26l0.22-0.17l0.22-0.16l0.24-0.12l0.33-0.19
				l0.52-0.21l0.26-0.09l0.4-0.07l0.28-0.05l0.52-0.07l0.38-0.07l0.28-0.03l0.26-0.02h0.28l0.52,0.05l0.26,0.04l0.12,0.03l0.28,0.03
				l0.59,0.1l0.29,0.07l0.28,0.09l0.29,0.09l0.28,0.1l0.26,0.12l0.26,0.1l0.33,0.19l0.24,0.12l0.22,0.16l0.16,0.16v0.17l-0.1,0.19
				l-0.19,0.35l-0.14,0.21l-0.66,0.86l-0.19,0.24l-0.21,0.17l-0.14,0.05l-0.12-0.02l-0.17-0.09l-0.26-0.16l-0.26-0.1l-0.12-0.05
				l-0.26-0.09l-0.14-0.03l-0.29-0.07l-0.4-0.09l-0.28-0.02l-0.45-0.03h-0.45l-0.29,0.02l-0.29,0.05l-0.28,0.09l-0.1,0.05
				l-0.21,0.16l-0.09,0.1l-0.12,0.24l-0.04,0.28l0.05,0.22l0.14,0.22l0.19,0.17l0.21,0.1l0.12,0.05l0.26,0.05l0.43,0.05l0.59,0.03
				l0.29,0.05l0.59,0.14l0.55,0.17l0.4,0.09l0.26,0.07l0.48,0.17l0.35,0.16l0.24,0.12l0.24,0.14l0.22,0.14l0.5,0.41l0.19,0.21
				l0.17,0.21l0.21,0.31l0.14,0.22l0.12,0.26l0.07,0.26l0.07,0.38l0.04,0.26L308.64,201.25z"/>
			<path class="st10" d="M319.78,194.02l-0.02,0.26l0.02,0.52l-0.02,0.28l-0.02,0.14l-0.03,0.21l-0.05,0.12l-0.1,0.09l-0.21,0.03
				h-0.28l-0.52-0.05l-0.28-0.02l-0.79,0.05h-0.28l-0.43-0.04h-0.26l-0.12,0.02l-0.17,0.05l-0.07,0.1l-0.02,0.22l-0.07,1.02v0.28
				l0.07,1.04l-0.02,0.28l-0.07,1.04l-0.02,0.28l0.04,1.02v1.59l-0.04,1.02l0.02,0.26l0.09,0.78l0.02,0.28l-0.05,0.21l-0.09,0.09
				l-0.22,0.04l-0.33-0.02l-0.43-0.05l-0.29-0.02l-0.78,0.05h-0.28l-0.78-0.05l-0.21-0.02l-0.1-0.05l-0.03-0.19v-0.29l0.05-0.73
				l0.02-0.28v-1.29l0.02-1.04v-0.28l0.02-1.02v-0.28l-0.07-1.04l-0.02-0.28v-1.31l-0.04-1.02v-0.24l-0.05-0.14l-0.17-0.03h-0.26
				l-0.55,0.03h-0.31l-0.47-0.03l-0.29-0.02l-0.29,0.02l-0.4,0.02h-0.26l-0.14-0.02l-0.19-0.04l-0.1-0.07l-0.07-0.1l-0.04-0.17
				v-0.12l-0.02-0.28l0.03-0.52v-0.26l-0.05-0.66l0.02-0.28l0.05-0.22l0.07-0.12l0.1-0.05l0.17-0.04h0.4l0.64,0.05h0.28l1-0.07h0.28
				l1.02,0.09h0.28l1.28-0.09l1,0.02h0.28l1.29-0.02h1.28l0.57-0.04l0.29,0.02l0.14,0.02l0.21,0.03l0.12,0.07l0.09,0.12l0.03,0.21
				v0.12l0.02,0.26L319.78,194.02z"/>
			<path class="st10" d="M332.65,204.64l0.05,0.24l-0.12,0.19l-0.19,0.09l-0.22,0.04h-0.24l-0.4-0.04l-0.26-0.02h-0.78l-1.07,0.07
				l-0.22-0.07l-0.1-0.14l-0.09-0.19l-0.54-1.45l-0.12-0.17l-0.16-0.03l-0.21-0.02l-1.04-0.07h-0.28l-1.3-0.03l-1.04-0.02h-0.26
				l-0.26,0.02h-0.79l-0.22,0.03l-0.14,0.09l-0.1,0.21l-0.4,1.17l-0.1,0.28l-0.19,0.22l-0.26,0.1l-0.28-0.02l-1-0.05h-0.28
				l-1.07,0.07l-0.22,0.02l-0.21-0.1l-0.14-0.19l0.02-0.22l0.03-0.14l0.1-0.28l0.24-0.54l0.1-0.26l0.43-0.97l0.1-0.24l0.45-0.97
				L320,201l0.4-0.93l0.1-0.26l0.47-0.97l0.1-0.24l0.62-1.42l0.48-1.04l0.12-0.28l0.38-0.78l0.12-0.28l0.33-0.79l0.1-0.26l0.31-0.71
				l0.09-0.19l0.17-0.1l0.26-0.05l0.79-0.04h1.35l0.79,0.02l0.29,0.05l0.19,0.14l0.09,0.22l0.24,0.67l0.1,0.26l0.43,0.81l0.1,0.24
				l0.38,0.85l0.1,0.24l0.31,0.88l0.1,0.24l0.38,0.83l0.1,0.24l0.38,0.85l0.1,0.24l0.35,0.86l0.1,0.24l0.54,1.07l0.42,0.81
				l0.12,0.24l0.47,1.09L332.65,204.64z M326.88,199.77l-0.07-0.22l-0.38-1.17l-0.09-0.26l-0.35-1.02l-0.09-0.22l-0.17-0.12
				l-0.22-0.05l-0.19,0.05l-0.17,0.17l-0.47,1.17l-0.1,0.26l-0.45,1.16l-0.05,0.26l0.05,0.21l0.19,0.09l0.24,0.03h1.09l0.81,0.05
				l0.22-0.07l0.14-0.14L326.88,199.77z"/>
			<path class="st10" d="M342.26,194.02l-0.02,0.26l0.02,0.52l-0.02,0.28l-0.02,0.14l-0.03,0.21l-0.05,0.12l-0.1,0.09l-0.21,0.03
				h-0.28l-0.52-0.05l-0.28-0.02l-0.79,0.05h-0.28l-0.43-0.04H339l-0.12,0.02l-0.17,0.05l-0.07,0.1l-0.02,0.22l-0.07,1.02v0.28
				l0.07,1.04l-0.02,0.28l-0.07,1.04l-0.02,0.28l0.04,1.02v1.59l-0.04,1.02l0.02,0.26l0.09,0.78l0.02,0.28l-0.05,0.21l-0.09,0.09
				l-0.22,0.04l-0.33-0.02l-0.43-0.05l-0.29-0.02l-0.78,0.05h-0.28l-0.78-0.05l-0.21-0.02l-0.1-0.05l-0.03-0.19v-0.29l0.05-0.73
				l0.02-0.28v-1.29l0.02-1.04v-0.28l0.02-1.02v-0.28l-0.07-1.04l-0.02-0.28v-1.31l-0.04-1.02v-0.24l-0.05-0.14l-0.17-0.03h-0.26
				l-0.55,0.03h-0.31l-0.47-0.03l-0.29-0.02l-0.29,0.02l-0.4,0.02h-0.26l-0.14-0.02l-0.19-0.04l-0.1-0.07l-0.07-0.1l-0.04-0.17
				v-0.12l-0.02-0.28l0.03-0.52v-0.26l-0.05-0.66l0.02-0.28l0.05-0.22l0.07-0.12l0.1-0.05l0.17-0.04h0.4l0.64,0.05h0.28l1-0.07h0.28
				l1.02,0.09h0.28l1.28-0.09l1,0.02h0.28l1.29-0.02h1.28l0.57-0.04l0.29,0.02l0.14,0.02l0.21,0.03l0.12,0.07l0.09,0.12l0.03,0.21
				v0.12l0.02,0.26L342.26,194.02z"/>
			<path class="st10" d="M354.49,194.02l-0.02,0.26l0.02,0.52l-0.02,0.28l-0.02,0.14l-0.03,0.21l-0.05,0.12l-0.1,0.09l-0.21,0.03
				h-0.28l-0.52-0.05l-0.28-0.02l-0.79,0.05h-0.28l-0.43-0.04h-0.26l-0.12,0.02l-0.17,0.05l-0.07,0.1l-0.02,0.22l-0.07,1.02v0.28
				l0.07,1.04l-0.02,0.28l-0.07,1.04l-0.02,0.28l0.04,1.02v1.59l-0.04,1.02l0.02,0.26l0.09,0.78l0.02,0.28l-0.05,0.21l-0.09,0.09
				l-0.22,0.04l-0.33-0.02l-0.43-0.05l-0.29-0.02l-0.78,0.05h-0.28l-0.78-0.05l-0.21-0.02l-0.1-0.05l-0.03-0.19v-0.29l0.05-0.73
				l0.02-0.28v-1.29l0.02-1.04v-0.28l0.02-1.02v-0.28l-0.07-1.04l-0.02-0.28v-1.31l-0.04-1.02v-0.24l-0.05-0.14l-0.17-0.03h-0.26
				l-0.55,0.03h-0.31l-0.47-0.03l-0.29-0.02l-0.29,0.02l-0.4,0.02h-0.26l-0.14-0.02l-0.19-0.04l-0.1-0.07l-0.07-0.1l-0.04-0.17
				v-0.12l-0.02-0.28l0.03-0.52v-0.26l-0.05-0.66l0.02-0.28l0.05-0.22l0.07-0.12l0.1-0.05l0.17-0.04h0.4l0.64,0.05h0.28l1-0.07h0.28
				l1.02,0.09h0.28l1.28-0.09l1,0.02h0.28l1.3-0.02h1.28l0.57-0.04l0.29,0.02l0.14,0.02l0.21,0.03l0.12,0.07l0.09,0.12l0.03,0.21
				v0.12l0.02,0.26L354.49,194.02z"/>
			<path class="st10" d="M307.32,221.63l0.05,0.24l-0.12,0.19l-0.19,0.09l-0.22,0.04h-0.24l-0.4-0.04l-0.26-0.02h-0.78l-1.07,0.07
				l-0.22-0.07l-0.1-0.14l-0.09-0.19l-0.54-1.45l-0.12-0.17l-0.16-0.03l-0.21-0.02l-1.04-0.07h-0.28l-1.3-0.03l-1.04-0.02h-0.26
				l-0.26,0.02h-0.79l-0.22,0.03l-0.14,0.09l-0.1,0.21l-0.4,1.17l-0.1,0.28l-0.19,0.22l-0.26,0.1l-0.28-0.02l-1-0.05h-0.28
				l-1.07,0.07l-0.22,0.02l-0.21-0.1l-0.14-0.19l0.02-0.22l0.03-0.14l0.1-0.28l0.24-0.54l0.1-0.26l0.43-0.97l0.1-0.24l0.45-0.97
				l0.1-0.26l0.4-0.93l0.1-0.26l0.47-0.97l0.1-0.24l0.62-1.42l0.48-1.04l0.12-0.28l0.38-0.78l0.12-0.28l0.33-0.79l0.1-0.26
				l0.31-0.71l0.09-0.19l0.17-0.1l0.26-0.05l0.79-0.04h1.35l0.79,0.02l0.29,0.05l0.19,0.14l0.09,0.22l0.24,0.67l0.1,0.26l0.43,0.81
				l0.1,0.24l0.38,0.85l0.1,0.24l0.31,0.88l0.1,0.24l0.38,0.83l0.1,0.24l0.38,0.85l0.1,0.24l0.35,0.86l0.1,0.24l0.54,1.07l0.42,0.81
				l0.12,0.24l0.47,1.09L307.32,221.63z M301.55,216.76l-0.07-0.22l-0.38-1.17l-0.09-0.26l-0.35-1.02l-0.09-0.22l-0.17-0.12
				l-0.22-0.05l-0.19,0.05l-0.17,0.17l-0.47,1.17l-0.1,0.26l-0.45,1.16l-0.05,0.26l0.05,0.21l0.19,0.09l0.24,0.03h1.09l0.81,0.05
				l0.22-0.07l0.14-0.14L301.55,216.76z"/>
			<path class="st10" d="M320.93,212.35l-0.02,0.28v2.56l0.05,1v0.28l0.04,2.28v0.29l-0.02,0.14l-0.02,0.29l-0.05,0.83l0.02,1
				l-0.02,0.24l-0.07,0.21l-0.14,0.19l-0.17,0.12l-0.16,0.05l-0.24,0.02l-0.88,0.03l-0.28,0.02l-0.43,0.02h-0.28l-0.22-0.05
				l-0.21-0.09l-0.21-0.16l-0.16-0.22l-0.26-0.5l-0.16-0.22l-0.67-0.85l-0.17-0.21l-0.67-0.83l-0.16-0.22l-0.6-0.9l-0.16-0.21
				l-0.67-0.83l-0.17-0.21l-0.64-0.85l-0.16-0.14l-0.12,0.05l-0.05,0.21l-0.03,0.86v0.28l0.02,0.86v0.28l0.02,0.97v0.28l-0.05,0.97
				l0.02,0.28l0.1,0.69l0.02,0.28l-0.05,0.22l-0.12,0.12l-0.12,0.03l-0.21,0.04l-0.14,0.02l-0.29,0.02l-0.79-0.02h-0.28l-0.71,0.04
				h-0.28l-0.26-0.02l-0.19-0.03l-0.14-0.09l-0.07-0.12l-0.03-0.17l-0.02-0.12v-0.26l0.04-0.57l0.02-0.28l-0.05-0.92v-0.28
				l0.04-2.11l0.02-0.28l0.05-0.92l0.02-0.28v-1.19l-0.07-0.92v-0.28l0.07-0.92l-0.02-0.28l-0.07-0.93l-0.02-0.28v-0.4l0.02-0.26
				l0.03-0.26l0.03-0.19l0.05-0.12l0.1-0.05l0.19-0.04l0.52-0.03l0.52,0.03h1.3l0.21,0.02l0.09,0.07l0.1,0.16l0.73,0.78l0.17,0.21
				l0.64,0.83l0.17,0.21l0.64,0.85l0.17,0.21l0.62,0.86l0.16,0.21l0.66,0.83l0.17,0.21l0.62,0.86l0.14,0.12l0.14,0.02l0.12-0.09
				v-0.19l-0.12-0.73l-0.02-0.28l0.05-0.74v-0.28l-0.07-1.05v-0.28l0.07-1.05l-0.02-0.28l-0.05-0.64v-0.43l0.05-0.22l0.07-0.14
				l0.12-0.07l0.21-0.03h0.16l0.29-0.02l0.78,0.05h0.28l0.59-0.03l0.26,0.02l0.4,0.02l0.19,0.03l0.12,0.05l0.1,0.12l0.03,0.24
				l0.02,0.16l0.02,0.29l-0.04,0.54l-0.03,0.28L320.93,212.35z"/>
			<path class="st10" d="M335.14,215.03l0.02,0.29l-0.07,1.12v1.62l-0.03,0.73v1.02l-0.02,0.19l-0.1,0.17l-0.14,0.22l-0.16,0.22
				l-0.29,0.29l-0.21,0.19l-0.1,0.1l-0.22,0.16l-0.12,0.07l-0.22,0.14l-0.35,0.17l-0.26,0.1l-0.24,0.09l-0.4,0.12l-0.26,0.07
				l-0.28,0.05l-0.26,0.05l-0.4,0.05l-0.24,0.03l-0.26,0.05l-0.69,0.09l-0.26,0.02l-0.54-0.03l-0.4-0.03l-0.28-0.04l-0.28-0.05
				l-0.26-0.07l-0.61-0.17l-0.26-0.07l-0.26-0.09l-0.35-0.12l-0.22-0.12l-0.35-0.19l-0.21-0.16l-0.22-0.16l-0.21-0.17l-0.21-0.16
				l-0.19-0.17l-0.28-0.28l-0.17-0.21l-0.19-0.26l-0.16-0.24l-0.43-0.78l-0.12-0.28l-0.12-0.26l-0.09-0.28l-0.09-0.29l-0.05-0.28
				l-0.05-0.29l-0.04-0.28l-0.07-0.38l-0.04-0.28l-0.02-0.26v-0.26l0.05-0.78l0.03-0.14l0.05-0.29l0.07-0.29l0.09-0.28l0.09-0.29
				l0.09-0.28l0.09-0.26l0.12-0.28l0.12-0.29l0.12-0.24l0.22-0.31l0.16-0.21l0.19-0.22l0.19-0.21l0.21-0.19l0.45-0.38l0.22-0.17
				l0.21-0.16l0.21-0.14l0.57-0.33l0.26-0.16l0.29-0.12l0.29-0.09l0.28-0.07l0.64-0.1l0.5-0.07l0.26-0.05l0.26-0.03l0.4-0.04
				l0.28-0.02l0.38,0.03l0.26,0.02l0.4,0.05l0.24,0.05l0.38,0.07l0.26,0.07l0.38,0.12l0.26,0.09l0.62,0.31l0.26,0.16l0.22,0.16
				l0.09,0.05l0.19,0.12l0.19,0.14l0.09,0.09l0.19,0.14l0.1,0.09l0.1,0.12v0.12l-0.05,0.12l-0.1,0.16l-0.16,0.22l-0.17,0.19
				l-0.48,0.48l-0.31,0.28l-0.21,0.17l-0.19,0.14l-0.14,0.1l-0.1,0.07l-0.14,0.02l-0.19-0.12l-0.22-0.16l-0.22-0.14l-0.24-0.14
				l-0.28-0.12l-0.28-0.1l-0.29-0.07l-0.29-0.05l-0.81-0.05h-0.12l-0.28,0.02l-0.45,0.04l-0.28,0.07l-0.52,0.24l-0.22,0.16
				l-0.22,0.17l-0.19,0.19l-0.17,0.22l-0.16,0.22l-0.14,0.24l-0.1,0.26l-0.09,0.28l-0.07,0.26l-0.1,0.52l-0.05,0.28l-0.02,0.29v0.29
				l0.03,0.41l0.05,0.28l0.09,0.4l0.09,0.28l0.17,0.42l0.12,0.24l0.21,0.31l0.17,0.21l0.31,0.29l0.22,0.17l0.35,0.19l0.26,0.1
				l0.52,0.12l0.29,0.03l0.29,0.02h0.28l0.28-0.03l0.26-0.05l0.93-0.22l0.28-0.1l0.26-0.12l0.17-0.12l0.05-0.1v-0.19l0.02-0.16
				v-0.26l-0.03-0.52v-0.29l-0.07-0.1l-0.19-0.03h-0.42l-0.28,0.02l-0.4,0.05l-0.28,0.02h-0.4l-0.28-0.02l-0.59-0.1l-0.1-0.03
				l-0.07-0.09l-0.03-0.21l-0.02-0.14l-0.02-0.28l0.02-0.43l-0.03-0.52l-0.04-0.26v-0.36l0.05-0.19l0.09-0.09l0.21-0.03l0.43-0.05
				l0.29-0.02h0.79l1.12-0.05l1.38,0.09h0.28l0.71-0.09l0.28-0.02l0.14,0.02l0.26,0.05l0.12,0.07l0.04,0.1l0.05,0.24L335.14,215.03z
				"/>
			<path class="st10" d="M347.63,218.24l-0.02,0.29l-0.04,0.29l-0.05,0.28l-0.09,0.38l-0.09,0.24l-0.16,0.35l-0.12,0.22l-0.21,0.31
				l-0.17,0.21l-0.21,0.21l-0.21,0.19l-0.35,0.22l-0.22,0.16l-0.26,0.14l-0.24,0.12l-0.4,0.14l-0.52,0.17l-0.28,0.05l-0.43,0.07
				l-0.26,0.03l-0.38,0.04l-0.24,0.02l-0.4,0.02l-0.83,0.05h-0.38l-0.24-0.02l-0.4-0.03l-0.26-0.03l-0.29-0.05l-0.26-0.09
				l-0.38-0.12l-0.24-0.12l-0.26-0.12l-0.24-0.12l-0.22-0.14l-0.55-0.38l-0.21-0.17l-0.31-0.24l-0.21-0.17l-0.19-0.19l-0.14-0.16
				l-0.02-0.12l0.09-0.16l0.07-0.09l0.17-0.19l0.48-0.45l0.16-0.19l0.29-0.45l0.16-0.19l0.17-0.19l0.19-0.1l0.19,0.03l0.19,0.14
				l0.55,0.38l0.26,0.14l0.24,0.12l0.4,0.19l0.26,0.09l0.28,0.09l0.28,0.05l0.4,0.02l0.28,0.02l1.09-0.07l0.28-0.03l0.14-0.04
				l0.26-0.1l0.22-0.14l0.17-0.17l0.09-0.12l0.1-0.26l-0.02-0.29l-0.03-0.14l-0.14-0.24l-0.09-0.1l-0.22-0.17l-0.14-0.05l-0.26-0.1
				l-0.29-0.07l-0.29-0.05l-1.64-0.16l-0.52-0.1l-0.28-0.07l-0.38-0.14l-0.26-0.09l-0.26-0.12l-0.59-0.29l-0.22-0.16l-0.26-0.16
				l-0.22-0.16l-0.29-0.24l-0.16-0.22l-0.16-0.26l-0.1-0.26l-0.12-0.36l-0.05-0.26l-0.05-0.38l-0.03-0.55l0.02-0.28l0.03-0.42
				l0.05-0.26l0.07-0.22l0.09-0.26l0.17-0.38l0.12-0.24l0.14-0.21l0.17-0.19l0.28-0.26l0.22-0.17l0.22-0.16l0.24-0.12l0.33-0.19
				l0.52-0.21l0.26-0.09l0.4-0.07l0.28-0.05l0.52-0.07l0.38-0.07l0.28-0.03l0.26-0.02h0.28l0.52,0.05l0.26,0.04l0.12,0.03l0.28,0.03
				l0.59,0.1l0.29,0.07l0.28,0.09l0.29,0.09l0.28,0.1l0.26,0.12l0.26,0.1l0.33,0.19l0.24,0.12l0.22,0.16l0.16,0.16v0.17l-0.1,0.19
				l-0.19,0.35l-0.14,0.21l-0.66,0.86l-0.19,0.24l-0.21,0.17l-0.14,0.05l-0.12-0.02l-0.17-0.09l-0.26-0.16l-0.26-0.1l-0.12-0.05
				l-0.26-0.09l-0.14-0.03l-0.29-0.07l-0.4-0.09l-0.28-0.02l-0.45-0.03h-0.45l-0.29,0.02l-0.29,0.05l-0.28,0.09l-0.1,0.05
				l-0.21,0.16l-0.09,0.1l-0.12,0.24l-0.04,0.28l0.05,0.22l0.14,0.22l0.19,0.17l0.21,0.1l0.12,0.05l0.26,0.05l0.43,0.05l0.59,0.03
				l0.29,0.05l0.59,0.14l0.55,0.17l0.4,0.09l0.26,0.07l0.48,0.17l0.35,0.16l0.24,0.12l0.24,0.14l0.22,0.14l0.5,0.41l0.19,0.21
				l0.17,0.21l0.21,0.31l0.14,0.22l0.12,0.26l0.07,0.26l0.07,0.38l0.04,0.26L347.63,218.24z"/>
			<path class="st10" d="M358.77,211l-0.02,0.26l0.02,0.52l-0.02,0.28l-0.02,0.14l-0.03,0.21l-0.05,0.12l-0.1,0.09l-0.21,0.03h-0.28
				l-0.52-0.05l-0.28-0.02l-0.79,0.05h-0.28l-0.43-0.04h-0.26l-0.12,0.02l-0.17,0.05l-0.07,0.1l-0.02,0.22l-0.07,1.02v0.28
				l0.07,1.04l-0.02,0.28l-0.07,1.04l-0.02,0.28l0.04,1.02v1.59l-0.04,1.02l0.02,0.26l0.09,0.78l0.02,0.28l-0.05,0.21l-0.09,0.09
				l-0.22,0.04l-0.33-0.02l-0.43-0.05l-0.29-0.02l-0.78,0.05h-0.28l-0.78-0.05l-0.21-0.02l-0.1-0.05l-0.03-0.19v-0.29l0.05-0.73
				l0.02-0.28v-1.29l0.02-1.04v-0.28l0.02-1.02v-0.28l-0.07-1.04l-0.02-0.28v-1.31l-0.04-1.02v-0.24l-0.05-0.14l-0.17-0.04h-0.26
				l-0.55,0.04h-0.31l-0.47-0.04l-0.29-0.02l-0.29,0.02l-0.4,0.02h-0.26l-0.14-0.02l-0.19-0.03l-0.1-0.07l-0.07-0.1l-0.04-0.17
				v-0.12l-0.02-0.28l0.03-0.52v-0.26l-0.05-0.66l0.02-0.28l0.05-0.22l0.07-0.12l0.1-0.05l0.17-0.04h0.4l0.64,0.05h0.28l1-0.07h0.28
				l1.02,0.09h0.28l1.28-0.09l1,0.02h0.28l1.3-0.02h1.28l0.57-0.04l0.29,0.02l0.14,0.02l0.21,0.03l0.12,0.07l0.09,0.12l0.03,0.21
				v0.12l0.02,0.26L358.77,211z"/>
		</g>
	</g>
</g>
</svg>
